{"glyphs":{"0":{"ha":1219,"x_min":43,"x_max":1176,"o":"m 609 -20 q 460 -6 532 -20 q 325 36 388 7 q 210 108 262 64 q 121 214 158 153 q 63 355 83 275 q 43 533 43 434 q 86 767 43 668 q 205 930 130 865 q 385 1026 281 994 q 609 1057 488 1057 q 759 1044 686 1057 q 894 1004 831 1031 q 1009 935 957 977 q 1098 834 1061 892 q 1156 701 1135 776 q 1176 533 1176 626 q 1132 282 1176 387 q 1010 110 1087 177 q 830 12 933 43 q 609 -20 726 -20 m 609 747 q 553 736 576 747 q 516 707 530 725 q 493 665 501 688 q 482 618 486 642 q 477 572 478 595 q 477 533 477 550 q 477 494 477 516 q 482 447 478 471 q 493 399 486 423 q 516 357 501 376 q 553 327 530 338 q 609 315 576 315 q 665 327 642 315 q 702 357 688 338 q 725 399 717 376 q 737 447 733 423 q 741 494 741 471 q 742 533 742 516 q 741 572 742 550 q 737 618 741 595 q 725 665 733 642 q 702 707 717 688 q 665 736 688 725 q 609 747 642 747 z "},"1":{"ha":711,"x_min":66,"x_max":674,"o":"m 66 989 l 587 1042 l 587 288 l 674 271 l 674 0 l 66 0 l 66 271 l 153 288 l 153 694 l 66 694 l 66 989 z "},"2":{"ha":994,"x_min":62,"x_max":937,"o":"m 62 349 q 126 370 85 357 q 216 399 167 382 q 316 440 265 417 q 408 493 367 463 q 476 560 450 523 q 503 642 503 597 q 493 692 503 671 q 469 727 484 713 q 432 748 453 741 q 389 755 412 755 q 322 730 356 755 q 267 660 289 705 l 62 660 l 62 972 q 125 1001 90 986 q 207 1029 161 1017 q 312 1049 253 1042 q 444 1057 370 1057 q 644 1034 553 1057 q 800 965 735 1010 q 901 851 865 919 q 937 694 937 783 q 920 585 937 634 q 875 497 903 536 q 812 427 848 457 q 741 373 777 396 q 545 291 657 319 l 930 291 l 930 0 l 62 0 l 62 349 z "},"3":{"ha":1071,"x_min":64,"x_max":1019,"o":"m 453 245 q 510 253 486 245 q 551 275 534 261 q 577 306 568 289 q 585 342 585 323 q 580 370 585 356 q 564 395 574 385 q 537 413 553 406 q 500 420 521 420 l 325 420 l 325 621 l 500 621 q 537 627 521 621 q 564 645 553 634 q 580 670 574 656 q 585 699 585 684 q 577 734 585 717 q 551 765 568 751 q 510 787 534 779 q 453 795 486 795 q 355 772 402 795 q 269 701 307 749 l 64 701 l 64 972 q 123 994 92 983 q 190 1015 155 1005 q 336 1044 252 1031 q 531 1057 420 1057 q 745 1028 654 1057 q 898 953 837 1000 q 989 846 959 906 q 1019 724 1019 786 q 1006 640 1019 675 q 975 580 994 604 q 934 542 956 556 q 894 520 912 527 q 935 497 913 512 q 975 457 956 481 q 1007 398 994 433 q 1019 317 1019 363 q 989 193 1019 253 q 898 85 959 132 q 746 9 838 38 q 531 -20 654 -20 q 373 -12 444 -20 q 247 7 303 -5 q 145 35 190 20 q 64 64 100 50 l 64 340 l 269 340 q 355 268 307 291 q 453 245 402 245 z "},"4":{"ha":1112,"x_min":12,"x_max":1097,"o":"m 12 575 l 446 1042 l 880 1069 l 880 575 l 1097 575 l 1097 401 l 880 401 l 880 288 l 967 271 l 967 0 l 359 0 l 359 271 l 446 288 l 446 401 l 12 401 l 12 575 m 262 575 l 446 575 l 446 792 l 262 575 z "},"5":{"ha":1000,"x_min":59,"x_max":961,"o":"m 439 226 q 496 230 471 226 q 539 246 522 234 q 565 281 556 258 q 574 343 574 304 q 564 399 574 376 q 533 435 553 422 q 488 455 514 449 q 430 460 461 460 q 361 458 397 460 q 288 451 326 456 q 214 441 251 447 q 144 430 178 436 l 59 500 l 59 1042 l 888 1042 l 888 721 l 684 721 q 597 772 645 755 q 499 788 550 788 l 392 788 l 382 629 q 457 652 418 644 q 533 659 496 659 q 641 651 588 659 q 742 627 694 644 q 830 585 790 610 q 899 526 870 560 q 945 448 928 492 q 961 350 961 404 q 943 232 961 285 q 891 138 924 179 q 813 67 859 97 q 713 18 768 37 q 598 -11 659 -1 q 472 -20 536 -20 q 366 -14 420 -20 q 259 2 312 -8 q 156 29 206 13 q 59 65 105 45 l 59 321 l 262 321 q 345 249 300 272 q 439 226 389 226 z "},"6":{"ha":1127,"x_min":46,"x_max":1097,"o":"m 612 795 q 556 784 578 794 q 518 752 533 773 q 495 701 503 732 q 484 627 488 670 q 583 633 540 632 q 658 634 625 634 q 760 628 708 634 q 861 610 812 623 q 952 575 909 597 q 1028 522 996 554 q 1079 448 1060 490 q 1097 350 1097 406 q 1065 185 1097 254 q 969 70 1034 115 q 806 2 904 24 q 575 -20 707 -20 q 341 12 440 -20 q 176 110 241 44 q 78 278 111 176 q 46 520 46 380 q 81 761 46 660 q 184 928 115 863 q 358 1026 254 994 q 602 1057 463 1057 q 739 1049 677 1057 q 849 1029 800 1041 q 936 1001 898 1017 q 1001 972 973 986 l 1001 713 l 797 713 q 711 773 758 750 q 612 795 663 795 m 599 441 q 483 430 524 441 q 496 336 487 372 q 519 279 505 300 q 551 251 533 258 q 592 243 570 243 q 643 247 621 243 q 680 262 665 251 q 703 295 695 274 q 711 350 711 316 q 703 398 711 380 q 682 425 696 416 q 646 438 667 435 q 599 441 625 441 z "},"7":{"ha":845,"x_min":22,"x_max":803,"o":"m 96 -1 q 143 182 119 97 q 191 341 167 268 q 239 476 216 415 q 285 586 263 537 q 384 781 336 701 q 305 773 342 781 q 237 753 269 766 q 180 725 206 741 q 135 694 155 709 l 22 694 l 22 1042 l 803 1042 l 803 781 q 742 632 774 713 q 676 455 709 551 q 609 245 643 359 q 543 -1 575 132 l 96 -1 z "},"8":{"ha":1080,"x_min":41,"x_max":1038,"o":"m 1004 766 q 963 635 1004 692 q 850 534 922 577 q 927 489 892 514 q 987 433 962 463 q 1025 369 1012 403 q 1038 296 1038 334 q 1008 156 1038 216 q 914 58 977 97 q 755 0 851 19 q 528 -20 659 -20 q 311 1 402 -20 q 159 62 219 22 q 71 160 100 102 q 41 296 41 219 q 55 369 41 334 q 92 433 68 403 q 152 489 117 463 q 229 534 186 514 q 116 635 157 577 q 75 766 75 692 q 102 890 75 836 q 186 982 130 945 q 331 1038 243 1019 q 540 1057 418 1057 q 749 1038 661 1057 q 893 981 837 1019 q 977 890 950 944 q 1004 766 1004 836 m 540 626 q 587 630 566 626 q 623 644 608 633 q 644 672 637 654 q 652 719 652 690 q 645 770 652 750 q 623 801 637 790 q 588 817 609 812 q 540 821 567 821 q 491 817 512 821 q 456 801 471 812 q 435 770 442 790 q 428 719 428 750 q 435 672 428 690 q 457 644 443 654 q 492 630 471 633 q 540 626 513 626 m 540 442 q 487 438 510 442 q 447 420 463 433 q 423 385 431 408 q 414 326 414 362 q 422 275 414 294 q 447 246 431 256 q 486 232 463 235 q 540 229 509 229 q 594 232 570 229 q 633 246 617 235 q 657 275 649 256 q 665 326 665 294 q 657 385 665 362 q 632 420 648 408 q 593 438 616 433 q 540 442 570 442 z "},"9":{"ha":1125,"x_min":28,"x_max":1079,"o":"m 513 246 q 564 254 542 246 q 603 281 587 261 q 628 337 618 302 q 641 427 637 372 q 553 416 596 418 q 465 414 509 414 q 335 424 393 414 q 232 448 277 433 q 155 480 186 463 q 107 511 123 497 q 49 586 71 544 q 28 692 28 629 q 158 968 28 880 q 550 1057 288 1057 q 783 1026 684 1057 q 948 928 882 994 q 1046 762 1014 863 q 1079 522 1079 661 q 1045 280 1079 382 q 942 111 1011 178 q 769 13 873 45 q 523 -20 664 -20 q 356 -6 427 -20 q 231 23 284 7 q 174 42 201 33 q 124 66 148 52 l 124 341 l 328 341 q 414 269 367 292 q 513 246 462 246 m 526 606 q 642 617 601 606 q 630 711 638 673 q 610 774 623 750 q 578 808 597 798 q 533 819 559 819 q 480 815 503 819 q 443 799 458 812 q 421 761 429 786 q 414 692 414 735 q 422 647 414 664 q 444 622 429 631 q 479 609 458 612 q 526 606 500 606 z "}," ":{"ha":424,"x_min":0,"x_max":0,"o":""},"!":{"ha":647,"x_min":62,"x_max":584,"o":"m 62 771 l 62 1042 l 584 1042 l 584 771 l 497 347 l 150 347 l 62 771 m 106 260 l 541 260 l 541 0 l 106 0 l 106 260 z "},"\"":{"ha":621,"x_min":50,"x_max":571,"o":"m 571 958 l 537 616 l 391 616 l 357 958 l 357 1042 l 571 1042 l 571 958 m 264 958 l 230 616 l 83 616 l 50 958 l 50 1042 l 264 1042 l 264 958 z "},"#":{"ha":1053,"x_min":52,"x_max":1000,"o":"m 557 174 l 384 174 l 355 0 l 95 0 l 123 174 l 52 174 l 52 434 l 167 434 l 196 608 l 89 608 l 89 868 l 239 868 l 269 1042 l 529 1042 l 500 868 l 673 868 l 703 1042 l 963 1042 l 934 868 l 1000 868 l 1000 608 l 890 608 l 861 434 l 965 434 l 965 174 l 818 174 l 789 0 l 529 0 l 557 174 m 427 434 l 601 434 l 630 608 l 456 608 l 427 434 z "},"$":{"ha":987,"x_min":42,"x_max":947,"o":"m 406 -24 q 284 -12 338 -20 q 188 9 231 -3 q 112 33 145 20 q 51 59 78 46 l 51 335 l 255 335 q 335 263 290 286 q 426 240 379 240 q 453 242 438 240 q 481 254 468 244 q 504 283 494 263 q 513 340 513 304 q 397 356 454 346 q 288 384 340 366 q 190 428 235 401 q 112 493 145 455 q 61 582 79 531 q 42 701 42 633 q 72 864 42 798 q 153 972 102 930 q 269 1036 203 1015 q 406 1064 335 1057 l 406 1302 l 623 1302 l 623 1063 q 727 1047 681 1057 q 810 1028 774 1038 q 875 1006 847 1017 q 924 983 903 994 l 924 707 l 720 707 q 643 779 686 756 q 556 802 601 802 q 528 799 544 802 q 499 785 513 796 q 476 752 486 774 q 467 694 467 731 q 675 669 585 690 q 826 603 766 647 q 916 491 886 559 q 947 327 947 423 q 921 184 947 243 q 850 83 895 124 q 747 19 806 43 q 623 -15 688 -4 l 623 -261 l 406 -261 l 406 -24 z "},"%":{"ha":2347,"x_min":38,"x_max":2309,"o":"m 450 256 q 289 280 364 256 q 158 353 214 303 q 70 481 102 403 q 38 671 38 560 q 70 854 38 779 q 158 977 102 930 q 289 1046 214 1025 q 450 1068 364 1068 q 610 1046 534 1068 q 741 977 685 1025 q 829 854 797 930 q 862 671 862 779 q 829 481 862 560 q 741 353 797 403 q 610 280 685 303 q 450 256 535 256 m 1078 1042 l 1512 1042 l 1251 0 l 817 0 l 1078 1042 m 450 830 q 400 822 420 830 q 367 800 380 813 q 347 769 354 787 q 337 734 340 752 q 333 700 334 717 q 332 671 332 684 q 333 643 332 659 q 337 608 334 626 q 347 573 340 590 q 367 542 354 555 q 400 519 380 528 q 450 511 420 511 q 499 519 479 511 q 532 542 519 528 q 552 573 545 555 q 563 608 559 590 q 567 643 566 626 q 568 671 568 659 q 567 700 568 684 q 563 734 566 717 q 552 769 559 752 q 532 800 545 787 q 499 822 519 813 q 450 830 479 830 m 1897 -28 q 1736 -5 1811 -28 q 1606 68 1662 18 q 1517 197 1550 118 q 1485 387 1485 275 q 1517 569 1485 494 q 1606 692 1550 645 q 1736 762 1662 740 q 1897 783 1811 783 q 2057 762 1982 783 q 2188 692 2132 740 q 2277 569 2244 645 q 2309 387 2309 494 q 2277 197 2309 275 q 2188 68 2244 118 q 2057 -5 2132 18 q 1897 -28 1982 -28 m 1897 545 q 1847 537 1868 545 q 1814 515 1827 528 q 1794 485 1801 502 q 1784 450 1787 467 q 1780 415 1781 432 q 1780 387 1780 399 q 1780 358 1780 374 q 1784 323 1781 341 q 1794 288 1787 305 q 1814 257 1801 271 q 1847 234 1827 243 q 1897 226 1868 226 q 1946 234 1926 226 q 1980 257 1967 243 q 2000 288 1992 271 q 2010 323 2007 305 q 2014 358 2013 341 q 2015 387 2015 374 q 2014 415 2015 399 q 2010 450 2013 432 q 2000 485 2007 467 q 1980 515 1992 502 q 1946 537 1967 528 q 1897 545 1926 545 z "},"&":{"ha":2008,"x_min":55,"x_max":1975,"o":"m 1586 245 q 1685 268 1637 245 q 1771 340 1732 291 l 1975 340 l 1975 64 q 1894 35 1939 50 q 1793 7 1849 20 q 1666 -12 1736 -5 q 1508 -20 1596 -20 q 1281 12 1375 -20 q 1126 97 1187 44 q 995 36 1063 59 q 858 1 927 13 q 721 -16 789 -12 q 591 -20 653 -20 q 354 10 455 -20 q 187 89 254 40 q 88 201 121 138 q 55 330 55 264 q 64 422 55 383 q 90 490 73 461 q 133 539 107 519 q 194 574 159 559 q 153 596 175 581 q 112 634 131 610 q 81 694 94 659 q 68 778 68 729 q 76 832 68 808 q 97 878 83 857 q 134 920 112 899 q 184 962 155 940 q 332 1031 243 1005 q 543 1057 420 1057 q 735 1034 643 1057 q 915 972 828 1011 l 915 755 l 711 755 q 694 798 705 780 q 668 826 683 815 q 635 843 652 838 q 600 848 618 848 q 559 842 579 848 q 524 822 539 835 q 498 792 508 810 q 489 753 489 774 q 494 724 489 739 q 511 699 500 710 q 537 682 522 688 q 574 675 553 675 l 1020 675 l 1020 1042 l 1454 1042 l 1454 675 l 1714 675 l 1714 475 l 1455 475 q 1454 448 1454 461 q 1454 422 1454 435 l 1454 342 q 1462 306 1454 323 q 1488 275 1471 289 q 1529 253 1505 261 q 1586 245 1554 245 m 689 245 q 799 251 748 245 q 891 268 850 258 q 965 290 932 278 q 1020 312 998 302 l 1020 474 l 574 474 q 537 465 553 474 q 511 441 522 456 q 494 408 500 427 q 489 369 489 389 q 502 323 489 345 q 539 283 514 301 q 601 255 564 266 q 689 245 639 245 z "},"'":{"ha":313,"x_min":50,"x_max":264,"o":"m 264 958 l 230 616 l 83 616 l 50 958 l 50 1042 l 264 1042 l 264 958 z "},"(":{"ha":715,"x_min":28,"x_max":667,"o":"m 28 521 q 42 656 28 589 q 84 785 56 724 q 155 898 113 846 q 253 988 197 950 q 378 1048 309 1026 q 532 1069 448 1069 q 597 1066 565 1069 q 667 1056 630 1063 l 667 817 q 585 801 620 816 q 525 763 550 787 q 484 709 500 739 q 458 646 467 679 q 445 581 448 614 q 441 521 441 549 q 445 460 441 493 q 458 395 448 428 q 484 332 467 363 q 525 278 500 302 q 585 240 550 254 q 667 224 620 225 l 667 -14 q 597 -25 630 -22 q 532 -28 565 -28 q 378 -6 448 -28 q 253 54 309 16 q 155 144 197 92 q 84 257 113 196 q 42 385 56 318 q 28 521 28 452 z "},")":{"ha":715,"x_min":49,"x_max":687,"o":"m 687 521 q 673 385 687 452 q 631 257 659 318 q 561 144 603 196 q 463 54 519 92 q 337 -6 407 16 q 183 -28 267 -28 q 118 -25 151 -28 q 49 -14 85 -22 l 49 224 q 131 240 96 226 q 191 279 165 255 q 232 333 216 302 q 258 395 248 363 q 271 460 267 428 q 275 521 275 492 q 271 581 275 549 q 258 646 267 614 q 232 709 248 679 q 191 763 216 739 q 131 801 165 787 q 49 817 96 816 l 49 1056 q 118 1066 85 1063 q 183 1069 151 1069 q 337 1048 267 1069 q 463 988 407 1026 q 561 898 519 950 q 631 785 603 846 q 673 656 659 724 q 687 521 687 589 z "},"*":{"ha":886,"x_min":54,"x_max":827,"o":"m 546 237 l 330 237 l 330 321 l 344 442 l 257 358 l 191 307 l 58 475 l 124 526 l 297 637 l 121 743 l 54 793 l 182 965 l 249 916 l 348 825 l 336 959 l 336 1042 l 551 1042 l 551 958 l 537 837 l 625 921 l 690 972 l 823 804 l 758 753 l 583 642 l 761 536 l 827 486 l 700 314 l 633 363 l 533 453 l 546 320 l 546 237 z "},"+":{"ha":773,"x_min":39,"x_max":734,"o":"m 39 608 l 300 608 l 300 868 l 473 868 l 473 608 l 734 608 l 734 434 l 473 434 l 473 174 l 300 174 l 300 434 l 39 434 l 39 608 z "},",":{"ha":575,"x_min":71,"x_max":505,"o":"m 71 347 l 505 347 l 505 1 q 475 -144 505 -85 q 396 -239 445 -203 q 285 -291 347 -275 q 157 -307 222 -307 l 157 -87 q 185 -82 170 -86 q 213 -68 200 -78 q 235 -42 226 -59 q 243 0 243 -26 l 71 0 l 71 347 z "},"-":{"ha":498,"x_min":75,"x_max":422,"o":"m 422 608 l 422 434 l 75 434 l 75 608 l 422 608 z "},".":{"ha":574,"x_min":70,"x_max":504,"o":"m 70 347 l 504 347 l 504 0 l 70 0 l 70 347 z "},"/":{"ha":768,"x_min":38,"x_max":732,"o":"m 298 1042 l 732 1042 l 472 0 l 38 0 l 298 1042 z "},":":{"ha":631,"x_min":98,"x_max":532,"o":"m 98 955 l 532 955 l 532 608 l 98 608 l 98 955 m 98 347 l 532 347 l 532 0 l 98 0 l 98 347 z "},";":{"ha":583,"x_min":71,"x_max":508,"o":"m 71 955 l 505 955 l 505 608 l 71 608 l 71 955 m 74 347 l 508 347 l 508 1 q 478 -144 508 -85 q 399 -239 448 -203 q 288 -291 351 -275 q 161 -307 226 -307 l 161 -87 q 189 -82 174 -86 q 216 -68 203 -78 q 238 -42 229 -59 q 247 0 247 -26 l 74 0 l 74 347 z "},"<":{"ha":787,"x_min":50,"x_max":724,"o":"m 355 425 l 724 315 l 724 -12 l 50 242 l 50 710 l 724 964 l 724 535 l 355 425 z "},"=":{"ha":631,"x_min":79,"x_max":552,"o":"m 552 608 l 552 434 l 79 434 l 79 608 l 552 608 m 552 290 l 552 117 l 79 117 l 79 290 l 552 290 z "},">":{"ha":787,"x_min":63,"x_max":736,"o":"m 63 535 l 63 964 l 736 710 l 736 242 l 63 -12 l 63 315 l 432 425 l 63 535 z "},"?":{"ha":949,"x_min":44,"x_max":913,"o":"m 479 737 q 472 774 479 758 q 453 801 465 790 q 425 818 441 812 q 392 823 409 823 q 315 805 353 823 q 248 749 277 787 l 44 749 l 44 983 q 94 1006 67 995 q 151 1026 120 1017 q 276 1056 203 1042 q 446 1069 349 1069 q 638 1049 552 1069 q 786 989 725 1030 q 880 886 847 949 q 913 737 913 823 q 889 610 913 663 q 824 522 865 557 q 726 463 782 486 q 607 427 671 441 l 607 347 l 175 347 q 173 347 174 347 l 173 581 q 211 592 184 585 q 271 609 237 600 q 342 631 305 618 q 409 659 379 644 q 459 694 439 675 q 479 737 479 713 m 173 260 l 607 260 l 607 -1 l 173 -1 l 173 260 z "},"@":{"ha":1267,"x_min":46,"x_max":1230,"o":"m 1230 550 q 1214 429 1230 486 q 1165 328 1199 371 q 1077 258 1131 284 q 945 233 1023 233 q 886 239 917 233 q 826 256 854 245 q 776 281 798 267 q 742 313 753 296 q 643 259 693 275 q 547 243 593 243 q 462 265 502 243 q 393 323 422 287 q 347 408 363 360 q 330 506 330 455 q 352 644 330 585 q 413 741 374 702 q 507 798 452 779 q 627 817 562 817 q 688 813 656 817 q 754 802 720 810 q 824 783 789 794 q 892 758 859 772 l 892 406 q 913 373 892 385 q 962 361 933 361 q 991 372 976 361 q 1020 405 1007 382 q 1041 464 1033 428 q 1049 551 1049 500 q 1015 691 1049 625 q 921 806 981 757 q 782 883 862 854 q 611 911 702 911 q 510 897 559 911 q 418 857 461 883 q 341 794 376 831 q 281 714 306 758 q 242 619 256 670 q 229 514 229 568 q 266 346 229 417 q 363 229 302 275 q 503 159 425 182 q 663 136 581 136 q 848 150 756 136 q 1022 191 940 163 l 1022 22 q 845 -15 935 -3 q 663 -27 754 -27 q 508 -12 584 -27 q 363 35 432 4 q 237 112 295 66 q 136 217 178 157 q 70 351 94 277 q 46 513 46 425 q 66 661 46 590 q 123 793 87 732 q 212 906 160 855 q 326 993 263 957 q 460 1049 389 1029 q 610 1069 532 1069 q 775 1050 696 1069 q 923 998 854 1031 q 1048 916 992 964 q 1145 811 1105 869 q 1207 687 1185 753 q 1230 550 1230 621 m 705 688 q 674 691 690 690 q 645 692 659 692 q 548 656 579 692 q 517 540 517 620 q 523 476 517 505 q 541 425 528 446 q 572 390 553 403 q 618 378 591 378 q 658 384 637 378 q 705 403 680 389 l 705 688 z "},"A":{"ha":1205,"x_min":39,"x_max":1166,"o":"m 781 0 l 744 175 l 460 175 l 425 0 l 39 0 l 39 342 l 122 359 l 322 1042 l 882 1042 l 1083 359 l 1166 342 l 1166 0 l 781 0 m 519 408 l 686 408 l 602 800 l 519 408 z "},"B":{"ha":1242,"x_min":54,"x_max":1211,"o":"m 930 1042 q 1089 957 1037 1016 q 1142 798 1142 898 q 1128 687 1142 732 q 1092 612 1114 642 q 1045 567 1070 583 q 998 543 1019 551 q 961 534 976 536 q 945 533 945 533 q 1001 527 971 532 q 1061 512 1031 522 q 1118 486 1091 502 q 1166 445 1145 469 q 1199 388 1187 421 q 1211 311 1211 355 q 1195 188 1211 245 q 1136 89 1178 131 q 1023 24 1095 47 q 841 0 951 0 l 54 0 l 54 294 l 140 311 l 140 755 l 54 772 l 54 1042 l 930 1042 m 777 708 q 765 761 777 743 q 734 789 753 780 q 689 799 714 798 q 638 800 664 800 l 574 800 l 574 606 l 638 606 q 689 607 664 606 q 734 618 714 609 q 765 649 753 628 q 777 708 777 669 m 777 370 q 765 422 777 404 q 734 450 753 441 q 689 460 714 458 q 638 461 664 461 l 574 461 l 574 267 l 638 267 q 689 268 664 267 q 734 279 714 270 q 765 310 753 289 q 777 370 777 331 z "},"C":{"ha":1109,"x_min":44,"x_max":1046,"o":"m 479 533 q 494 433 479 475 q 537 363 509 391 q 608 323 566 336 q 703 311 650 311 q 854 326 767 311 q 1046 374 941 342 l 1046 57 q 833 4 937 20 q 629 -12 730 -12 q 400 18 507 -12 q 214 117 293 49 q 90 289 135 185 q 44 533 44 393 q 86 769 44 670 q 204 932 127 868 q 387 1027 280 996 q 624 1057 494 1057 q 768 1049 704 1057 q 884 1029 832 1041 q 975 1001 935 1017 q 1046 972 1015 986 l 1046 660 l 842 660 q 765 732 807 709 q 677 755 722 755 q 604 740 640 755 q 541 696 568 725 q 496 627 513 668 q 479 533 479 586 z "},"D":{"ha":1329,"x_min":67,"x_max":1282,"o":"m 857 1042 q 1034 981 956 1021 q 1168 880 1113 941 q 1253 732 1223 818 q 1282 533 1282 646 q 1232 281 1282 383 q 1091 117 1182 179 q 871 27 1000 54 q 588 0 743 0 l 67 0 l 67 294 l 154 311 l 154 755 l 67 772 l 67 1042 l 857 1042 m 654 311 q 766 327 727 311 q 824 372 806 343 q 845 442 842 401 q 848 533 848 483 q 845 624 848 583 q 824 694 842 665 q 766 740 806 724 q 654 755 727 755 l 588 755 l 588 311 l 654 311 z "},"E":{"ha":1013,"x_min":69,"x_max":976,"o":"m 590 260 q 677 268 636 260 q 752 288 718 276 q 814 316 786 300 q 863 347 842 332 l 976 347 l 976 0 l 69 0 l 69 294 l 156 311 l 156 729 l 69 746 l 69 1042 l 976 1042 l 976 694 l 867 694 q 817 725 845 709 q 753 753 788 741 q 677 773 718 766 q 590 781 637 781 l 590 596 l 793 640 l 793 400 l 590 444 l 590 260 z "},"F":{"ha":932,"x_min":69,"x_max":908,"o":"m 590 596 l 774 640 l 774 400 l 590 444 l 590 311 l 677 292 l 677 0 l 69 0 l 69 294 l 156 311 l 156 729 l 69 746 l 69 1042 l 908 1042 l 908 694 l 794 694 q 757 725 778 709 q 711 753 736 741 q 655 773 686 766 q 590 781 625 781 l 590 596 z "},"G":{"ha":1112,"x_min":44,"x_max":1074,"o":"m 44 533 q 85 772 44 675 q 202 932 126 870 q 372 1025 275 992 q 597 1057 470 1057 q 752 1050 684 1057 q 873 1030 820 1042 q 968 1002 926 1018 q 1046 970 1010 987 l 1046 660 l 842 660 q 765 732 807 709 q 677 755 722 755 q 604 740 640 755 q 541 696 568 725 q 496 627 513 668 q 479 533 479 586 q 532 361 479 416 q 684 307 585 307 q 733 310 708 307 q 783 318 758 313 l 783 400 l 652 400 l 652 586 l 1074 586 l 1074 91 q 961 48 1021 68 q 841 14 901 28 q 723 -6 781 -1 q 616 -12 665 -12 q 463 -1 536 -12 q 327 41 390 11 q 211 116 263 71 q 122 222 159 161 q 64 361 85 283 q 44 533 44 439 z "},"H":{"ha":1527,"x_min":69,"x_max":1458,"o":"m 69 1042 l 677 1042 l 677 746 l 590 729 l 590 601 l 937 601 l 937 729 l 850 746 l 850 1042 l 1458 1042 l 1458 746 l 1371 729 l 1371 311 l 1458 294 l 1458 0 l 850 0 l 850 294 l 937 311 l 937 448 l 590 448 l 590 311 l 677 294 l 677 0 l 69 0 l 69 294 l 156 311 l 156 729 l 69 746 l 69 1042 z "},"I":{"ha":746,"x_min":69,"x_max":677,"o":"m 69 1042 l 677 1042 l 677 747 l 590 730 l 590 311 l 677 294 l 677 0 l 69 0 l 69 294 l 156 311 l 156 730 l 69 747 l 69 1042 z "},"J":{"ha":1019,"x_min":21,"x_max":975,"o":"m 888 434 q 854 231 888 316 q 756 90 819 146 q 605 11 693 35 q 409 -12 517 -12 q 245 -2 315 -12 q 124 24 175 8 q 21 67 66 42 l 21 382 l 225 382 q 286 310 251 333 q 355 287 321 287 q 392 296 374 287 q 424 325 410 306 q 446 371 437 343 q 454 434 454 398 l 454 730 l 368 747 l 368 1042 l 975 1042 l 975 747 l 888 730 l 888 434 z "},"K":{"ha":1340,"x_min":69,"x_max":1320,"o":"m 1320 875 q 1256 824 1287 851 q 1196 768 1225 797 q 1142 711 1168 740 q 1096 656 1117 683 q 1047 595 1070 625 q 1003 533 1024 564 q 1060 457 1031 494 q 1116 383 1088 420 q 1166 320 1140 353 q 1219 258 1192 288 q 1271 200 1245 227 q 1318 154 1296 174 l 1319 0 l 782 0 l 590 435 l 590 0 l 69 0 l 69 294 l 156 311 l 156 730 l 69 747 l 69 1042 l 590 1042 l 590 624 l 782 1042 l 1319 1042 l 1320 875 z "},"L":{"ha":920,"x_min":69,"x_max":897,"o":"m 590 260 q 651 268 623 260 q 704 288 680 276 q 748 316 728 300 q 783 347 768 332 l 897 347 l 897 0 l 69 0 l 69 294 l 156 311 l 156 730 l 69 747 l 69 1042 l 677 1042 l 677 747 l 590 730 l 590 260 z "},"M":{"ha":1614,"x_min":69,"x_max":1545,"o":"m 589 508 l 589 0 l 69 0 l 69 294 l 156 311 l 156 730 l 69 747 l 69 1042 l 589 1042 l 808 642 l 1024 1042 l 1545 1042 l 1545 747 l 1458 730 l 1458 311 l 1545 294 l 1545 0 l 1024 0 l 1024 508 l 808 134 l 589 508 z "},"N":{"ha":1354,"x_min":69,"x_max":1284,"o":"m 416 508 l 416 311 l 503 295 l 503 0 l 69 0 l 69 294 l 156 311 l 156 730 l 69 747 l 69 1042 l 590 1042 l 937 508 l 937 729 l 850 747 l 850 1042 l 1284 1042 l 1284 747 l 1198 730 l 1198 311 l 1284 294 l 1284 0 l 763 0 l 416 508 z "},"O":{"ha":1302,"x_min":43,"x_max":1259,"o":"m 650 -12 q 491 -2 568 -12 q 346 36 414 8 q 223 107 279 64 q 127 213 168 151 q 65 354 87 274 q 43 533 43 433 q 65 702 43 627 q 126 836 87 777 q 221 936 165 894 q 343 1005 276 978 q 489 1044 411 1031 q 650 1057 566 1057 q 812 1044 734 1057 q 958 1004 890 1031 q 1081 935 1026 977 q 1176 835 1137 893 q 1237 702 1215 777 q 1259 533 1259 627 q 1211 282 1259 387 q 1080 111 1163 177 q 887 16 998 44 q 650 -12 777 -12 m 650 747 q 577 736 607 747 q 529 707 548 725 q 499 665 509 688 q 484 618 489 642 q 478 572 479 595 q 477 533 477 550 q 478 494 477 516 q 484 447 479 471 q 499 399 489 423 q 529 357 509 376 q 577 327 548 338 q 650 315 607 315 q 723 327 694 315 q 772 357 753 338 q 803 399 792 376 q 818 447 813 423 q 824 494 823 471 q 825 533 825 516 q 824 572 825 550 q 818 618 823 595 q 803 665 813 642 q 772 707 792 688 q 723 736 753 725 q 650 747 694 747 z "},"P":{"ha":1217,"x_min":69,"x_max":1198,"o":"m 69 1042 l 660 1042 q 860 1031 775 1042 q 1004 1001 945 1021 q 1102 953 1064 981 q 1161 889 1139 924 q 1190 812 1182 854 q 1198 722 1198 770 q 1188 631 1198 673 q 1155 552 1179 588 q 1087 488 1131 517 q 977 440 1044 460 q 814 411 909 421 q 590 400 719 400 l 590 311 l 677 294 l 677 0 l 69 0 l 69 294 l 156 311 l 156 730 l 69 747 l 69 1042 m 590 587 q 662 591 629 587 q 716 608 694 595 q 751 646 739 621 q 764 714 764 671 q 751 780 764 755 q 716 818 739 805 q 662 835 694 831 q 590 839 629 839 l 590 587 z "},"Q":{"ha":1305,"x_min":45,"x_max":1260,"o":"m 609 -311 q 568 -260 589 -290 q 525 -194 547 -231 q 484 -109 504 -156 q 448 -5 464 -62 q 285 59 359 16 q 158 167 211 101 q 75 324 104 233 q 45 533 45 415 q 66 702 45 627 q 128 836 88 778 q 223 936 168 895 q 346 1005 279 978 q 491 1044 414 1031 q 652 1057 568 1057 q 812 1044 735 1057 q 957 1005 890 1031 q 1081 936 1025 978 q 1176 836 1137 894 q 1238 702 1216 777 q 1260 533 1260 627 q 1233 334 1260 421 q 1158 181 1206 246 q 1041 73 1109 116 q 892 5 973 29 q 957 -74 924 -36 q 1013 -141 989 -113 l 1013 -311 l 609 -311 m 652 747 q 579 736 608 747 q 530 707 549 725 q 500 665 511 688 q 485 618 490 642 q 479 572 480 595 q 479 533 479 550 q 479 494 479 516 q 485 447 480 471 q 500 399 490 423 q 530 357 511 376 q 579 327 549 338 q 652 315 608 315 q 725 327 695 315 q 774 357 754 338 q 804 399 793 376 q 819 447 814 423 q 825 494 824 471 q 826 533 826 516 q 825 572 826 550 q 819 618 824 595 q 804 665 814 642 q 774 707 793 688 q 725 736 754 725 q 652 747 695 747 z "},"R":{"ha":1248,"x_min":69,"x_max":1197,"o":"m 1197 0 l 766 0 q 724 82 745 39 q 682 172 702 125 q 644 269 661 219 q 614 372 626 319 l 590 372 l 590 0 l 69 0 l 69 294 l 156 311 l 156 730 l 69 747 l 69 1042 l 660 1042 q 863 1031 777 1042 q 1008 1000 948 1020 q 1104 951 1067 980 q 1162 886 1141 922 q 1190 807 1183 850 q 1197 715 1197 764 q 1188 627 1197 667 q 1156 554 1179 587 q 1093 493 1133 521 q 991 441 1053 466 q 1029 378 1004 414 q 1085 304 1055 342 q 1145 231 1115 267 q 1197 170 1175 195 l 1197 0 m 590 572 q 662 576 629 572 q 716 591 694 579 q 751 627 739 604 q 764 691 764 651 q 751 754 764 730 q 716 790 739 777 q 662 807 694 803 q 590 811 629 811 l 590 572 z "},"S":{"ha":1014,"x_min":57,"x_max":962,"o":"m 962 327 q 942 208 961 260 q 890 118 924 156 q 812 55 857 81 q 716 13 768 28 q 608 -8 665 -3 q 494 -12 551 -12 q 313 -4 391 -12 q 180 26 269 1 q 66 67 107 45 l 66 335 l 270 335 q 350 263 305 286 q 441 240 394 240 q 468 242 453 240 q 496 254 483 244 q 518 283 509 263 q 528 340 528 304 q 412 356 469 346 q 302 384 355 366 q 205 428 250 401 q 127 493 160 455 q 76 582 94 531 q 57 701 57 633 q 76 827 57 772 q 128 921 95 882 q 205 987 161 961 q 301 1029 250 1013 q 407 1048 352 1044 q 517 1053 463 1053 q 662 1047 597 1053 q 777 1029 726 1041 q 868 1001 829 1017 q 939 972 908 986 l 939 707 l 735 707 q 658 779 701 756 q 571 802 616 802 q 543 799 559 802 q 514 785 528 796 q 491 752 500 774 q 481 694 481 731 q 690 669 600 690 q 841 603 781 647 q 931 491 901 559 q 962 327 962 423 z "},"T":{"ha":1004,"x_min":24,"x_max":979,"o":"m 979 1042 l 979 694 l 865 694 q 839 725 854 709 q 806 753 824 741 q 766 773 787 766 q 719 781 744 781 l 719 311 l 806 294 l 806 0 l 198 0 l 198 294 l 285 311 l 285 781 q 238 773 260 781 q 198 753 216 766 q 165 725 180 741 q 138 694 150 709 l 24 694 l 24 1042 l 979 1042 z "},"U":{"ha":1322,"x_min":41,"x_max":1279,"o":"m 1192 730 q 1192 688 1192 709 q 1192 648 1192 667 l 1192 533 q 1153 285 1192 389 q 1046 114 1114 181 q 888 17 979 46 q 696 -12 798 -12 q 544 -2 617 -12 q 408 38 471 9 q 294 111 345 66 q 205 217 242 155 q 148 357 168 278 q 128 533 128 435 l 128 730 l 41 747 l 41 1042 l 605 1042 l 605 747 l 518 730 l 518 643 q 518 609 518 626 q 518 576 518 591 q 519 550 519 562 q 519 533 519 538 q 519 494 519 516 q 525 447 520 471 q 541 399 530 423 q 570 357 551 376 q 619 327 589 338 q 692 315 648 315 q 765 327 735 315 q 814 357 794 338 q 844 399 833 376 q 859 447 854 423 q 865 494 864 471 q 866 533 866 516 q 866 550 866 538 q 866 576 866 562 q 865 609 865 591 q 865 643 865 626 l 865 730 l 779 747 l 779 1042 l 1279 1042 l 1279 747 l 1192 730 z "},"V":{"ha":1263,"x_min":10,"x_max":1253,"o":"m 391 -1 l 113 731 l 10 747 l 10 1042 l 644 1042 l 644 747 l 569 731 l 686 345 l 804 731 l 729 747 l 729 1042 l 1253 1042 l 1253 747 l 1151 731 l 873 -1 l 391 -1 z "},"W":{"ha":2009,"x_min":11,"x_max":1998,"o":"m 391 -1 l 114 731 l 11 747 l 11 1042 l 669 1042 l 669 747 l 595 731 l 712 345 l 829 731 l 755 747 l 755 1042 l 1413 1042 l 1413 747 l 1339 731 l 1456 345 l 1573 731 l 1499 747 l 1499 1042 l 1998 1042 l 1998 747 l 1895 731 l 1618 -1 l 1135 -1 l 1004 398 l 874 -1 l 391 -1 z "},"X":{"ha":1363,"x_min":29,"x_max":1341,"o":"m 1238 311 l 1341 294 l 1341 0 l 653 0 l 653 294 l 728 311 l 570 431 l 439 311 l 568 294 l 568 0 l 43 0 l 43 294 l 146 311 l 396 534 l 153 731 l 29 747 l 29 1042 l 692 1042 l 692 747 l 618 731 l 793 604 l 911 731 l 784 747 l 784 1042 l 1306 1042 l 1306 747 l 1183 731 l 981 521 l 1238 311 z "},"Y":{"ha":1318,"x_min":10,"x_max":1308,"o":"m 331 0 l 331 293 l 418 315 l 120 731 l 10 747 l 10 1042 l 589 1042 l 589 747 l 522 731 l 659 518 l 797 731 l 729 747 l 729 1042 l 1308 1042 l 1308 747 l 1198 731 l 901 315 l 987 293 l 987 0 l 331 0 z "},"Z":{"ha":911,"x_min":18,"x_max":865,"o":"m 18 0 l 18 260 l 401 781 q 328 773 362 781 q 266 753 294 766 q 213 725 237 741 q 172 694 189 709 l 58 694 l 58 1042 l 865 1042 l 865 761 l 523 273 q 556 271 540 271 q 617 277 588 271 q 670 295 646 284 q 715 320 694 307 q 751 347 735 334 l 865 347 l 865 0 l 18 0 z "},"[":{"ha":842,"x_min":94,"x_max":789,"o":"m 94 1042 l 789 1042 l 789 781 q 736 797 765 789 q 675 811 708 805 q 605 822 642 818 q 528 827 568 827 l 528 214 q 675 229 609 214 q 789 260 741 244 l 789 0 l 94 0 l 94 1042 z "},"\\":{"ha":768,"x_min":36,"x_max":730,"o":"m 730 0 l 296 0 l 36 1042 l 470 1042 l 730 0 z "},"]":{"ha":842,"x_min":53,"x_max":748,"o":"m 748 0 l 53 0 l 53 260 q 167 229 102 244 q 314 214 233 214 l 314 827 q 167 812 233 827 q 53 781 102 797 l 53 1042 l 748 1042 l 748 0 z "},"^":{"ha":1027,"x_min":36,"x_max":991,"o":"m 36 136 l 313 868 l 713 868 l 991 136 l 644 136 l 513 570 l 383 136 l 36 136 z "},"_":{"ha":585,"x_min":56,"x_max":530,"o":"m 530 152 l 530 -22 l 56 -22 l 56 152 l 530 152 z "},"`":{"ha":610,"x_min":21,"x_max":583,"o":"m 21 1563 l 353 1563 l 583 1128 l 295 1128 l 21 1563 z "},"a":{"ha":1131,"x_min":35,"x_max":1095,"o":"m 732 0 l 699 161 l 432 161 l 398 0 l 35 0 l 35 315 l 114 330 l 302 955 l 828 955 l 1017 330 l 1095 315 l 1095 0 l 732 0 m 473 375 l 657 375 l 565 750 l 473 375 z "},"b":{"ha":1181,"x_min":64,"x_max":1152,"o":"m 887 955 q 1037 878 987 931 q 1087 734 1087 825 q 1074 631 1087 673 q 1039 562 1060 589 q 995 520 1019 535 q 950 499 970 506 q 915 491 929 492 q 901 490 901 490 q 954 485 926 489 q 1010 471 983 480 q 1064 447 1038 462 q 1109 410 1090 433 q 1140 357 1128 388 q 1152 286 1152 327 q 1137 173 1152 225 q 1081 82 1121 120 q 975 22 1042 43 q 804 0 907 0 l 64 0 l 64 271 l 145 286 l 145 695 l 64 711 l 64 955 l 887 955 m 744 658 q 733 711 744 692 q 703 739 722 730 q 661 749 684 747 q 613 750 637 750 l 553 750 l 553 557 l 613 557 q 661 559 637 557 q 703 570 684 561 q 733 600 722 579 q 744 658 744 620 m 744 333 q 733 386 744 368 q 703 413 722 404 q 661 423 684 422 q 613 425 637 425 l 553 425 l 553 232 l 613 232 q 661 234 637 232 q 703 245 684 235 q 733 275 722 254 q 744 333 744 295 z "},"c":{"ha":1042,"x_min":41,"x_max":983,"o":"m 450 490 q 505 333 450 382 q 661 284 560 284 q 801 299 721 284 q 983 345 882 314 l 983 50 q 591 -12 779 -12 q 374 15 475 -12 q 200 106 274 43 q 84 265 126 169 q 41 490 41 361 q 80 711 41 618 q 191 864 119 804 q 363 952 262 924 q 587 981 463 981 q 723 973 662 981 q 832 954 783 966 q 917 929 880 943 q 983 902 954 915 l 983 607 l 791 607 q 719 673 758 652 q 637 694 680 694 q 568 681 602 694 q 508 641 534 667 q 466 577 482 615 q 450 490 450 539 z "},"d":{"ha":1249,"x_min":64,"x_max":1206,"o":"m 806 955 q 972 899 899 935 q 1098 807 1046 863 q 1178 673 1150 751 q 1206 490 1206 595 q 1184 327 1206 399 q 1123 200 1163 254 q 1026 107 1084 145 q 896 45 968 69 q 738 11 824 22 q 553 0 651 0 l 64 0 l 64 271 l 145 286 l 145 695 l 64 711 l 64 955 l 806 955 m 616 286 q 692 293 661 286 q 744 312 724 300 q 775 342 764 324 q 791 383 786 361 q 797 433 796 406 q 798 490 798 460 q 797 548 798 521 q 791 598 796 575 q 775 638 786 621 q 744 669 764 656 q 692 688 724 682 q 616 695 661 695 l 553 695 l 553 286 l 616 286 z "},"e":{"ha":946,"x_min":65,"x_max":903,"o":"m 555 535 l 743 575 l 743 382 l 555 422 l 555 273 q 633 278 595 273 q 704 294 671 284 q 764 318 736 304 q 810 347 791 332 l 903 347 l 903 0 l 65 0 l 65 271 l 146 286 l 146 671 l 65 686 l 65 955 l 903 955 l 903 608 l 810 608 q 764 636 791 623 q 704 660 736 650 q 633 676 671 670 q 555 682 595 682 l 555 535 z "},"f":{"ha":882,"x_min":65,"x_max":854,"o":"m 555 515 l 728 555 l 728 348 l 555 389 l 555 286 l 636 269 l 636 0 l 65 0 l 65 271 l 146 286 l 146 671 l 65 686 l 65 955 l 854 955 l 854 608 l 741 608 q 664 660 711 638 q 555 682 616 682 l 555 515 z "},"g":{"ha":1044,"x_min":41,"x_max":1010,"o":"m 41 490 q 80 710 41 618 q 190 863 119 803 q 362 952 261 923 q 587 981 463 981 q 723 973 662 981 q 832 954 783 966 q 917 929 880 943 q 983 902 954 915 l 983 607 l 791 607 q 760 646 775 629 q 727 673 745 663 q 688 689 709 684 q 637 694 666 694 q 568 684 602 694 q 508 649 534 673 q 466 586 482 625 q 450 490 450 547 q 463 381 450 424 q 500 314 476 339 q 561 280 525 290 q 642 271 596 271 q 693 274 667 271 q 749 287 719 277 l 749 364 l 613 364 l 613 531 l 1010 531 l 1010 81 q 903 41 960 60 q 790 9 847 23 q 680 -8 734 -4 q 579 -12 625 -12 q 368 15 466 -12 q 197 105 269 42 q 83 264 124 168 q 41 490 41 360 z "},"h":{"ha":1436,"x_min":65,"x_max":1371,"o":"m 65 955 l 636 955 l 636 686 l 555 671 l 555 559 l 881 559 l 881 671 l 800 686 l 800 958 l 1371 958 l 1371 686 l 1289 671 l 1289 286 l 1371 271 l 1371 0 l 800 0 l 800 271 l 881 286 l 881 399 l 555 399 l 555 286 l 636 271 l 636 0 l 65 0 l 65 271 l 146 286 l 146 671 l 65 686 l 65 955 z "},"i":{"ha":703,"x_min":66,"x_max":637,"o":"m 66 955 l 637 955 l 637 688 l 555 672 l 555 286 l 637 271 l 637 0 l 66 0 l 66 271 l 147 286 l 147 672 l 66 688 l 66 955 z "},"j":{"ha":958,"x_min":20,"x_max":918,"o":"m 836 399 q 804 212 836 291 q 713 81 772 133 q 571 9 654 30 q 385 -12 488 -12 q 258 -8 314 -12 q 157 7 201 -5 q 79 32 113 18 q 20 59 45 46 l 20 351 l 212 351 q 269 285 237 307 q 334 264 302 264 q 368 273 351 264 q 398 299 385 281 q 420 341 412 316 q 428 399 428 366 l 428 672 l 346 688 l 346 955 l 918 955 l 918 688 l 836 672 l 836 399 z "},"k":{"ha":1199,"x_min":66,"x_max":1194,"o":"m 1194 0 l 736 0 l 555 400 l 555 0 l 66 0 l 66 271 l 147 286 l 147 672 l 66 688 l 66 955 l 555 955 l 555 574 l 736 955 l 1175 955 l 1175 783 q 1101 711 1135 749 q 1037 636 1067 674 q 982 562 1007 598 q 937 492 957 525 q 993 404 963 450 q 1055 312 1023 358 q 1122 221 1087 266 q 1194 138 1157 177 l 1194 0 z "},"l":{"ha":867,"x_min":66,"x_max":842,"o":"m 555 260 q 609 268 583 260 q 657 289 635 276 q 697 316 679 301 q 728 347 715 332 l 842 347 l 842 0 l 66 0 l 66 271 l 147 286 l 147 672 l 66 688 l 66 955 l 637 955 l 637 688 l 555 672 l 555 260 z "},"m":{"ha":1518,"x_min":66,"x_max":1453,"o":"m 555 467 l 555 0 l 66 0 l 66 271 l 147 286 l 147 672 l 66 688 l 66 955 l 555 955 l 760 590 l 964 955 l 1453 955 l 1453 688 l 1371 672 l 1371 286 l 1453 271 l 1453 0 l 964 0 l 964 467 l 760 123 l 555 467 z "},"n":{"ha":1274,"x_min":66,"x_max":1208,"o":"m 392 501 l 392 286 l 474 271 l 474 0 l 66 0 l 66 271 l 147 286 l 147 672 l 66 688 l 66 955 l 555 955 l 882 440 l 882 671 l 800 688 l 800 955 l 1208 955 l 1208 688 l 1126 672 l 1126 286 l 1208 271 l 1208 0 l 718 0 l 392 501 z "},"o":{"ha":1223,"x_min":41,"x_max":1183,"o":"m 611 -12 q 388 13 492 -12 q 207 101 283 39 q 85 259 130 163 q 41 490 41 355 q 85 716 41 623 q 207 868 130 809 q 388 954 284 926 q 611 981 492 981 q 834 954 730 981 q 1016 868 938 926 q 1138 716 1093 809 q 1183 490 1183 623 q 1162 328 1183 401 q 1105 198 1142 255 q 1016 101 1068 142 q 901 33 964 60 q 764 -3 837 6 q 611 -12 690 -12 m 611 692 q 544 682 571 692 q 498 655 516 671 q 470 618 480 639 q 455 575 460 597 q 450 531 451 553 q 449 494 449 510 q 450 457 449 478 q 454 412 450 435 q 468 366 458 389 q 495 324 477 342 q 542 295 513 306 q 611 283 570 283 q 680 294 652 283 q 726 323 708 305 q 754 363 744 341 q 769 409 764 386 q 774 453 773 431 q 775 490 775 475 q 774 528 775 507 q 769 572 773 549 q 754 615 764 594 q 726 654 744 637 q 680 681 708 671 q 611 692 652 692 z "},"p":{"ha":1146,"x_min":66,"x_max":1126,"o":"m 66 955 l 621 955 q 809 945 730 955 q 945 918 889 936 q 1037 875 1001 901 q 1092 817 1072 849 q 1119 746 1112 785 q 1126 665 1126 708 q 1118 581 1126 620 q 1086 508 1109 541 q 1023 449 1063 475 q 919 405 983 423 q 766 378 856 387 q 555 368 677 368 l 555 286 l 637 271 l 637 0 l 66 0 l 66 271 l 147 286 l 147 672 l 66 688 l 66 955 m 555 540 q 623 544 593 540 q 674 562 653 548 q 707 601 696 575 q 719 671 719 627 q 707 735 719 711 q 674 772 696 759 q 623 788 653 785 q 555 792 593 792 l 555 540 z "},"q":{"ha":1226,"x_min":42,"x_max":1184,"o":"m 634 -276 q 578 -227 608 -254 q 521 -165 549 -199 q 469 -92 493 -132 q 428 -6 444 -52 q 272 52 343 13 q 150 151 201 90 q 71 296 99 212 q 42 490 42 380 q 86 716 42 623 q 208 868 131 809 q 389 954 286 926 q 612 981 493 981 q 835 954 731 981 q 1017 868 939 926 q 1139 716 1095 809 q 1184 490 1184 623 q 1159 309 1184 389 q 1090 170 1135 229 q 984 70 1046 111 q 847 7 922 30 q 905 -62 876 -28 q 955 -119 934 -96 l 955 -276 l 634 -276 m 612 692 l 606 692 q 541 682 567 692 q 497 654 515 671 q 471 616 480 637 q 457 573 461 595 q 451 530 452 551 q 450 494 450 509 q 451 457 450 478 q 456 412 452 435 q 469 366 460 389 q 497 324 479 342 q 543 295 515 306 q 612 283 571 283 q 681 294 653 283 q 727 323 709 305 q 755 363 745 341 q 770 409 766 386 q 775 453 774 431 q 777 490 777 475 q 776 527 777 506 q 770 570 775 548 q 756 614 766 593 q 729 653 747 636 q 685 681 712 671 q 619 692 658 692 l 612 692 z "},"r":{"ha":1175,"x_min":66,"x_max":1126,"o":"m 1126 0 l 720 0 q 681 75 701 35 q 642 158 661 115 q 606 248 623 201 q 578 342 589 294 l 555 342 l 555 0 l 66 0 l 66 271 l 147 286 l 147 672 l 66 688 l 66 955 l 621 955 q 812 945 732 955 q 948 918 892 936 q 1039 873 1004 899 q 1093 814 1074 847 q 1119 742 1112 781 q 1126 659 1126 703 q 1117 577 1126 614 q 1087 510 1109 541 q 1028 454 1065 479 q 932 406 990 429 q 968 348 944 382 q 1021 280 992 315 q 1077 212 1049 245 q 1126 157 1105 180 l 1126 0 m 555 526 q 623 530 593 526 q 674 546 653 534 q 707 583 696 559 q 719 649 719 608 q 707 714 719 690 q 674 752 696 739 q 623 769 653 765 q 555 773 593 773 l 555 526 z "},"s":{"ha":941,"x_min":46,"x_max":897,"o":"m 897 300 q 879 189 897 237 q 830 105 861 140 q 756 45 799 69 q 665 7 714 22 q 563 -10 616 -7 q 457 -12 510 -12 q 325 -9 384 -12 q 219 6 266 -5 q 137 32 173 18 q 75 59 102 45 l 75 294 l 267 294 q 332 229 295 250 q 407 208 368 208 q 433 210 418 208 q 459 222 447 212 q 480 256 471 233 q 488 320 488 279 q 379 334 433 325 q 276 359 326 343 q 185 398 227 374 q 112 457 143 422 q 64 537 81 491 q 46 644 46 584 q 64 765 46 713 q 112 854 81 817 q 184 916 142 892 q 274 955 226 941 q 374 975 322 969 q 479 981 427 981 q 611 973 553 981 q 716 954 670 966 q 799 929 763 943 q 862 902 834 915 l 862 665 l 656 665 q 597 736 631 713 q 530 758 564 758 q 503 754 518 758 q 475 738 488 751 q 454 700 463 725 q 445 632 445 675 q 641 608 557 628 q 783 550 726 589 q 868 449 840 511 q 897 300 897 388 z "},"t":{"ha":979,"x_min":27,"x_max":952,"o":"m 286 703 q 223 693 250 703 q 178 669 196 684 q 150 638 159 655 q 140 608 140 622 l 27 608 l 27 955 l 952 955 l 952 608 l 839 608 q 829 638 839 622 q 802 669 820 655 q 756 693 783 684 q 694 703 729 703 l 694 286 l 775 271 l 775 0 l 204 0 l 204 271 l 286 286 l 286 703 z "},"u":{"ha":1241,"x_min":37,"x_max":1201,"o":"m 1119 672 q 1118 632 1118 652 q 1118 595 1118 613 l 1118 490 q 1081 258 1118 355 q 980 100 1044 161 q 830 13 916 38 q 648 -12 745 -12 q 440 13 537 -12 q 272 100 344 38 q 160 258 201 162 q 119 490 119 355 l 119 672 l 37 688 l 37 955 l 567 955 l 567 688 l 486 672 l 486 591 q 486 558 486 575 q 486 528 486 542 q 486 503 486 513 q 486 489 486 492 q 487 453 486 473 q 492 410 488 432 q 507 367 497 388 q 535 328 517 345 q 580 301 553 311 q 648 290 608 290 q 717 301 689 290 q 763 329 745 311 q 791 368 781 346 q 806 411 802 389 q 811 454 810 433 q 812 490 812 475 q 812 506 812 495 q 812 530 812 516 q 812 560 812 544 q 812 591 812 576 l 812 672 l 730 688 l 730 955 l 1201 955 l 1201 688 l 1119 672 z "},"v":{"ha":1192,"x_min":12,"x_max":1180,"o":"m 362 -1 l 109 673 l 12 688 l 12 955 l 607 955 l 607 688 l 537 673 l 647 304 l 758 673 l 687 688 l 687 955 l 1180 955 l 1180 688 l 1084 673 l 830 -1 l 362 -1 z "},"w":{"ha":1891,"x_min":12,"x_max":1879,"o":"m 369 -1 l 109 673 l 12 688 l 12 955 l 631 955 l 631 688 l 560 673 l 671 317 l 781 673 l 711 688 l 711 955 l 1330 955 l 1330 688 l 1260 673 l 1370 317 l 1480 673 l 1410 688 l 1410 958 l 1879 958 l 1879 688 l 1783 673 l 1522 -1 l 1069 -1 l 945 366 l 823 -1 l 369 -1 z "},"x":{"ha":1284,"x_min":29,"x_max":1262,"o":"m 1165 286 l 1262 271 l 1262 0 l 616 0 l 616 271 l 686 286 l 537 397 l 414 286 l 535 271 l 535 0 l 43 0 l 43 271 l 139 286 l 374 492 l 145 673 l 29 688 l 29 955 l 656 955 l 656 688 l 587 673 l 747 555 l 858 673 l 736 688 l 736 955 l 1230 955 l 1230 688 l 1114 673 l 924 479 l 1165 286 z "},"y":{"ha":1241,"x_min":11,"x_max":1230,"o":"m 313 0 l 313 269 l 394 290 l 114 673 l 11 688 l 11 955 l 555 955 l 555 688 l 492 673 l 621 477 l 750 673 l 686 688 l 686 955 l 1230 955 l 1230 688 l 1128 673 l 848 290 l 930 269 l 930 0 l 313 0 z "},"z":{"ha":842,"x_min":20,"x_max":795,"o":"m 20 0 l 20 239 l 371 715 q 304 708 335 715 q 246 690 273 701 q 198 664 220 678 q 161 636 177 650 l 56 636 l 56 955 l 795 955 l 795 697 l 483 250 q 513 248 498 248 q 568 254 542 248 q 617 271 595 260 q 658 293 640 281 q 691 318 677 306 l 795 318 l 795 0 l 20 0 z "},"{":{"ha":664,"x_min":8,"x_max":622,"o":"m 8 694 q 86 708 54 694 q 138 744 117 721 q 173 797 159 766 q 195 861 186 827 q 212 930 204 895 q 230 1000 220 966 q 257 1064 241 1034 q 298 1117 273 1095 q 360 1153 323 1140 q 450 1166 397 1166 q 532 1163 490 1166 q 622 1153 575 1160 l 622 914 q 547 901 575 914 q 502 866 518 888 q 479 816 486 844 q 469 758 473 788 q 462 697 465 727 q 450 641 459 667 q 423 596 441 615 q 372 569 405 577 q 423 542 405 561 q 450 497 441 523 q 463 441 459 471 q 469 380 466 411 q 479 322 473 350 q 502 272 486 294 q 547 237 518 250 q 622 224 575 224 l 622 -14 q 532 -25 575 -22 q 450 -28 490 -28 q 342 -7 384 -28 q 275 46 300 13 q 236 122 250 79 q 212 208 222 164 q 190 295 201 252 q 157 370 178 337 q 101 424 136 404 q 8 444 66 444 l 8 694 z "},"|":{"ha":530,"x_min":91,"x_max":439,"o":"m 91 1128 l 439 1128 l 439 -87 l 91 -87 l 91 1128 z "},"}":{"ha":664,"x_min":42,"x_max":656,"o":"m 656 444 q 563 424 598 444 q 507 370 528 404 q 474 295 486 337 q 452 208 463 252 q 428 122 441 164 q 389 46 414 79 q 322 -7 363 13 q 214 -28 280 -28 q 132 -25 174 -28 q 42 -14 89 -22 l 42 224 q 117 237 89 224 q 162 272 146 250 q 184 322 178 294 q 195 380 191 350 q 201 441 198 411 q 214 497 205 471 q 241 542 223 523 q 292 569 259 561 q 241 596 259 577 q 214 641 223 615 q 202 697 205 667 q 195 758 199 727 q 184 816 191 788 q 162 866 178 844 q 117 901 146 888 q 42 914 89 914 l 42 1153 q 132 1163 89 1160 q 214 1166 174 1166 q 304 1153 267 1166 q 366 1117 341 1140 q 407 1064 391 1095 q 434 1000 423 1034 q 452 930 444 966 q 469 861 460 895 q 491 797 478 827 q 526 744 505 766 q 578 708 547 721 q 656 694 610 694 l 656 444 z "},"~":{"ha":714,"x_min":56,"x_max":663,"o":"m 623 503 q 572 460 601 473 q 513 448 544 448 q 449 458 482 448 q 382 481 416 469 q 314 503 348 493 q 248 513 280 513 q 153 498 201 513 q 56 442 106 482 l 98 731 q 152 771 123 760 q 213 782 180 782 q 276 770 243 782 q 342 743 309 758 q 408 716 375 728 q 474 704 441 704 q 567 722 520 704 q 663 786 613 740 l 623 503 z "},"¡":{"ha":649,"x_min":64,"x_max":585,"o":"m 108 1042 l 542 1042 l 542 781 l 108 781 l 108 1042 m 151 694 l 498 694 l 585 271 l 585 0 l 108 0 l 64 271 l 151 694 z "},"¢":{"ha":1046,"x_min":37,"x_max":978,"o":"m 454 -14 q 286 40 362 1 q 154 141 210 79 q 67 291 98 204 q 37 490 37 378 q 66 686 37 602 q 149 830 95 770 q 280 925 203 890 q 454 975 357 961 l 454 1128 l 715 1128 l 715 975 q 805 961 765 969 q 878 943 846 953 q 935 924 910 934 q 978 905 960 914 l 978 607 l 786 607 q 714 673 753 652 q 632 694 675 694 q 563 681 597 694 q 504 641 530 667 q 461 577 477 615 q 446 490 446 539 q 500 333 446 382 q 656 284 555 284 q 798 299 716 284 q 978 345 880 314 l 978 44 q 715 -17 844 -1 l 715 -175 l 454 -175 l 454 -14 z "},"£":{"ha":1002,"x_min":66,"x_max":934,"o":"m 66 564 l 165 564 q 71 789 71 684 q 102 901 71 850 q 199 989 134 952 q 360 1048 263 1027 q 587 1069 457 1069 q 707 1061 653 1069 q 803 1040 760 1053 q 878 1013 845 1027 q 934 983 910 998 l 934 660 l 730 660 q 711 704 724 686 q 682 733 699 722 q 644 750 665 745 q 603 755 624 755 q 566 747 585 755 q 534 728 548 740 q 511 699 519 715 q 502 665 502 683 q 512 615 502 641 q 541 564 522 590 l 760 564 l 760 411 l 539 411 l 498 233 q 598 241 550 233 q 687 261 646 249 q 762 289 728 273 q 821 320 796 304 l 934 320 l 934 0 l 66 0 l 66 294 q 80 315 71 302 q 103 343 90 328 q 131 376 116 359 q 160 411 145 393 l 66 411 l 66 564 z "},"¤":{"ha":904,"x_min":53,"x_max":850,"o":"m 800 651 q 788 551 800 596 q 755 469 777 507 l 850 375 l 728 252 l 632 348 q 545 314 591 325 q 452 302 499 302 q 359 314 405 302 q 272 349 313 326 l 176 252 l 53 375 l 149 471 q 117 553 129 508 q 106 651 106 598 q 117 749 106 704 q 149 830 129 793 l 53 927 l 176 1050 l 273 951 q 359 985 314 974 q 452 996 405 996 q 544 985 498 996 q 630 952 589 974 l 728 1050 l 850 927 l 755 831 q 788 750 777 795 q 800 651 800 705 m 603 647 q 590 716 603 686 q 556 765 577 745 q 507 795 534 785 q 452 806 480 806 q 397 795 424 806 q 350 766 370 785 q 316 716 329 746 q 303 647 303 686 q 316 577 303 607 q 350 527 329 547 q 398 497 371 507 q 452 487 425 487 q 508 497 481 487 q 556 527 535 507 q 590 577 577 547 q 603 647 603 607 z "},"¥":{"ha":1376,"x_min":39,"x_max":1337,"o":"m 168 521 l 313 521 l 149 731 l 39 747 l 39 1042 l 618 1042 l 618 747 l 551 731 l 688 521 l 826 731 l 758 747 l 758 1042 l 1337 1042 l 1337 747 l 1227 731 l 1063 521 l 1209 521 l 1209 347 l 930 347 l 930 260 l 1209 260 l 1209 87 l 930 87 l 930 0 l 447 0 l 447 87 l 168 87 l 168 260 l 447 260 l 447 347 l 168 347 l 168 521 z "},"¦":{"ha":534,"x_min":93,"x_max":441,"o":"m 93 1128 l 441 1128 l 441 608 l 93 608 l 93 1128 m 93 477 l 441 477 l 441 -87 l 93 -87 l 93 477 z "},"§":{"ha":800,"x_min":58,"x_max":741,"o":"m 58 479 q 76 581 58 539 q 124 652 94 622 q 76 714 94 678 q 58 797 58 749 q 89 934 58 881 q 169 1017 119 987 q 280 1058 218 1047 q 406 1069 342 1069 q 515 1063 466 1069 q 603 1048 564 1057 q 671 1028 642 1039 q 724 1006 701 1017 l 724 813 l 570 813 q 513 870 545 852 q 446 888 481 888 q 425 885 437 888 q 403 872 413 882 q 386 842 393 862 q 378 787 378 821 q 536 770 468 783 q 650 730 604 757 q 718 663 695 704 q 741 562 741 621 q 723 460 741 502 q 675 388 705 418 q 723 327 705 362 q 741 244 741 292 q 727 146 741 188 q 689 74 713 104 q 631 24 664 43 q 559 -7 597 4 q 478 -23 520 -19 q 394 -28 436 -28 q 260 -18 318 -28 q 161 3 202 -8 q 116 18 137 10 q 76 35 95 26 l 76 228 l 229 228 q 287 171 255 189 q 353 153 319 153 q 375 156 363 153 q 397 169 387 159 q 414 199 407 179 q 421 254 421 220 q 263 271 332 257 q 150 311 195 284 q 81 379 104 338 q 58 479 58 420 m 363 583 q 337 569 349 578 q 316 549 325 560 q 303 527 308 538 q 298 504 298 515 q 325 471 298 482 q 401 452 352 460 l 437 448 q 468 461 455 452 q 489 481 481 470 q 502 504 498 492 q 506 526 506 515 q 481 560 506 548 q 410 578 456 572 l 363 583 z "},"¨":{"ha":922,"x_min":64,"x_max":857,"o":"m 569 1389 l 857 1389 l 857 1128 l 569 1128 l 569 1389 m 353 1389 l 353 1128 l 64 1128 l 64 1389 l 353 1389 z "},"©":{"ha":1179,"x_min":41,"x_max":1137,"o":"m 41 520 q 61 666 41 596 q 116 797 81 736 q 202 908 152 858 q 313 993 252 958 q 444 1048 374 1029 q 589 1068 513 1068 q 734 1048 665 1068 q 865 993 804 1029 q 977 908 926 958 q 1062 797 1027 858 q 1118 666 1098 736 q 1137 520 1137 596 q 1118 374 1137 444 q 1062 244 1098 304 q 977 133 1027 183 q 865 47 926 83 q 734 -8 804 12 q 589 -28 665 -28 q 444 -8 513 -28 q 313 47 374 12 q 202 133 252 83 q 116 244 152 183 q 61 374 81 304 q 41 520 41 444 m 140 520 q 156 401 140 458 q 201 293 172 343 q 272 202 231 243 q 362 132 313 161 q 470 87 412 103 q 589 71 527 71 q 709 87 651 71 q 816 132 766 103 q 907 202 866 161 q 977 293 948 243 q 1022 400 1006 343 q 1038 520 1038 458 q 1022 640 1038 582 q 977 747 1006 697 q 907 838 948 797 q 816 908 866 879 q 709 953 766 937 q 589 969 651 969 q 470 953 528 969 q 362 908 412 937 q 272 838 313 879 q 201 747 231 797 q 156 640 172 697 q 140 520 140 582 m 516 522 q 548 428 516 456 q 641 399 580 399 q 725 408 675 399 q 832 435 774 417 l 832 256 q 714 226 772 237 q 600 216 655 216 q 471 234 531 216 q 367 290 411 252 q 298 386 323 328 q 273 522 273 443 q 296 653 273 597 q 361 744 319 708 q 464 797 404 779 q 597 814 524 814 q 677 809 642 814 q 743 798 713 805 q 794 783 772 791 q 832 767 816 774 l 832 590 l 718 590 q 675 630 699 617 q 627 642 652 642 q 586 634 606 642 q 551 611 566 626 q 526 573 535 595 q 516 522 516 550 z "},"ª":{"ha":913,"x_min":55,"x_max":836,"o":"m 536 434 q 422 367 475 387 q 327 347 370 347 q 242 362 280 347 q 173 400 203 376 q 121 457 143 425 q 84 524 98 489 q 62 596 69 559 q 55 665 55 632 q 83 831 55 760 q 163 948 112 902 q 286 1018 214 995 q 442 1041 357 1041 q 630 1023 530 1041 q 836 970 731 1004 l 836 369 l 536 369 l 536 434 m 536 884 q 490 888 517 888 q 401 844 429 888 q 373 705 373 800 q 385 617 373 650 q 417 567 396 584 q 469 545 439 550 q 536 540 499 540 l 536 884 z "},"«":{"ha":1222,"x_min":46,"x_max":1149,"o":"m 923 425 l 1149 315 l 1149 -12 l 652 242 l 652 710 l 1149 964 l 1149 535 l 923 425 m 317 425 l 543 315 l 543 -12 l 46 242 l 46 710 l 543 964 l 543 535 l 317 425 z "},"¬":{"ha":669,"x_min":66,"x_max":587,"o":"m 66 608 l 587 608 l 587 174 l 413 174 l 413 347 l 66 347 l 66 608 z "},"­":{"ha":498,"x_min":0,"x_max":0,"o":""},"®":{"ha":1179,"x_min":41,"x_max":1137,"o":"m 41 520 q 61 666 41 596 q 116 797 81 736 q 202 908 152 858 q 313 993 252 958 q 444 1048 374 1029 q 589 1068 513 1068 q 734 1048 665 1068 q 865 993 804 1029 q 977 908 926 958 q 1062 797 1027 858 q 1118 666 1098 736 q 1137 520 1137 596 q 1118 374 1137 444 q 1062 244 1098 304 q 977 133 1027 183 q 865 47 926 83 q 734 -8 804 12 q 589 -28 665 -28 q 444 -8 513 -28 q 313 47 374 12 q 202 133 252 83 q 116 244 152 183 q 61 374 81 304 q 41 520 41 444 m 140 520 q 156 401 140 458 q 201 293 172 343 q 272 202 231 243 q 362 132 313 161 q 470 87 412 103 q 589 71 527 71 q 709 87 651 71 q 816 132 766 103 q 907 202 866 161 q 977 293 948 243 q 1022 400 1006 343 q 1038 520 1038 458 q 1022 640 1038 582 q 977 747 1006 697 q 907 838 948 797 q 816 908 866 879 q 709 953 766 937 q 589 969 651 969 q 470 953 528 969 q 362 908 412 937 q 272 838 313 879 q 201 747 231 797 q 156 640 172 697 q 140 520 140 582 m 916 252 l 679 252 q 632 347 656 295 q 595 456 608 399 l 583 456 l 583 252 l 296 252 l 296 413 l 345 422 l 345 652 l 296 662 l 296 823 l 621 823 q 775 810 717 823 q 865 774 833 798 q 906 717 896 750 q 916 644 916 684 q 910 596 916 618 q 893 555 905 574 q 858 522 880 537 q 802 494 836 507 q 823 459 809 479 q 853 419 837 439 q 887 378 870 398 q 916 345 903 359 l 916 252 m 583 566 q 622 568 604 566 q 652 576 640 570 q 671 595 664 583 q 677 631 677 608 q 671 665 677 652 q 652 685 664 678 q 622 695 640 692 q 583 697 604 697 l 583 566 z "},"¯":{"ha":474,"x_min":64,"x_max":411,"o":"m 411 1188 l 411 1042 l 64 1042 l 64 1188 l 411 1188 z "},"°":{"ha":621,"x_min":38,"x_max":583,"o":"m 583 807 q 560 691 583 741 q 498 609 536 642 q 411 559 460 576 q 310 543 361 543 q 210 559 259 543 q 123 609 161 576 q 61 691 85 642 q 38 807 38 741 q 61 921 38 872 q 123 1003 85 970 q 210 1053 161 1036 q 310 1069 259 1069 q 410 1053 361 1069 q 498 1003 459 1036 q 560 921 536 970 q 583 807 583 872 m 428 804 q 418 861 428 836 q 391 902 408 886 q 353 927 374 919 q 310 936 332 936 q 267 928 288 936 q 230 903 246 920 q 203 862 214 886 q 193 804 193 837 q 203 745 193 770 q 230 703 214 720 q 267 678 246 686 q 311 670 288 670 q 354 679 333 670 q 391 704 375 687 q 418 745 408 720 q 428 804 428 770 z "},"±":{"ha":777,"x_min":41,"x_max":736,"o":"m 41 694 l 302 694 l 302 955 l 475 955 l 475 694 l 736 694 l 736 521 l 475 521 l 475 260 l 302 260 l 302 521 l 41 521 l 41 694 m 126 174 l 647 174 l 647 0 l 126 0 l 126 174 z "},"²":{"ha":731,"x_min":72,"x_max":663,"o":"m 72 583 q 115 597 87 589 q 176 617 143 605 q 243 644 209 629 q 306 680 278 660 q 352 725 334 700 q 370 781 370 750 q 363 814 370 800 q 347 838 357 829 q 322 852 336 848 q 292 857 308 857 q 248 840 271 857 q 210 793 226 823 l 72 793 l 72 1011 q 113 1031 89 1021 q 168 1049 136 1041 q 239 1063 199 1058 q 330 1069 279 1069 q 464 1054 403 1069 q 570 1008 526 1039 q 638 929 614 977 q 663 816 663 882 q 651 742 663 775 q 621 683 640 709 q 578 636 602 656 q 530 600 555 615 q 399 544 473 563 l 659 544 l 659 347 l 72 347 l 72 583 z "},"³":{"ha":779,"x_min":63,"x_max":718,"o":"m 329 504 q 368 510 351 504 q 397 525 385 515 q 414 546 408 534 q 420 570 420 558 q 416 590 420 581 q 405 607 412 600 q 387 619 397 614 q 361 624 376 624 l 241 624 l 241 762 l 361 762 q 387 766 376 762 q 405 779 397 771 q 416 795 412 786 q 420 815 420 805 q 414 840 420 827 q 397 861 408 852 q 368 876 385 870 q 329 882 351 882 q 261 866 294 882 q 203 817 229 850 l 63 817 l 63 1010 q 116 1030 85 1019 q 185 1049 146 1040 q 273 1063 224 1057 q 382 1069 322 1069 q 531 1049 468 1069 q 635 996 594 1029 q 697 920 677 962 q 718 832 718 877 q 709 774 718 798 q 687 733 700 749 q 659 707 674 717 q 631 692 644 697 q 660 676 645 686 q 688 649 675 665 q 709 609 701 633 q 718 553 718 586 q 697 466 718 509 q 635 391 677 424 q 531 338 594 358 q 382 318 468 318 q 273 323 322 318 q 184 337 223 328 q 114 355 144 345 q 63 376 84 366 l 63 569 l 203 569 q 261 519 229 534 q 329 504 294 504 z "},"´":{"ha":610,"x_min":27,"x_max":589,"o":"m 315 1128 l 27 1128 l 257 1563 l 589 1563 l 315 1128 z "},"¶":{"ha":1151,"x_min":38,"x_max":1075,"o":"m 1075 688 l 994 672 l 994 286 l 1075 271 l 1075 0 l 733 0 l 733 608 l 646 608 l 646 0 l 304 0 l 304 271 l 386 286 l 386 368 q 256 378 311 368 q 162 405 201 387 q 99 449 123 423 q 61 508 75 475 q 43 581 47 541 q 38 665 38 620 q 45 746 38 708 q 71 817 52 785 q 123 875 90 849 q 210 918 157 901 q 339 945 263 936 q 519 955 416 955 l 1075 955 l 1075 688 z "},"·":{"ha":585,"x_min":75,"x_max":509,"o":"m 75 791 l 509 791 l 509 444 l 75 444 l 75 791 z "},"¸":{"ha":491,"x_min":63,"x_max":469,"o":"m 293 -300 q 286 -262 293 -279 q 268 -234 279 -245 q 242 -217 256 -223 q 212 -211 227 -211 q 177 -220 194 -211 q 146 -250 159 -230 l 63 -250 l 63 87 l 213 87 l 213 -87 l 220 -87 q 227 -87 224 -87 q 234 -87 231 -87 q 331 -99 288 -87 q 405 -138 374 -112 q 453 -204 436 -163 q 469 -300 469 -244 q 451 -398 469 -357 q 401 -468 433 -440 q 326 -508 369 -495 q 231 -522 282 -522 q 149 -514 192 -522 q 63 -492 106 -507 l 63 -363 q 141 -382 106 -376 q 201 -389 177 -389 q 269 -368 245 -389 q 293 -300 293 -347 z "},"¹":{"ha":529,"x_min":70,"x_max":475,"o":"m 70 1006 l 416 1042 l 416 555 l 475 543 l 475 347 l 70 347 l 70 543 l 127 555 l 127 810 l 70 810 l 70 1006 z "},"º":{"ha":946,"x_min":52,"x_max":894,"o":"m 473 325 q 308 346 385 325 q 174 413 231 368 q 85 531 117 459 q 52 705 52 603 q 85 872 52 803 q 175 985 118 941 q 309 1048 232 1028 q 473 1068 385 1068 q 637 1048 560 1068 q 770 985 713 1028 q 861 872 827 941 q 894 705 894 803 q 861 531 894 603 q 771 413 828 459 q 637 346 714 368 q 473 325 560 325 m 473 850 q 422 843 443 850 q 389 823 402 836 q 368 795 375 810 q 357 763 361 779 q 353 731 354 747 q 353 705 353 716 q 355 663 353 688 q 368 614 357 637 q 404 574 379 591 q 473 557 428 557 q 542 574 517 557 q 578 614 567 591 q 591 663 589 637 q 593 705 593 688 q 593 731 593 716 q 589 763 592 747 q 578 795 585 779 q 557 823 571 810 q 523 843 544 836 q 473 850 503 850 z "},"»":{"ha":1223,"x_min":73,"x_max":1176,"o":"m 679 535 l 679 964 l 1176 710 l 1176 242 l 679 -12 l 679 315 l 905 425 l 679 535 m 73 535 l 73 964 l 570 710 l 570 242 l 73 -12 l 73 315 l 299 425 l 73 535 z "},"¼":{"ha":1832,"x_min":63,"x_max":1797,"o":"m 703 1042 l 1137 1042 l 877 0 l 443 0 l 703 1042 m 63 1006 l 410 1042 l 410 555 l 468 543 l 468 347 l 63 347 l 63 543 l 121 555 l 121 810 l 63 810 l 63 1006 m 1064 389 l 1358 703 l 1651 722 l 1651 389 l 1797 389 l 1797 271 l 1651 271 l 1651 210 l 1710 199 l 1710 0 l 1299 0 l 1299 199 l 1358 210 l 1358 271 l 1064 271 l 1064 389 m 1233 389 l 1358 389 l 1358 535 l 1233 389 z "},"½":{"ha":1737,"x_min":53,"x_max":1695,"o":"m 693 1042 l 1127 1042 l 867 0 l 433 0 l 693 1042 m 53 1006 l 399 1042 l 399 555 l 458 543 l 458 347 l 53 347 l 53 543 l 111 555 l 111 810 l 53 810 l 53 1006 m 1104 235 q 1147 249 1119 241 q 1208 269 1175 257 q 1276 296 1241 281 q 1338 332 1310 312 q 1384 377 1366 352 q 1402 433 1402 402 q 1396 467 1402 452 q 1379 490 1390 481 q 1354 504 1369 500 q 1324 509 1340 509 q 1280 492 1303 509 q 1242 445 1258 475 l 1104 445 l 1104 663 q 1145 683 1121 673 q 1200 702 1168 693 q 1272 715 1232 710 q 1362 721 1312 721 q 1496 706 1435 721 q 1602 660 1558 691 q 1670 581 1646 629 q 1695 468 1695 534 q 1683 394 1695 427 q 1653 335 1672 361 q 1611 288 1634 309 q 1563 252 1587 267 q 1431 196 1505 215 l 1691 196 l 1691 -1 l 1104 -1 l 1104 235 z "},"¾":{"ha":2070,"x_min":62,"x_max":2035,"o":"m 328 504 q 367 510 350 504 q 395 525 384 515 q 413 546 407 534 q 418 570 418 558 q 415 590 418 581 q 404 607 411 600 q 385 619 396 614 q 360 624 374 624 l 240 624 l 240 762 l 360 762 q 385 766 374 762 q 404 779 396 771 q 415 795 411 786 q 418 815 418 805 q 413 840 418 827 q 395 861 407 852 q 367 876 384 870 q 328 882 350 882 q 260 866 293 882 q 201 817 227 850 l 62 817 l 62 1010 q 114 1030 84 1019 q 183 1049 144 1040 q 272 1063 222 1057 q 381 1069 321 1069 q 530 1049 467 1069 q 634 996 593 1029 q 696 920 675 962 q 716 832 716 877 q 707 774 716 798 q 686 733 699 749 q 657 707 673 717 q 630 692 642 697 q 659 676 644 686 q 687 649 674 665 q 708 609 699 633 q 716 553 716 586 q 696 466 716 509 q 634 391 675 424 q 530 338 593 358 q 381 318 467 318 q 271 323 321 318 q 182 337 222 328 q 113 355 143 345 q 62 376 83 366 l 62 569 l 201 569 q 260 519 227 534 q 328 504 293 504 m 941 1042 l 1375 1042 l 1115 0 l 681 0 l 941 1042 m 1302 389 l 1596 703 l 1889 722 l 1889 389 l 2035 389 l 2035 271 l 1889 271 l 1889 210 l 1948 199 l 1948 0 l 1537 0 l 1537 199 l 1596 210 l 1596 271 l 1302 271 l 1302 389 m 1471 389 l 1596 389 l 1596 535 l 1471 389 z "},"¿":{"ha":949,"x_min":37,"x_max":906,"o":"m 777 782 l 343 782 l 343 1042 l 777 1042 l 777 782 m 471 304 q 478 268 471 283 q 497 241 486 252 q 525 224 509 230 q 558 218 541 218 q 635 236 597 218 q 702 293 673 254 l 906 293 l 906 58 q 800 16 861 35 q 674 -14 747 -1 q 505 -27 601 -27 q 311 -8 397 -27 q 163 52 224 12 q 70 155 102 93 q 37 304 37 218 q 61 432 37 379 q 126 520 85 484 q 224 578 168 556 q 343 615 279 601 l 343 694 l 775 694 q 777 695 776 695 l 777 461 q 740 449 766 456 q 679 433 713 442 q 608 411 645 423 q 541 382 571 398 q 491 347 511 367 q 471 304 471 328 z "},"À":{"ha":1205,"x_min":39,"x_max":1166,"o":"m 184 1574 l 516 1574 l 746 1140 l 458 1140 l 184 1574 m 781 0 l 744 175 l 460 175 l 425 0 l 39 0 l 39 342 l 122 359 l 322 1042 l 882 1042 l 1083 359 l 1166 342 l 1166 0 l 781 0 m 519 408 l 686 408 l 602 800 l 519 408 z "},"Á":{"ha":1205,"x_min":39,"x_max":1166,"o":"m 747 1140 l 458 1140 l 688 1574 l 1021 1574 l 747 1140 m 781 0 l 744 175 l 460 175 l 425 0 l 39 0 l 39 342 l 122 359 l 322 1042 l 882 1042 l 1083 359 l 1166 342 l 1166 0 l 781 0 m 519 408 l 686 408 l 602 800 l 519 408 z "},"Â":{"ha":1205,"x_min":39,"x_max":1166,"o":"m 205 1140 l 436 1573 l 768 1573 l 998 1140 l 710 1140 l 602 1400 l 494 1140 l 205 1140 m 781 0 l 744 175 l 460 175 l 425 0 l 39 0 l 39 342 l 122 359 l 322 1042 l 882 1042 l 1083 359 l 1166 342 l 1166 0 l 781 0 m 519 408 l 686 408 l 602 800 l 519 408 z "},"Ã":{"ha":1205,"x_min":39,"x_max":1166,"o":"m 865 1201 q 815 1158 844 1171 q 756 1146 787 1146 q 692 1156 725 1146 q 625 1179 659 1166 q 557 1201 591 1191 q 490 1211 523 1211 q 396 1196 444 1211 q 298 1140 349 1180 l 340 1429 q 394 1469 366 1457 q 456 1480 423 1480 q 519 1468 486 1480 q 585 1441 551 1455 q 651 1414 618 1426 q 717 1402 684 1402 q 809 1420 763 1402 q 906 1484 856 1438 l 865 1201 m 781 0 l 744 175 l 460 175 l 425 0 l 39 0 l 39 342 l 122 359 l 322 1042 l 882 1042 l 1083 359 l 1166 342 l 1166 0 l 781 0 m 519 408 l 686 408 l 602 800 l 519 408 z "},"Ä":{"ha":1205,"x_min":39,"x_max":1166,"o":"m 710 1400 l 998 1400 l 998 1140 l 710 1140 l 710 1400 m 494 1400 l 494 1140 l 205 1140 l 205 1400 l 494 1400 m 781 0 l 744 175 l 460 175 l 425 0 l 39 0 l 39 342 l 122 359 l 322 1042 l 882 1042 l 1083 359 l 1166 342 l 1166 0 l 781 0 m 519 408 l 686 408 l 602 800 l 519 408 z "},"Å":{"ha":1205,"x_min":39,"x_max":1166,"o":"m 875 1345 q 851 1229 875 1278 q 790 1146 828 1179 q 702 1097 751 1114 q 602 1080 653 1080 q 502 1097 551 1080 q 415 1146 453 1114 q 353 1229 376 1179 q 330 1345 330 1278 q 353 1459 330 1410 q 414 1541 376 1508 q 502 1590 452 1574 q 602 1607 551 1607 q 702 1590 652 1607 q 789 1541 751 1574 q 851 1459 828 1508 q 875 1345 875 1410 m 720 1341 q 709 1399 720 1374 q 683 1440 699 1423 q 645 1465 666 1457 q 602 1474 624 1474 q 559 1466 580 1474 q 522 1441 538 1457 q 495 1399 505 1424 q 485 1341 485 1375 q 495 1283 485 1308 q 522 1241 505 1258 q 559 1216 538 1224 q 602 1208 580 1208 q 646 1216 625 1208 q 683 1241 667 1225 q 709 1283 699 1258 q 720 1341 720 1308 m 781 0 l 744 175 l 460 175 l 425 0 l 39 0 l 39 342 l 122 359 l 322 1042 l 882 1042 l 1083 359 l 1166 342 l 1166 0 l 781 0 m 519 408 l 686 408 l 602 800 l 519 408 z "},"Æ":{"ha":1565,"x_min":-26,"x_max":1522,"o":"m 1123 260 q 1214 268 1171 260 q 1292 288 1256 276 q 1357 316 1328 300 q 1409 347 1387 332 l 1522 347 l 1522 0 l 716 0 l 730 175 l 447 175 l 360 0 l -26 0 l 74 342 l 162 359 l 563 1042 l 1522 1042 l 1522 694 l 1413 694 q 1361 725 1391 709 q 1294 753 1331 741 q 1214 773 1257 766 q 1123 781 1171 781 l 1123 596 l 1326 640 l 1326 400 l 1123 444 l 1123 260 m 574 408 l 741 408 l 772 800 l 574 408 z "},"Ç":{"ha":1109,"x_min":44,"x_max":1046,"o":"m 784 -378 q 777 -341 784 -357 q 759 -313 770 -324 q 733 -296 747 -302 q 703 -290 718 -290 q 668 -299 685 -290 q 637 -328 650 -309 l 554 -328 l 554 8 l 704 8 l 704 -166 l 711 -166 q 718 -166 715 -166 q 725 -165 722 -165 q 822 -178 779 -165 q 896 -216 865 -191 q 944 -282 927 -242 q 960 -378 960 -323 q 942 -477 960 -435 q 892 -546 924 -519 q 817 -587 860 -574 q 722 -600 773 -600 q 640 -593 683 -600 q 554 -570 597 -585 l 554 -441 q 632 -461 597 -454 q 692 -467 668 -467 q 760 -446 736 -467 q 784 -378 784 -425 m 479 533 q 494 433 479 475 q 537 363 509 391 q 608 323 566 336 q 703 311 650 311 q 854 326 767 311 q 1046 374 941 342 l 1046 57 q 833 4 937 20 q 629 -12 730 -12 q 400 18 507 -12 q 214 117 293 49 q 90 289 135 185 q 44 533 44 393 q 86 769 44 670 q 204 932 127 868 q 387 1027 280 996 q 624 1057 494 1057 q 768 1049 704 1057 q 884 1029 832 1041 q 975 1001 935 1017 q 1046 972 1015 986 l 1046 660 l 842 660 q 765 732 807 709 q 677 755 722 755 q 604 740 640 755 q 541 696 568 725 q 496 627 513 668 q 479 533 479 586 z "},"È":{"ha":1013,"x_min":69,"x_max":976,"o":"m 104 1574 l 437 1574 l 667 1140 l 378 1140 l 104 1574 m 590 260 q 677 268 636 260 q 752 288 718 276 q 814 316 786 300 q 863 347 842 332 l 976 347 l 976 0 l 69 0 l 69 294 l 156 311 l 156 729 l 69 746 l 69 1042 l 976 1042 l 976 694 l 867 694 q 817 725 845 709 q 753 753 788 741 q 677 773 718 766 q 590 781 637 781 l 590 596 l 793 640 l 793 400 l 590 444 l 590 260 z "},"É":{"ha":1013,"x_min":69,"x_max":976,"o":"m 667 1140 l 378 1140 l 608 1574 l 941 1574 l 667 1140 m 590 260 q 677 268 636 260 q 752 288 718 276 q 814 316 786 300 q 863 347 842 332 l 976 347 l 976 0 l 69 0 l 69 294 l 156 311 l 156 729 l 69 746 l 69 1042 l 976 1042 l 976 694 l 867 694 q 817 725 845 709 q 753 753 788 741 q 677 773 718 766 q 590 781 637 781 l 590 596 l 793 640 l 793 400 l 590 444 l 590 260 z "},"Ê":{"ha":1013,"x_min":69,"x_max":976,"o":"m 126 1140 l 357 1573 l 689 1573 l 919 1140 l 631 1140 l 523 1400 l 414 1140 l 126 1140 m 590 260 q 677 268 636 260 q 752 288 718 276 q 814 316 786 300 q 863 347 842 332 l 976 347 l 976 0 l 69 0 l 69 294 l 156 311 l 156 729 l 69 746 l 69 1042 l 976 1042 l 976 694 l 867 694 q 817 725 845 709 q 753 753 788 741 q 677 773 718 766 q 590 781 637 781 l 590 596 l 793 640 l 793 400 l 590 444 l 590 260 z "},"Ë":{"ha":1013,"x_min":69,"x_max":976,"o":"m 631 1400 l 919 1400 l 919 1140 l 631 1140 l 631 1400 m 414 1400 l 414 1140 l 126 1140 l 126 1400 l 414 1400 m 590 260 q 677 268 636 260 q 752 288 718 276 q 814 316 786 300 q 863 347 842 332 l 976 347 l 976 0 l 69 0 l 69 294 l 156 311 l 156 729 l 69 746 l 69 1042 l 976 1042 l 976 694 l 867 694 q 817 725 845 709 q 753 753 788 741 q 677 773 718 766 q 590 781 637 781 l 590 596 l 793 640 l 793 400 l 590 444 l 590 260 z "},"Ì":{"ha":746,"x_min":-45,"x_max":677,"o":"m -45 1574 l 287 1574 l 517 1140 l 229 1140 l -45 1574 m 69 1042 l 677 1042 l 677 747 l 590 730 l 590 311 l 677 294 l 677 0 l 69 0 l 69 294 l 156 311 l 156 730 l 69 747 l 69 1042 z "},"Í":{"ha":746,"x_min":69,"x_max":791,"o":"m 517 1140 l 229 1140 l 459 1574 l 791 1574 l 517 1140 m 69 1042 l 677 1042 l 677 747 l 590 730 l 590 311 l 677 294 l 677 0 l 69 0 l 69 294 l 156 311 l 156 730 l 69 747 l 69 1042 z "},"Î":{"ha":746,"x_min":-24,"x_max":769,"o":"m -24 1140 l 207 1573 l 539 1573 l 769 1140 l 481 1140 l 373 1400 l 264 1140 l -24 1140 m 69 1042 l 677 1042 l 677 747 l 590 730 l 590 311 l 677 294 l 677 0 l 69 0 l 69 294 l 156 311 l 156 730 l 69 747 l 69 1042 z "},"Ï":{"ha":746,"x_min":-24,"x_max":769,"o":"m 481 1400 l 769 1400 l 769 1140 l 481 1140 l 481 1400 m 264 1400 l 264 1140 l -24 1140 l -24 1400 l 264 1400 m 69 1042 l 677 1042 l 677 747 l 590 730 l 590 311 l 677 294 l 677 0 l 69 0 l 69 294 l 156 311 l 156 730 l 69 747 l 69 1042 z "},"Ð":{"ha":1329,"x_min":68,"x_max":1283,"o":"m 71 608 l 155 608 l 155 755 l 68 772 l 68 1042 l 858 1042 q 1035 981 956 1021 q 1169 880 1114 941 q 1254 732 1224 818 q 1283 533 1283 646 q 1233 281 1283 383 q 1092 117 1183 179 q 872 27 1000 54 q 589 0 744 0 l 68 0 l 68 294 l 155 311 l 155 434 l 71 434 l 71 608 m 655 311 q 767 327 728 311 q 824 372 806 343 q 845 442 842 401 q 848 533 848 483 q 845 624 848 583 q 824 694 842 665 q 767 740 806 724 q 655 755 728 755 l 589 755 l 589 608 l 678 608 l 678 434 l 589 434 l 589 311 l 655 311 z "},"Ñ":{"ha":1354,"x_min":69,"x_max":1284,"o":"m 940 1201 q 890 1158 918 1171 q 831 1146 861 1146 q 766 1156 800 1146 q 699 1179 733 1166 q 631 1201 665 1191 q 565 1211 597 1211 q 471 1196 518 1211 q 373 1140 423 1180 l 415 1429 q 469 1469 440 1457 q 530 1480 498 1480 q 593 1468 561 1480 q 659 1441 626 1455 q 726 1414 692 1426 q 791 1402 759 1402 q 884 1420 838 1402 q 981 1484 930 1438 l 940 1201 m 416 508 l 416 311 l 503 295 l 503 0 l 69 0 l 69 294 l 156 311 l 156 730 l 69 747 l 69 1042 l 590 1042 l 937 508 l 937 729 l 850 747 l 850 1042 l 1284 1042 l 1284 747 l 1198 730 l 1198 311 l 1284 294 l 1284 0 l 763 0 l 416 508 z "},"Ò":{"ha":1302,"x_min":43,"x_max":1259,"o":"m 233 1574 l 565 1574 l 795 1140 l 507 1140 l 233 1574 m 650 -12 q 491 -2 568 -12 q 346 36 414 8 q 223 107 279 64 q 127 213 168 151 q 65 354 87 274 q 43 533 43 433 q 65 702 43 627 q 126 836 87 777 q 221 936 165 894 q 343 1005 276 978 q 489 1044 411 1031 q 650 1057 566 1057 q 812 1044 734 1057 q 958 1004 890 1031 q 1081 935 1026 977 q 1176 835 1137 893 q 1237 702 1215 777 q 1259 533 1259 627 q 1211 282 1259 387 q 1080 111 1163 177 q 887 16 998 44 q 650 -12 777 -12 m 650 747 q 577 736 607 747 q 529 707 548 725 q 499 665 509 688 q 484 618 489 642 q 478 572 479 595 q 477 533 477 550 q 478 494 477 516 q 484 447 479 471 q 499 399 489 423 q 529 357 509 376 q 577 327 548 338 q 650 315 607 315 q 723 327 694 315 q 772 357 753 338 q 803 399 792 376 q 818 447 813 423 q 824 494 823 471 q 825 533 825 516 q 824 572 825 550 q 818 618 823 595 q 803 665 813 642 q 772 707 792 688 q 723 736 753 725 q 650 747 694 747 z "},"Ó":{"ha":1302,"x_min":43,"x_max":1259,"o":"m 794 1140 l 506 1140 l 736 1574 l 1068 1574 l 794 1140 m 650 -12 q 491 -2 568 -12 q 346 36 414 8 q 223 107 279 64 q 127 213 168 151 q 65 354 87 274 q 43 533 43 433 q 65 702 43 627 q 126 836 87 777 q 221 936 165 894 q 343 1005 276 978 q 489 1044 411 1031 q 650 1057 566 1057 q 812 1044 734 1057 q 958 1004 890 1031 q 1081 935 1026 977 q 1176 835 1137 893 q 1237 702 1215 777 q 1259 533 1259 627 q 1211 282 1259 387 q 1080 111 1163 177 q 887 16 998 44 q 650 -12 777 -12 m 650 747 q 577 736 607 747 q 529 707 548 725 q 499 665 509 688 q 484 618 489 642 q 478 572 479 595 q 477 533 477 550 q 478 494 477 516 q 484 447 479 471 q 499 399 489 423 q 529 357 509 376 q 577 327 548 338 q 650 315 607 315 q 723 327 694 315 q 772 357 753 338 q 803 399 792 376 q 818 447 813 423 q 824 494 823 471 q 825 533 825 516 q 824 572 825 550 q 818 618 823 595 q 803 665 813 642 q 772 707 792 688 q 723 736 753 725 q 650 747 694 747 z "},"Ô":{"ha":1302,"x_min":43,"x_max":1259,"o":"m 254 1140 l 485 1573 l 817 1573 l 1047 1140 l 759 1140 l 651 1400 l 543 1140 l 254 1140 m 650 -12 q 491 -2 568 -12 q 346 36 414 8 q 223 107 279 64 q 127 213 168 151 q 65 354 87 274 q 43 533 43 433 q 65 702 43 627 q 126 836 87 777 q 221 936 165 894 q 343 1005 276 978 q 489 1044 411 1031 q 650 1057 566 1057 q 812 1044 734 1057 q 958 1004 890 1031 q 1081 935 1026 977 q 1176 835 1137 893 q 1237 702 1215 777 q 1259 533 1259 627 q 1211 282 1259 387 q 1080 111 1163 177 q 887 16 998 44 q 650 -12 777 -12 m 650 747 q 577 736 607 747 q 529 707 548 725 q 499 665 509 688 q 484 618 489 642 q 478 572 479 595 q 477 533 477 550 q 478 494 477 516 q 484 447 479 471 q 499 399 489 423 q 529 357 509 376 q 577 327 548 338 q 650 315 607 315 q 723 327 694 315 q 772 357 753 338 q 803 399 792 376 q 818 447 813 423 q 824 494 823 471 q 825 533 825 516 q 824 572 825 550 q 818 618 823 595 q 803 665 813 642 q 772 707 792 688 q 723 736 753 725 q 650 747 694 747 z "},"Õ":{"ha":1302,"x_min":43,"x_max":1259,"o":"m 913 1201 q 863 1158 892 1171 q 804 1146 835 1146 q 740 1156 773 1146 q 673 1179 707 1166 q 605 1201 639 1191 q 538 1211 571 1211 q 444 1196 492 1211 q 347 1140 397 1180 l 389 1429 q 443 1469 414 1457 q 504 1480 471 1480 q 567 1468 534 1480 q 633 1441 600 1455 q 699 1414 666 1426 q 765 1402 732 1402 q 858 1420 811 1402 q 954 1484 904 1438 l 913 1201 m 650 -12 q 491 -2 568 -12 q 346 36 414 8 q 223 107 279 64 q 127 213 168 151 q 65 354 87 274 q 43 533 43 433 q 65 702 43 627 q 126 836 87 777 q 221 936 165 894 q 343 1005 276 978 q 489 1044 411 1031 q 650 1057 566 1057 q 812 1044 734 1057 q 958 1004 890 1031 q 1081 935 1026 977 q 1176 835 1137 893 q 1237 702 1215 777 q 1259 533 1259 627 q 1211 282 1259 387 q 1080 111 1163 177 q 887 16 998 44 q 650 -12 777 -12 m 650 747 q 577 736 607 747 q 529 707 548 725 q 499 665 509 688 q 484 618 489 642 q 478 572 479 595 q 477 533 477 550 q 478 494 477 516 q 484 447 479 471 q 499 399 489 423 q 529 357 509 376 q 577 327 548 338 q 650 315 607 315 q 723 327 694 315 q 772 357 753 338 q 803 399 792 376 q 818 447 813 423 q 824 494 823 471 q 825 533 825 516 q 824 572 825 550 q 818 618 823 595 q 803 665 813 642 q 772 707 792 688 q 723 736 753 725 q 650 747 694 747 z "},"Ö":{"ha":1302,"x_min":43,"x_max":1259,"o":"m 759 1400 l 1047 1400 l 1047 1140 l 759 1140 l 759 1400 m 543 1400 l 543 1140 l 254 1140 l 254 1400 l 543 1400 m 650 -12 q 491 -2 568 -12 q 346 36 414 8 q 223 107 279 64 q 127 213 168 151 q 65 354 87 274 q 43 533 43 433 q 65 702 43 627 q 126 836 87 777 q 221 936 165 894 q 343 1005 276 978 q 489 1044 411 1031 q 650 1057 566 1057 q 812 1044 734 1057 q 958 1004 890 1031 q 1081 935 1026 977 q 1176 835 1137 893 q 1237 702 1215 777 q 1259 533 1259 627 q 1211 282 1259 387 q 1080 111 1163 177 q 887 16 998 44 q 650 -12 777 -12 m 650 747 q 577 736 607 747 q 529 707 548 725 q 499 665 509 688 q 484 618 489 642 q 478 572 479 595 q 477 533 477 550 q 478 494 477 516 q 484 447 479 471 q 499 399 489 423 q 529 357 509 376 q 577 327 548 338 q 650 315 607 315 q 723 327 694 315 q 772 357 753 338 q 803 399 792 376 q 818 447 813 423 q 824 494 823 471 q 825 533 825 516 q 824 572 825 550 q 818 618 823 595 q 803 665 813 642 q 772 707 792 688 q 723 736 753 725 q 650 747 694 747 z "},"×":{"ha":708,"x_min":47,"x_max":661,"o":"m 47 336 l 231 521 l 47 705 l 170 828 l 354 644 l 538 828 l 661 705 l 477 521 l 661 336 l 538 214 l 354 398 l 170 214 l 47 336 z "},"Ø":{"ha":1303,"x_min":44,"x_max":1259,"o":"m 651 -27 q 477 -11 559 -27 l 416 -141 l 286 -87 l 342 30 q 220 104 275 59 q 126 211 165 149 q 65 353 87 273 q 44 533 44 433 q 65 706 44 629 q 126 843 87 783 q 221 945 165 903 q 343 1016 276 988 q 489 1056 411 1043 q 651 1069 566 1069 q 746 1065 701 1069 q 835 1052 792 1061 l 893 1172 l 1023 1128 l 967 1012 q 1087 941 1033 984 q 1179 840 1141 899 q 1238 704 1217 781 q 1259 533 1259 628 q 1212 277 1259 383 q 1082 103 1164 171 q 889 4 1000 35 q 651 -27 778 -27 m 651 747 q 578 736 608 747 q 529 707 549 725 q 500 665 510 688 q 485 618 490 642 q 479 572 479 595 q 478 533 478 550 q 478 500 478 519 q 482 460 479 481 q 492 419 485 440 q 511 380 498 398 l 687 745 q 670 747 680 746 q 651 747 661 747 m 825 533 q 825 562 825 546 q 822 595 824 578 q 815 631 820 612 q 802 667 810 649 l 634 316 q 642 315 638 315 q 651 315 646 315 q 724 327 694 315 q 773 357 753 338 q 803 399 793 376 q 819 447 814 423 q 824 494 823 471 q 825 533 825 516 z "},"Ù":{"ha":1322,"x_min":41,"x_max":1279,"o":"m 242 1574 l 574 1574 l 804 1140 l 516 1140 l 242 1574 m 1192 730 q 1192 688 1192 709 q 1192 648 1192 667 l 1192 533 q 1153 285 1192 389 q 1046 114 1114 181 q 888 17 979 46 q 696 -12 798 -12 q 544 -2 617 -12 q 408 38 471 9 q 294 111 345 66 q 205 217 242 155 q 148 357 168 278 q 128 533 128 435 l 128 730 l 41 747 l 41 1042 l 605 1042 l 605 747 l 518 730 l 518 643 q 518 609 518 626 q 518 576 518 591 q 519 550 519 562 q 519 533 519 538 q 519 494 519 516 q 525 447 520 471 q 541 399 530 423 q 570 357 551 376 q 619 327 589 338 q 692 315 648 315 q 765 327 735 315 q 814 357 794 338 q 844 399 833 376 q 859 447 854 423 q 865 494 864 471 q 866 533 866 516 q 866 550 866 538 q 866 576 866 562 q 865 609 865 591 q 865 643 865 626 l 865 730 l 779 747 l 779 1042 l 1279 1042 l 1279 747 l 1192 730 z "},"Ú":{"ha":1322,"x_min":41,"x_max":1279,"o":"m 804 1140 l 516 1140 l 746 1574 l 1078 1574 l 804 1140 m 1192 730 q 1192 688 1192 709 q 1192 648 1192 667 l 1192 533 q 1153 285 1192 389 q 1046 114 1114 181 q 888 17 979 46 q 696 -12 798 -12 q 544 -2 617 -12 q 408 38 471 9 q 294 111 345 66 q 205 217 242 155 q 148 357 168 278 q 128 533 128 435 l 128 730 l 41 747 l 41 1042 l 605 1042 l 605 747 l 518 730 l 518 643 q 518 609 518 626 q 518 576 518 591 q 519 550 519 562 q 519 533 519 538 q 519 494 519 516 q 525 447 520 471 q 541 399 530 423 q 570 357 551 376 q 619 327 589 338 q 692 315 648 315 q 765 327 735 315 q 814 357 794 338 q 844 399 833 376 q 859 447 854 423 q 865 494 864 471 q 866 533 866 516 q 866 550 866 538 q 866 576 866 562 q 865 609 865 591 q 865 643 865 626 l 865 730 l 779 747 l 779 1042 l 1279 1042 l 1279 747 l 1192 730 z "},"Û":{"ha":1322,"x_min":41,"x_max":1279,"o":"m 264 1140 l 494 1573 l 827 1573 l 1057 1140 l 768 1140 l 661 1400 l 552 1140 l 264 1140 m 1192 730 q 1192 688 1192 709 q 1192 648 1192 667 l 1192 533 q 1153 285 1192 389 q 1046 114 1114 181 q 888 17 979 46 q 696 -12 798 -12 q 544 -2 617 -12 q 408 38 471 9 q 294 111 345 66 q 205 217 242 155 q 148 357 168 278 q 128 533 128 435 l 128 730 l 41 747 l 41 1042 l 605 1042 l 605 747 l 518 730 l 518 643 q 518 609 518 626 q 518 576 518 591 q 519 550 519 562 q 519 533 519 538 q 519 494 519 516 q 525 447 520 471 q 541 399 530 423 q 570 357 551 376 q 619 327 589 338 q 692 315 648 315 q 765 327 735 315 q 814 357 794 338 q 844 399 833 376 q 859 447 854 423 q 865 494 864 471 q 866 533 866 516 q 866 550 866 538 q 866 576 866 562 q 865 609 865 591 q 865 643 865 626 l 865 730 l 779 747 l 779 1042 l 1279 1042 l 1279 747 l 1192 730 z "},"Ü":{"ha":1322,"x_min":41,"x_max":1279,"o":"m 768 1400 l 1057 1400 l 1057 1140 l 768 1140 l 768 1400 m 552 1400 l 552 1140 l 264 1140 l 264 1400 l 552 1400 m 1192 730 q 1192 688 1192 709 q 1192 648 1192 667 l 1192 533 q 1153 285 1192 389 q 1046 114 1114 181 q 888 17 979 46 q 696 -12 798 -12 q 544 -2 617 -12 q 408 38 471 9 q 294 111 345 66 q 205 217 242 155 q 148 357 168 278 q 128 533 128 435 l 128 730 l 41 747 l 41 1042 l 605 1042 l 605 747 l 518 730 l 518 643 q 518 609 518 626 q 518 576 518 591 q 519 550 519 562 q 519 533 519 538 q 519 494 519 516 q 525 447 520 471 q 541 399 530 423 q 570 357 551 376 q 619 327 589 338 q 692 315 648 315 q 765 327 735 315 q 814 357 794 338 q 844 399 833 376 q 859 447 854 423 q 865 494 864 471 q 866 533 866 516 q 866 550 866 538 q 866 576 866 562 q 865 609 865 591 q 865 643 865 626 l 865 730 l 779 747 l 779 1042 l 1279 1042 l 1279 747 l 1192 730 z "},"Ý":{"ha":1318,"x_min":10,"x_max":1308,"o":"m 803 1140 l 515 1140 l 745 1574 l 1077 1574 l 803 1140 m 331 0 l 331 293 l 418 315 l 120 731 l 10 747 l 10 1042 l 589 1042 l 589 747 l 522 731 l 659 518 l 797 731 l 729 747 l 729 1042 l 1308 1042 l 1308 747 l 1198 731 l 901 315 l 987 293 l 987 0 l 331 0 z "},"Þ":{"ha":1216,"x_min":68,"x_max":1196,"o":"m 68 1128 l 589 1128 l 589 1010 l 659 1010 q 859 1001 774 1010 q 1003 973 943 991 q 1100 927 1063 955 q 1159 863 1138 900 q 1188 781 1181 827 q 1196 682 1196 736 q 1187 599 1196 639 q 1154 524 1178 559 q 1086 460 1129 489 q 976 411 1043 431 q 813 379 908 391 q 589 368 718 368 l 589 311 l 675 294 l 675 0 l 68 0 l 68 294 l 155 311 l 155 785 l 68 802 l 68 1128 m 589 555 q 660 559 628 555 q 715 576 692 563 q 750 614 738 589 q 762 682 762 640 q 750 748 762 724 q 715 786 738 773 q 660 803 692 799 q 589 807 628 807 l 589 555 z "},"ß":{"ha":1229,"x_min":39,"x_max":1196,"o":"m 646 261 q 712 270 687 261 q 752 292 738 278 q 772 325 767 307 q 777 361 777 342 q 772 398 777 380 q 753 430 767 416 q 713 453 739 444 q 646 461 687 461 l 646 607 q 713 616 688 607 q 753 639 739 625 q 772 672 768 654 q 777 709 777 690 q 773 745 777 728 q 756 777 769 763 q 720 799 743 790 q 659 807 697 807 q 622 801 640 807 q 590 783 604 795 q 568 752 576 770 q 559 708 559 733 l 559 0 l 39 0 l 39 294 l 125 311 l 125 798 q 179 957 125 898 q 340 1042 233 1016 l 751 1042 q 909 1019 843 1042 q 1017 959 975 996 q 1079 874 1059 922 q 1099 778 1099 827 q 1087 702 1099 739 q 1054 632 1076 665 q 1001 574 1032 600 q 930 533 969 548 q 986 527 956 532 q 1046 512 1017 522 q 1103 486 1076 502 q 1151 445 1131 469 q 1184 388 1172 421 q 1196 311 1196 355 q 1180 188 1196 245 q 1121 89 1163 131 q 1008 24 1080 47 q 826 0 936 0 l 646 0 l 646 261 z "},"à":{"ha":1131,"x_min":35,"x_max":1095,"o":"m 147 1497 l 479 1497 l 709 1063 l 421 1063 l 147 1497 m 732 0 l 699 161 l 432 161 l 398 0 l 35 0 l 35 315 l 114 330 l 302 955 l 828 955 l 1017 330 l 1095 315 l 1095 0 l 732 0 m 473 375 l 657 375 l 565 750 l 473 375 z "},"á":{"ha":1131,"x_min":35,"x_max":1095,"o":"m 709 1063 l 420 1063 l 650 1497 l 983 1497 l 709 1063 m 732 0 l 699 161 l 432 161 l 398 0 l 35 0 l 35 315 l 114 330 l 302 955 l 828 955 l 1017 330 l 1095 315 l 1095 0 l 732 0 m 473 375 l 657 375 l 565 750 l 473 375 z "},"â":{"ha":1131,"x_min":35,"x_max":1095,"o":"m 169 1063 l 399 1497 l 732 1497 l 962 1063 l 673 1063 l 566 1323 l 457 1063 l 169 1063 m 732 0 l 699 161 l 432 161 l 398 0 l 35 0 l 35 315 l 114 330 l 302 955 l 828 955 l 1017 330 l 1095 315 l 1095 0 l 732 0 m 473 375 l 657 375 l 565 750 l 473 375 z "},"ã":{"ha":1131,"x_min":35,"x_max":1095,"o":"m 828 1124 q 778 1082 806 1094 q 719 1069 749 1069 q 654 1080 688 1069 q 587 1102 621 1090 q 519 1124 553 1114 q 453 1135 486 1135 q 359 1119 406 1135 q 261 1063 311 1103 l 303 1352 q 357 1392 328 1381 q 418 1403 386 1403 q 481 1391 449 1403 q 547 1364 514 1379 q 614 1337 581 1350 q 680 1325 647 1325 q 772 1343 726 1325 q 869 1407 819 1361 l 828 1124 m 732 0 l 699 161 l 432 161 l 398 0 l 35 0 l 35 315 l 114 330 l 302 955 l 828 955 l 1017 330 l 1095 315 l 1095 0 l 732 0 m 473 375 l 657 375 l 565 750 l 473 375 z "},"ä":{"ha":1131,"x_min":35,"x_max":1095,"o":"m 673 1324 l 962 1324 l 962 1063 l 673 1063 l 673 1324 m 457 1324 l 457 1063 l 169 1063 l 169 1324 l 457 1324 m 732 0 l 699 161 l 432 161 l 398 0 l 35 0 l 35 315 l 114 330 l 302 955 l 828 955 l 1017 330 l 1095 315 l 1095 0 l 732 0 m 473 375 l 657 375 l 565 750 l 473 375 z "},"å":{"ha":1131,"x_min":35,"x_max":1095,"o":"m 838 1328 q 814 1212 838 1261 q 752 1129 791 1162 q 665 1080 714 1097 q 564 1063 616 1063 q 465 1080 513 1063 q 377 1129 416 1097 q 316 1212 339 1162 q 292 1328 292 1261 q 316 1442 292 1393 q 377 1524 339 1491 q 464 1573 415 1557 q 564 1590 513 1590 q 664 1573 615 1590 q 752 1524 713 1557 q 814 1442 791 1491 q 838 1328 838 1393 m 682 1324 q 672 1382 682 1357 q 645 1423 662 1407 q 608 1448 629 1440 q 564 1457 587 1457 q 522 1449 543 1457 q 484 1424 500 1440 q 458 1382 468 1407 q 448 1324 448 1358 q 458 1266 448 1291 q 484 1224 468 1241 q 522 1199 500 1207 q 565 1191 543 1191 q 608 1199 587 1191 q 646 1224 629 1208 q 672 1266 662 1241 q 682 1324 682 1291 m 732 0 l 699 161 l 432 161 l 398 0 l 35 0 l 35 315 l 114 330 l 302 955 l 828 955 l 1017 330 l 1095 315 l 1095 0 l 732 0 m 473 375 l 657 375 l 565 750 l 473 375 z "},"æ":{"ha":1530,"x_min":-24,"x_max":1495,"o":"m 1119 535 l 1307 575 l 1307 382 l 1119 422 l 1119 273 q 1200 278 1161 273 q 1272 294 1238 284 q 1333 318 1305 304 q 1381 347 1361 332 l 1495 347 l 1495 0 l 671 0 l 686 161 l 420 161 l 337 0 l -24 0 l 69 315 l 152 330 l 529 955 l 1495 955 l 1495 608 l 1381 608 q 1333 636 1361 623 q 1272 660 1305 650 q 1200 676 1238 670 q 1119 682 1161 682 l 1119 535 m 526 375 l 730 375 l 730 750 l 526 375 z "},"ç":{"ha":1042,"x_min":41,"x_max":983,"o":"m 746 -378 q 739 -341 746 -357 q 721 -313 732 -324 q 695 -296 709 -302 q 665 -290 680 -290 q 630 -299 647 -290 q 599 -328 612 -309 l 516 -328 l 516 8 l 666 8 l 666 -166 l 673 -166 q 680 -166 677 -166 q 687 -165 684 -165 q 784 -178 741 -165 q 858 -216 827 -191 q 906 -282 889 -242 q 922 -378 922 -323 q 904 -477 922 -435 q 854 -546 886 -519 q 779 -587 822 -574 q 684 -600 735 -600 q 602 -593 645 -600 q 516 -570 559 -585 l 516 -441 q 594 -461 559 -454 q 654 -467 630 -467 q 722 -446 699 -467 q 746 -378 746 -425 m 450 490 q 505 333 450 382 q 661 284 560 284 q 801 299 721 284 q 983 345 882 314 l 983 50 q 591 -12 779 -12 q 374 15 475 -12 q 200 106 274 43 q 84 265 126 169 q 41 490 41 361 q 80 711 41 618 q 191 864 119 804 q 363 952 262 924 q 587 981 463 981 q 723 973 662 981 q 832 954 783 966 q 917 929 880 943 q 983 902 954 915 l 983 607 l 791 607 q 719 673 758 652 q 637 694 680 694 q 568 681 602 694 q 508 641 534 667 q 466 577 482 615 q 450 490 450 539 z "},"è":{"ha":946,"x_min":65,"x_max":903,"o":"m 66 1497 l 398 1497 l 628 1063 l 340 1063 l 66 1497 m 555 535 l 743 575 l 743 382 l 555 422 l 555 273 q 633 278 595 273 q 704 294 671 284 q 764 318 736 304 q 810 347 791 332 l 903 347 l 903 0 l 65 0 l 65 271 l 146 286 l 146 671 l 65 686 l 65 955 l 903 955 l 903 608 l 810 608 q 764 636 791 623 q 704 660 736 650 q 633 676 671 670 q 555 682 595 682 l 555 535 z "},"é":{"ha":946,"x_min":65,"x_max":903,"o":"m 629 1063 l 340 1063 l 570 1497 l 903 1497 l 629 1063 m 555 535 l 743 575 l 743 382 l 555 422 l 555 273 q 633 278 595 273 q 704 294 671 284 q 764 318 736 304 q 810 347 791 332 l 903 347 l 903 0 l 65 0 l 65 271 l 146 286 l 146 671 l 65 686 l 65 955 l 903 955 l 903 608 l 810 608 q 764 636 791 623 q 704 660 736 650 q 633 676 671 670 q 555 682 595 682 l 555 535 z "},"ê":{"ha":946,"x_min":65,"x_max":903,"o":"m 87 1063 l 318 1497 l 650 1497 l 880 1063 l 592 1063 l 484 1323 l 376 1063 l 87 1063 m 555 535 l 743 575 l 743 382 l 555 422 l 555 273 q 633 278 595 273 q 704 294 671 284 q 764 318 736 304 q 810 347 791 332 l 903 347 l 903 0 l 65 0 l 65 271 l 146 286 l 146 671 l 65 686 l 65 955 l 903 955 l 903 608 l 810 608 q 764 636 791 623 q 704 660 736 650 q 633 676 671 670 q 555 682 595 682 l 555 535 z "},"ë":{"ha":946,"x_min":65,"x_max":903,"o":"m 592 1324 l 880 1324 l 880 1063 l 592 1063 l 592 1324 m 376 1324 l 376 1063 l 87 1063 l 87 1324 l 376 1324 m 555 535 l 743 575 l 743 382 l 555 422 l 555 273 q 633 278 595 273 q 704 294 671 284 q 764 318 736 304 q 810 347 791 332 l 903 347 l 903 0 l 65 0 l 65 271 l 146 286 l 146 671 l 65 686 l 65 955 l 903 955 l 903 608 l 810 608 q 764 636 791 623 q 704 660 736 650 q 633 676 671 670 q 555 682 595 682 l 555 535 z "},"ì":{"ha":703,"x_min":-67,"x_max":637,"o":"m -67 1497 l 265 1497 l 495 1063 l 207 1063 l -67 1497 m 66 955 l 637 955 l 637 688 l 555 672 l 555 286 l 637 271 l 637 0 l 66 0 l 66 271 l 147 286 l 147 672 l 66 688 l 66 955 z "},"í":{"ha":703,"x_min":66,"x_max":770,"o":"m 496 1063 l 208 1063 l 437 1497 l 770 1497 l 496 1063 m 66 955 l 637 955 l 637 688 l 555 672 l 555 286 l 637 271 l 637 0 l 66 0 l 66 271 l 147 286 l 147 672 l 66 688 l 66 955 z "},"î":{"ha":703,"x_min":-45,"x_max":747,"o":"m -45 1063 l 185 1497 l 517 1497 l 747 1063 l 459 1063 l 351 1323 l 243 1063 l -45 1063 m 66 955 l 637 955 l 637 688 l 555 672 l 555 286 l 637 271 l 637 0 l 66 0 l 66 271 l 147 286 l 147 672 l 66 688 l 66 955 z "},"ï":{"ha":703,"x_min":-45,"x_max":747,"o":"m 459 1324 l 747 1324 l 747 1063 l 459 1063 l 459 1324 m 243 1324 l 243 1063 l -45 1063 l -45 1324 l 243 1324 m 66 955 l 637 955 l 637 688 l 555 672 l 555 286 l 637 271 l 637 0 l 66 0 l 66 271 l 147 286 l 147 672 l 66 688 l 66 955 z "},"ð":{"ha":1249,"x_min":64,"x_max":1206,"o":"m 66 575 l 146 575 l 146 695 l 64 711 l 64 955 l 807 955 q 973 899 899 935 q 1099 807 1047 863 q 1179 673 1151 751 q 1206 490 1206 595 q 1185 327 1206 399 q 1124 200 1164 254 q 1027 107 1084 145 q 897 45 969 69 q 738 11 825 22 q 554 0 652 0 l 64 0 l 64 271 l 146 286 l 146 401 l 66 401 l 66 575 m 616 286 q 693 293 662 286 q 744 312 724 300 q 775 342 764 324 q 792 383 787 361 q 798 433 797 406 q 798 490 798 460 q 798 548 798 521 q 792 598 797 575 q 775 638 787 621 q 744 669 764 656 q 693 688 724 682 q 616 695 662 695 l 554 695 l 554 575 l 674 575 l 674 401 l 554 401 l 554 286 l 616 286 z "},"ñ":{"ha":1274,"x_min":66,"x_max":1208,"o":"m 900 1124 q 850 1082 878 1094 q 791 1069 821 1069 q 726 1080 760 1069 q 659 1102 693 1090 q 591 1124 625 1114 q 525 1135 557 1135 q 431 1119 478 1135 q 333 1063 383 1103 l 375 1352 q 429 1392 400 1381 q 490 1403 458 1403 q 553 1391 521 1403 q 619 1364 586 1379 q 686 1337 652 1350 q 751 1325 719 1325 q 844 1343 798 1325 q 941 1407 890 1361 l 900 1124 m 392 501 l 392 286 l 474 271 l 474 0 l 66 0 l 66 271 l 147 286 l 147 672 l 66 688 l 66 955 l 555 955 l 882 440 l 882 671 l 800 688 l 800 955 l 1208 955 l 1208 688 l 1126 672 l 1126 286 l 1208 271 l 1208 0 l 718 0 l 392 501 z "},"ò":{"ha":1223,"x_min":41,"x_max":1183,"o":"m 193 1497 l 526 1497 l 755 1063 l 467 1063 l 193 1497 m 611 -12 q 388 13 492 -12 q 207 101 283 39 q 85 259 130 163 q 41 490 41 355 q 85 716 41 623 q 207 868 130 809 q 388 954 284 926 q 611 981 492 981 q 834 954 730 981 q 1016 868 938 926 q 1138 716 1093 809 q 1183 490 1183 623 q 1162 328 1183 401 q 1105 198 1142 255 q 1016 101 1068 142 q 901 33 964 60 q 764 -3 837 6 q 611 -12 690 -12 m 611 692 q 544 682 571 692 q 498 655 516 671 q 470 618 480 639 q 455 575 460 597 q 450 531 451 553 q 449 494 449 510 q 450 457 449 478 q 454 412 450 435 q 468 366 458 389 q 495 324 477 342 q 542 295 513 306 q 611 283 570 283 q 680 294 652 283 q 726 323 708 305 q 754 363 744 341 q 769 409 764 386 q 774 453 773 431 q 775 490 775 475 q 774 528 775 507 q 769 572 773 549 q 754 615 764 594 q 726 654 744 637 q 680 681 708 671 q 611 692 652 692 z "},"ó":{"ha":1223,"x_min":41,"x_max":1183,"o":"m 755 1063 l 467 1063 l 696 1497 l 1029 1497 l 755 1063 m 611 -12 q 388 13 492 -12 q 207 101 283 39 q 85 259 130 163 q 41 490 41 355 q 85 716 41 623 q 207 868 130 809 q 388 954 284 926 q 611 981 492 981 q 834 954 730 981 q 1016 868 938 926 q 1138 716 1093 809 q 1183 490 1183 623 q 1162 328 1183 401 q 1105 198 1142 255 q 1016 101 1068 142 q 901 33 964 60 q 764 -3 837 6 q 611 -12 690 -12 m 611 692 q 544 682 571 692 q 498 655 516 671 q 470 618 480 639 q 455 575 460 597 q 450 531 451 553 q 449 494 449 510 q 450 457 449 478 q 454 412 450 435 q 468 366 458 389 q 495 324 477 342 q 542 295 513 306 q 611 283 570 283 q 680 294 652 283 q 726 323 708 305 q 754 363 744 341 q 769 409 764 386 q 774 453 773 431 q 775 490 775 475 q 774 528 775 507 q 769 572 773 549 q 754 615 764 594 q 726 654 744 637 q 680 681 708 671 q 611 692 652 692 z "},"ô":{"ha":1223,"x_min":41,"x_max":1183,"o":"m 215 1063 l 446 1497 l 778 1497 l 1008 1063 l 720 1063 l 612 1323 l 503 1063 l 215 1063 m 611 -12 q 388 13 492 -12 q 207 101 283 39 q 85 259 130 163 q 41 490 41 355 q 85 716 41 623 q 207 868 130 809 q 388 954 284 926 q 611 981 492 981 q 834 954 730 981 q 1016 868 938 926 q 1138 716 1093 809 q 1183 490 1183 623 q 1162 328 1183 401 q 1105 198 1142 255 q 1016 101 1068 142 q 901 33 964 60 q 764 -3 837 6 q 611 -12 690 -12 m 611 692 q 544 682 571 692 q 498 655 516 671 q 470 618 480 639 q 455 575 460 597 q 450 531 451 553 q 449 494 449 510 q 450 457 449 478 q 454 412 450 435 q 468 366 458 389 q 495 324 477 342 q 542 295 513 306 q 611 283 570 283 q 680 294 652 283 q 726 323 708 305 q 754 363 744 341 q 769 409 764 386 q 774 453 773 431 q 775 490 775 475 q 774 528 775 507 q 769 572 773 549 q 754 615 764 594 q 726 654 744 637 q 680 681 708 671 q 611 692 652 692 z "},"õ":{"ha":1223,"x_min":41,"x_max":1183,"o":"m 874 1124 q 824 1082 852 1094 q 765 1069 795 1069 q 701 1080 734 1069 q 633 1102 667 1090 q 566 1124 600 1114 q 499 1135 532 1135 q 405 1119 452 1135 q 307 1063 357 1103 l 349 1352 q 403 1392 374 1381 q 465 1403 432 1403 q 528 1391 495 1403 q 593 1364 560 1379 q 660 1337 627 1350 q 726 1325 693 1325 q 818 1343 772 1325 q 915 1407 865 1361 l 874 1124 m 611 -12 q 388 13 492 -12 q 207 101 283 39 q 85 259 130 163 q 41 490 41 355 q 85 716 41 623 q 207 868 130 809 q 388 954 284 926 q 611 981 492 981 q 834 954 730 981 q 1016 868 938 926 q 1138 716 1093 809 q 1183 490 1183 623 q 1162 328 1183 401 q 1105 198 1142 255 q 1016 101 1068 142 q 901 33 964 60 q 764 -3 837 6 q 611 -12 690 -12 m 611 692 q 544 682 571 692 q 498 655 516 671 q 470 618 480 639 q 455 575 460 597 q 450 531 451 553 q 449 494 449 510 q 450 457 449 478 q 454 412 450 435 q 468 366 458 389 q 495 324 477 342 q 542 295 513 306 q 611 283 570 283 q 680 294 652 283 q 726 323 708 305 q 754 363 744 341 q 769 409 764 386 q 774 453 773 431 q 775 490 775 475 q 774 528 775 507 q 769 572 773 549 q 754 615 764 594 q 726 654 744 637 q 680 681 708 671 q 611 692 652 692 z "},"ö":{"ha":1223,"x_min":41,"x_max":1183,"o":"m 720 1324 l 1008 1324 l 1008 1063 l 720 1063 l 720 1324 m 503 1324 l 503 1063 l 215 1063 l 215 1324 l 503 1324 m 611 -12 q 388 13 492 -12 q 207 101 283 39 q 85 259 130 163 q 41 490 41 355 q 85 716 41 623 q 207 868 130 809 q 388 954 284 926 q 611 981 492 981 q 834 954 730 981 q 1016 868 938 926 q 1138 716 1093 809 q 1183 490 1183 623 q 1162 328 1183 401 q 1105 198 1142 255 q 1016 101 1068 142 q 901 33 964 60 q 764 -3 837 6 q 611 -12 690 -12 m 611 692 q 544 682 571 692 q 498 655 516 671 q 470 618 480 639 q 455 575 460 597 q 450 531 451 553 q 449 494 449 510 q 450 457 449 478 q 454 412 450 435 q 468 366 458 389 q 495 324 477 342 q 542 295 513 306 q 611 283 570 283 q 680 294 652 283 q 726 323 708 305 q 754 363 744 341 q 769 409 764 386 q 774 453 773 431 q 775 490 775 475 q 774 528 775 507 q 769 572 773 549 q 754 615 764 594 q 726 654 744 637 q 680 681 708 671 q 611 692 652 692 z "},"÷":{"ha":621,"x_min":50,"x_max":571,"o":"m 180 868 l 441 868 l 441 608 l 180 608 l 180 868 m 50 521 l 571 521 l 571 347 l 50 347 l 50 521 m 180 260 l 441 260 l 441 0 l 180 0 l 180 260 z "},"ø":{"ha":1223,"x_min":41,"x_max":1183,"o":"m 611 -25 q 530 -22 568 -25 q 452 -12 491 -18 l 391 -141 l 260 -87 l 316 29 q 203 98 254 56 q 116 196 152 139 q 60 326 80 252 q 41 490 41 399 q 85 717 41 623 q 207 870 130 811 q 388 956 284 929 q 611 983 492 983 q 692 980 653 983 q 769 970 732 977 l 825 1085 l 955 1042 l 903 933 q 1017 868 966 907 q 1105 774 1069 829 q 1162 649 1142 720 q 1183 490 1183 578 q 1162 325 1183 399 q 1105 194 1142 251 q 1016 95 1068 136 q 901 27 964 54 q 764 -13 837 0 q 611 -25 690 -25 m 611 688 q 543 677 570 688 q 497 651 515 667 q 470 613 479 634 q 455 570 460 592 q 450 528 450 549 q 449 492 449 507 q 449 463 449 479 q 452 429 450 447 q 459 392 454 411 q 474 357 465 374 l 633 686 q 622 687 627 687 q 611 688 616 688 m 775 490 q 775 517 775 502 q 772 549 774 532 q 765 583 770 566 q 751 616 760 600 l 596 290 l 611 290 q 680 301 652 290 q 726 329 708 311 q 754 368 744 346 q 769 411 764 389 q 774 454 773 433 q 775 490 775 475 z "},"ù":{"ha":1241,"x_min":37,"x_max":1201,"o":"m 201 1497 l 534 1497 l 764 1063 l 475 1063 l 201 1497 m 1119 672 q 1118 632 1118 652 q 1118 595 1118 613 l 1118 490 q 1081 258 1118 355 q 980 100 1044 161 q 830 13 916 38 q 648 -12 745 -12 q 440 13 537 -12 q 272 100 344 38 q 160 258 201 162 q 119 490 119 355 l 119 672 l 37 688 l 37 955 l 567 955 l 567 688 l 486 672 l 486 591 q 486 558 486 575 q 486 528 486 542 q 486 503 486 513 q 486 489 486 492 q 487 453 486 473 q 492 410 488 432 q 507 367 497 388 q 535 328 517 345 q 580 301 553 311 q 648 290 608 290 q 717 301 689 290 q 763 329 745 311 q 791 368 781 346 q 806 411 802 389 q 811 454 810 433 q 812 490 812 475 q 812 506 812 495 q 812 530 812 516 q 812 560 812 544 q 812 591 812 576 l 812 672 l 730 688 l 730 955 l 1201 955 l 1201 688 l 1119 672 z "},"ú":{"ha":1241,"x_min":37,"x_max":1201,"o":"m 763 1063 l 475 1063 l 705 1497 l 1037 1497 l 763 1063 m 1119 672 q 1118 632 1118 652 q 1118 595 1118 613 l 1118 490 q 1081 258 1118 355 q 980 100 1044 161 q 830 13 916 38 q 648 -12 745 -12 q 440 13 537 -12 q 272 100 344 38 q 160 258 201 162 q 119 490 119 355 l 119 672 l 37 688 l 37 955 l 567 955 l 567 688 l 486 672 l 486 591 q 486 558 486 575 q 486 528 486 542 q 486 503 486 513 q 486 489 486 492 q 487 453 486 473 q 492 410 488 432 q 507 367 497 388 q 535 328 517 345 q 580 301 553 311 q 648 290 608 290 q 717 301 689 290 q 763 329 745 311 q 791 368 781 346 q 806 411 802 389 q 811 454 810 433 q 812 490 812 475 q 812 506 812 495 q 812 530 812 516 q 812 560 812 544 q 812 591 812 576 l 812 672 l 730 688 l 730 955 l 1201 955 l 1201 688 l 1119 672 z "},"û":{"ha":1241,"x_min":37,"x_max":1201,"o":"m 223 1063 l 454 1497 l 786 1497 l 1016 1063 l 728 1063 l 620 1323 l 511 1063 l 223 1063 m 1119 672 q 1118 632 1118 652 q 1118 595 1118 613 l 1118 490 q 1081 258 1118 355 q 980 100 1044 161 q 830 13 916 38 q 648 -12 745 -12 q 440 13 537 -12 q 272 100 344 38 q 160 258 201 162 q 119 490 119 355 l 119 672 l 37 688 l 37 955 l 567 955 l 567 688 l 486 672 l 486 591 q 486 558 486 575 q 486 528 486 542 q 486 503 486 513 q 486 489 486 492 q 487 453 486 473 q 492 410 488 432 q 507 367 497 388 q 535 328 517 345 q 580 301 553 311 q 648 290 608 290 q 717 301 689 290 q 763 329 745 311 q 791 368 781 346 q 806 411 802 389 q 811 454 810 433 q 812 490 812 475 q 812 506 812 495 q 812 530 812 516 q 812 560 812 544 q 812 591 812 576 l 812 672 l 730 688 l 730 955 l 1201 955 l 1201 688 l 1119 672 z "},"ü":{"ha":1241,"x_min":37,"x_max":1201,"o":"m 728 1324 l 1016 1324 l 1016 1063 l 728 1063 l 728 1324 m 511 1324 l 511 1063 l 223 1063 l 223 1324 l 511 1324 m 1119 672 q 1118 632 1118 652 q 1118 595 1118 613 l 1118 490 q 1081 258 1118 355 q 980 100 1044 161 q 830 13 916 38 q 648 -12 745 -12 q 440 13 537 -12 q 272 100 344 38 q 160 258 201 162 q 119 490 119 355 l 119 672 l 37 688 l 37 955 l 567 955 l 567 688 l 486 672 l 486 591 q 486 558 486 575 q 486 528 486 542 q 486 503 486 513 q 486 489 486 492 q 487 453 486 473 q 492 410 488 432 q 507 367 497 388 q 535 328 517 345 q 580 301 553 311 q 648 290 608 290 q 717 301 689 290 q 763 329 745 311 q 791 368 781 346 q 806 411 802 389 q 811 454 810 433 q 812 490 812 475 q 812 506 812 495 q 812 530 812 516 q 812 560 812 544 q 812 591 812 576 l 812 672 l 730 688 l 730 955 l 1201 955 l 1201 688 l 1119 672 z "},"ý":{"ha":1241,"x_min":11,"x_max":1230,"o":"m 764 1063 l 476 1063 l 706 1497 l 1038 1497 l 764 1063 m 313 0 l 313 269 l 394 290 l 114 673 l 11 688 l 11 955 l 555 955 l 555 688 l 492 673 l 621 477 l 750 673 l 686 688 l 686 955 l 1230 955 l 1230 688 l 1128 673 l 848 290 l 930 269 l 930 0 l 313 0 z "},"þ":{"ha":1136,"x_min":62,"x_max":1122,"o":"m 62 1042 l 551 1042 l 551 907 l 617 907 q 805 898 726 907 q 941 871 885 888 q 1033 827 997 853 q 1088 769 1068 802 q 1115 699 1108 737 q 1122 617 1122 661 q 1114 533 1122 572 q 1082 461 1105 494 q 1019 402 1059 428 q 915 358 979 376 q 762 330 852 340 q 551 321 673 321 l 551 286 l 633 271 l 633 0 l 62 0 l 62 271 l 143 286 l 143 759 l 62 774 l 62 1042 m 551 492 q 619 496 589 492 q 670 514 649 500 q 703 553 692 528 q 715 623 715 579 q 703 688 715 664 q 670 724 692 711 q 619 741 649 737 q 551 745 589 745 l 551 492 z "},"ÿ":{"ha":1241,"x_min":11,"x_max":1230,"o":"m 729 1324 l 1017 1324 l 1017 1063 l 729 1063 l 729 1324 m 513 1324 l 513 1063 l 224 1063 l 224 1324 l 513 1324 m 313 0 l 313 269 l 394 290 l 114 673 l 11 688 l 11 955 l 555 955 l 555 688 l 492 673 l 621 477 l 750 673 l 686 688 l 686 955 l 1230 955 l 1230 688 l 1128 673 l 848 290 l 930 269 l 930 0 l 313 0 z "},"Ă":{"ha":1205,"x_min":39,"x_max":1166,"o":"m 512 1442 q 520 1397 512 1416 q 540 1365 528 1378 q 569 1345 553 1352 q 602 1339 585 1339 q 635 1345 619 1339 q 664 1365 651 1352 q 685 1397 677 1378 q 692 1442 692 1416 l 875 1442 q 851 1309 875 1366 q 790 1215 828 1253 q 702 1159 751 1177 q 602 1140 653 1140 q 502 1159 551 1140 q 415 1215 453 1177 q 353 1309 376 1253 q 330 1442 330 1366 l 512 1442 m 781 0 l 744 175 l 460 175 l 425 0 l 39 0 l 39 342 l 122 359 l 322 1042 l 882 1042 l 1083 359 l 1166 342 l 1166 0 l 781 0 m 519 408 l 686 408 l 602 800 l 519 408 z "},"ă":{"ha":1131,"x_min":35,"x_max":1095,"o":"m 475 1365 q 483 1320 475 1339 q 503 1288 490 1301 q 532 1269 515 1275 q 565 1262 548 1262 q 598 1269 582 1262 q 627 1288 614 1275 q 647 1320 640 1301 q 655 1365 655 1339 l 838 1365 q 814 1233 838 1289 q 752 1138 791 1176 q 665 1082 714 1101 q 564 1063 616 1063 q 465 1082 513 1063 q 377 1138 416 1101 q 316 1233 339 1176 q 292 1365 292 1289 l 475 1365 m 732 0 l 699 161 l 432 161 l 398 0 l 35 0 l 35 315 l 114 330 l 302 955 l 828 955 l 1017 330 l 1095 315 l 1095 0 l 732 0 m 473 375 l 657 375 l 565 750 l 473 375 z "},"Ą":{"ha":1205,"x_min":39,"x_max":1166,"o":"m 647 -279 q 671 -347 647 -326 q 739 -368 694 -368 q 863 -342 785 -368 l 863 -557 q 774 -579 820 -572 q 690 -587 729 -587 q 585 -572 633 -587 q 503 -525 538 -557 q 449 -443 469 -492 q 430 -327 430 -394 q 437 -260 430 -293 q 457 -196 445 -227 q 484 -137 469 -165 q 516 -85 500 -109 q 603 20 553 -29 l 829 20 q 781 -31 804 -5 q 738 -82 758 -56 q 705 -129 721 -104 q 675 -179 688 -154 q 655 -230 663 -205 q 647 -279 647 -256 m 781 0 l 744 175 l 460 175 l 425 0 l 39 0 l 39 342 l 122 359 l 322 1042 l 882 1042 l 1083 359 l 1166 342 l 1166 0 l 781 0 m 519 408 l 686 408 l 602 800 l 519 408 z "},"ą":{"ha":1131,"x_min":35,"x_max":1095,"o":"m 609 -279 q 633 -347 609 -326 q 701 -368 656 -368 q 825 -342 747 -368 l 825 -557 q 736 -579 782 -572 q 652 -587 691 -587 q 547 -572 595 -587 q 465 -525 500 -557 q 411 -443 431 -492 q 392 -327 392 -394 q 399 -260 392 -293 q 419 -196 407 -227 q 446 -137 431 -165 q 478 -85 462 -109 q 565 20 515 -29 l 791 20 q 743 -31 766 -5 q 700 -82 720 -56 q 667 -129 683 -104 q 637 -179 650 -154 q 617 -230 625 -205 q 609 -279 609 -256 m 732 0 l 699 161 l 432 161 l 398 0 l 35 0 l 35 315 l 114 330 l 302 955 l 828 955 l 1017 330 l 1095 315 l 1095 0 l 732 0 m 473 375 l 657 375 l 565 750 l 473 375 z "},"Ć":{"ha":1109,"x_min":44,"x_max":1046,"o":"m 768 1140 l 480 1140 l 710 1574 l 1042 1574 l 768 1140 m 479 533 q 494 433 479 475 q 537 363 509 391 q 608 323 566 336 q 703 311 650 311 q 854 326 767 311 q 1046 374 941 342 l 1046 57 q 833 4 937 20 q 629 -12 730 -12 q 400 18 507 -12 q 214 117 293 49 q 90 289 135 185 q 44 533 44 393 q 86 769 44 670 q 204 932 127 868 q 387 1027 280 996 q 624 1057 494 1057 q 768 1049 704 1057 q 884 1029 832 1041 q 975 1001 935 1017 q 1046 972 1015 986 l 1046 660 l 842 660 q 765 732 807 709 q 677 755 722 755 q 604 740 640 755 q 541 696 568 725 q 496 627 513 668 q 479 533 479 586 z "},"ć":{"ha":1042,"x_min":41,"x_max":1004,"o":"m 730 1063 l 442 1063 l 672 1497 l 1004 1497 l 730 1063 m 450 490 q 505 333 450 382 q 661 284 560 284 q 801 299 721 284 q 983 345 882 314 l 983 50 q 591 -12 779 -12 q 374 15 475 -12 q 200 106 274 43 q 84 265 126 169 q 41 490 41 361 q 80 711 41 618 q 191 864 119 804 q 363 952 262 924 q 587 981 463 981 q 723 973 662 981 q 832 954 783 966 q 917 929 880 943 q 983 902 954 915 l 983 607 l 791 607 q 719 673 758 652 q 637 694 680 694 q 568 681 602 694 q 508 641 534 667 q 466 577 482 615 q 450 490 450 539 z "},"Č":{"ha":1109,"x_min":44,"x_max":1046,"o":"m 515 1573 l 624 1314 l 732 1573 l 1020 1573 l 790 1140 l 458 1140 l 227 1573 l 515 1573 m 479 533 q 494 433 479 475 q 537 363 509 391 q 608 323 566 336 q 703 311 650 311 q 854 326 767 311 q 1046 374 941 342 l 1046 57 q 833 4 937 20 q 629 -12 730 -12 q 400 18 507 -12 q 214 117 293 49 q 90 289 135 185 q 44 533 44 393 q 86 769 44 670 q 204 932 127 868 q 387 1027 280 996 q 624 1057 494 1057 q 768 1049 704 1057 q 884 1029 832 1041 q 975 1001 935 1017 q 1046 972 1015 986 l 1046 660 l 842 660 q 765 732 807 709 q 677 755 722 755 q 604 740 640 755 q 541 696 568 725 q 496 627 513 668 q 479 533 479 586 z "},"č":{"ha":1042,"x_min":41,"x_max":983,"o":"m 479 1497 l 587 1237 l 695 1497 l 983 1497 l 753 1063 l 421 1063 l 191 1497 l 479 1497 m 450 490 q 505 333 450 382 q 661 284 560 284 q 801 299 721 284 q 983 345 882 314 l 983 50 q 591 -12 779 -12 q 374 15 475 -12 q 200 106 274 43 q 84 265 126 169 q 41 490 41 361 q 80 711 41 618 q 191 864 119 804 q 363 952 262 924 q 587 981 463 981 q 723 973 662 981 q 832 954 783 966 q 917 929 880 943 q 983 902 954 915 l 983 607 l 791 607 q 719 673 758 652 q 637 694 680 694 q 568 681 602 694 q 508 641 534 667 q 466 577 482 615 q 450 490 450 539 z "},"Ď":{"ha":1329,"x_min":67,"x_max":1282,"o":"m 567 1573 l 675 1314 l 783 1573 l 1072 1573 l 842 1140 l 509 1140 l 279 1573 l 567 1573 m 857 1042 q 1034 981 956 1021 q 1168 880 1113 941 q 1253 732 1223 818 q 1282 533 1282 646 q 1232 281 1282 383 q 1091 117 1182 179 q 871 27 1000 54 q 588 0 743 0 l 67 0 l 67 294 l 154 311 l 154 755 l 67 772 l 67 1042 l 857 1042 m 654 311 q 766 327 727 311 q 824 372 806 343 q 845 442 842 401 q 848 533 848 483 q 845 624 848 583 q 824 694 842 665 q 766 740 806 724 q 654 755 727 755 l 588 755 l 588 311 l 654 311 z "},"ď":{"ha":1249,"x_min":64,"x_max":1764,"o":"m 1330 981 l 1764 981 l 1764 634 q 1734 489 1764 548 q 1655 394 1704 431 q 1544 342 1607 358 q 1417 327 1482 327 l 1417 547 q 1444 551 1430 547 q 1472 565 1459 555 q 1494 591 1485 574 q 1503 633 1503 608 l 1330 633 l 1330 981 m 806 955 q 972 899 899 935 q 1098 807 1046 863 q 1178 673 1150 751 q 1206 490 1206 595 q 1184 327 1206 399 q 1123 200 1163 254 q 1026 107 1084 145 q 896 45 968 69 q 738 11 824 22 q 553 0 651 0 l 64 0 l 64 271 l 145 286 l 145 695 l 64 711 l 64 955 l 806 955 m 616 286 q 692 293 661 286 q 744 312 724 300 q 775 342 764 324 q 791 383 786 361 q 797 433 796 406 q 798 490 798 460 q 797 548 798 521 q 791 598 796 575 q 775 638 786 621 q 744 669 764 656 q 692 688 724 682 q 616 695 661 695 l 553 695 l 553 286 l 616 286 z "},"Đ":{"ha":1329,"x_min":68,"x_max":1283,"o":"m 858 1042 q 1035 981 956 1021 q 1169 880 1114 941 q 1254 732 1224 818 q 1283 533 1283 646 q 1233 281 1283 383 q 1092 117 1183 179 q 872 27 1000 54 q 589 0 744 0 l 68 0 l 68 294 l 155 311 l 155 445 l 68 445 l 68 619 l 155 619 l 155 755 l 68 772 l 68 1042 l 858 1042 m 655 311 q 767 327 728 311 q 824 372 806 343 q 845 442 842 401 q 848 533 848 483 q 845 624 848 583 q 824 694 842 665 q 767 740 806 724 q 655 755 728 755 l 589 755 l 589 619 l 681 619 l 681 445 l 589 445 l 589 311 l 655 311 z "},"đ":{"ha":1249,"x_min":64,"x_max":1206,"o":"m 807 955 q 973 899 899 935 q 1099 807 1047 863 q 1179 673 1151 751 q 1206 490 1206 595 q 1185 327 1206 399 q 1124 200 1164 254 q 1027 107 1084 145 q 897 45 969 69 q 738 11 825 22 q 554 0 652 0 l 64 0 l 64 271 l 146 286 l 146 406 l 64 406 l 64 579 l 146 579 l 146 695 l 64 711 l 64 955 l 807 955 m 616 286 q 693 293 662 286 q 744 312 724 300 q 775 342 764 324 q 792 383 787 361 q 798 433 797 406 q 798 490 798 460 q 798 548 798 521 q 792 598 797 575 q 775 638 787 621 q 744 669 764 656 q 693 688 724 682 q 616 695 662 695 l 554 695 l 554 579 l 641 579 l 641 406 l 554 406 l 554 286 l 616 286 z "},"Ę":{"ha":1013,"x_min":69,"x_max":976,"o":"m 567 -279 q 591 -347 567 -326 q 659 -368 614 -368 q 783 -342 705 -368 l 783 -557 q 694 -579 740 -572 q 610 -587 649 -587 q 505 -572 553 -587 q 423 -525 458 -557 q 369 -443 389 -492 q 350 -327 350 -394 q 357 -260 350 -293 q 377 -196 365 -227 q 404 -137 389 -165 q 436 -85 420 -109 q 523 20 473 -29 l 749 20 q 701 -31 724 -5 q 658 -82 677 -56 q 625 -129 641 -104 q 595 -179 608 -154 q 575 -230 583 -205 q 567 -279 567 -256 m 590 260 q 677 268 636 260 q 752 288 718 276 q 814 316 786 300 q 863 347 842 332 l 976 347 l 976 0 l 69 0 l 69 294 l 156 311 l 156 729 l 69 746 l 69 1042 l 976 1042 l 976 694 l 867 694 q 817 725 845 709 q 753 753 788 741 q 677 773 718 766 q 590 781 637 781 l 590 596 l 793 640 l 793 400 l 590 444 l 590 260 z "},"ę":{"ha":946,"x_min":65,"x_max":903,"o":"m 415 -279 q 439 -347 415 -326 q 507 -368 463 -368 q 631 -342 553 -368 l 631 -557 q 543 -579 588 -572 q 458 -587 497 -587 q 353 -572 401 -587 q 271 -525 306 -557 q 217 -443 237 -492 q 198 -327 198 -394 q 205 -260 198 -293 q 225 -196 213 -227 q 252 -137 237 -165 q 284 -85 268 -109 q 371 20 321 -29 l 597 20 q 549 -31 572 -5 q 506 -82 526 -56 q 473 -129 489 -104 q 444 -179 456 -154 q 423 -230 431 -205 q 415 -279 415 -256 m 555 535 l 743 575 l 743 382 l 555 422 l 555 273 q 633 278 595 273 q 704 294 671 284 q 764 318 736 304 q 810 347 791 332 l 903 347 l 903 0 l 65 0 l 65 271 l 146 286 l 146 671 l 65 686 l 65 955 l 903 955 l 903 608 l 810 608 q 764 636 791 623 q 704 660 736 650 q 633 676 671 670 q 555 682 595 682 l 555 535 z "},"Ě":{"ha":1013,"x_min":69,"x_max":976,"o":"m 414 1573 l 523 1314 l 631 1573 l 919 1573 l 689 1140 l 357 1140 l 126 1573 l 414 1573 m 590 260 q 677 268 636 260 q 752 288 718 276 q 814 316 786 300 q 863 347 842 332 l 976 347 l 976 0 l 69 0 l 69 294 l 156 311 l 156 729 l 69 746 l 69 1042 l 976 1042 l 976 694 l 867 694 q 817 725 845 709 q 753 753 788 741 q 677 773 718 766 q 590 781 637 781 l 590 596 l 793 640 l 793 400 l 590 444 l 590 260 z "},"ě":{"ha":946,"x_min":65,"x_max":903,"o":"m 376 1497 l 484 1237 l 592 1497 l 880 1497 l 650 1063 l 318 1063 l 87 1497 l 376 1497 m 555 535 l 743 575 l 743 382 l 555 422 l 555 273 q 633 278 595 273 q 704 294 671 284 q 764 318 736 304 q 810 347 791 332 l 903 347 l 903 0 l 65 0 l 65 271 l 146 286 l 146 671 l 65 686 l 65 955 l 903 955 l 903 608 l 810 608 q 764 636 791 623 q 704 660 736 650 q 633 676 671 670 q 555 682 595 682 l 555 535 z "},"Ğ":{"ha":1112,"x_min":44,"x_max":1074,"o":"m 507 1442 q 514 1397 507 1416 q 535 1365 522 1378 q 564 1345 547 1352 q 597 1339 580 1339 q 630 1345 614 1339 q 659 1365 646 1352 q 679 1397 671 1378 q 687 1442 687 1416 l 869 1442 q 846 1309 869 1366 q 784 1215 823 1253 q 697 1159 746 1177 q 596 1140 648 1140 q 496 1159 545 1140 q 409 1215 448 1177 q 348 1309 371 1253 q 324 1442 324 1366 l 507 1442 m 44 533 q 85 772 44 675 q 202 932 126 870 q 372 1025 275 992 q 597 1057 470 1057 q 752 1050 684 1057 q 873 1030 820 1042 q 968 1002 926 1018 q 1046 970 1010 987 l 1046 660 l 842 660 q 765 732 807 709 q 677 755 722 755 q 604 740 640 755 q 541 696 568 725 q 496 627 513 668 q 479 533 479 586 q 532 361 479 416 q 684 307 585 307 q 733 310 708 307 q 783 318 758 313 l 783 400 l 652 400 l 652 586 l 1074 586 l 1074 91 q 961 48 1021 68 q 841 14 901 28 q 723 -6 781 -1 q 616 -12 665 -12 q 463 -1 536 -12 q 327 41 390 11 q 211 116 263 71 q 122 222 159 161 q 64 361 85 283 q 44 533 44 439 z "},"ğ":{"ha":1044,"x_min":41,"x_max":1010,"o":"m 496 1365 q 504 1320 496 1339 q 525 1288 512 1301 q 553 1269 537 1275 q 587 1262 570 1262 q 620 1269 604 1262 q 648 1288 635 1275 q 669 1320 661 1301 q 677 1365 677 1339 l 859 1365 q 836 1233 859 1289 q 774 1138 812 1176 q 687 1082 736 1101 q 586 1063 637 1063 q 486 1082 535 1063 q 399 1138 437 1101 q 337 1233 361 1176 q 314 1365 314 1289 l 496 1365 m 41 490 q 80 710 41 618 q 190 863 119 803 q 362 952 261 923 q 587 981 463 981 q 723 973 662 981 q 832 954 783 966 q 917 929 880 943 q 983 902 954 915 l 983 607 l 791 607 q 760 646 775 629 q 727 673 745 663 q 688 689 709 684 q 637 694 666 694 q 568 684 602 694 q 508 649 534 673 q 466 586 482 625 q 450 490 450 547 q 463 381 450 424 q 500 314 476 339 q 561 280 525 290 q 642 271 596 271 q 693 274 667 271 q 749 287 719 277 l 749 364 l 613 364 l 613 531 l 1010 531 l 1010 81 q 903 41 960 60 q 790 9 847 23 q 680 -8 734 -4 q 579 -12 625 -12 q 368 15 466 -12 q 197 105 269 42 q 83 264 124 168 q 41 490 41 360 z "},"İ":{"ha":746,"x_min":69,"x_max":677,"o":"m 156 1487 l 590 1487 l 590 1140 l 156 1140 l 156 1487 m 69 1042 l 677 1042 l 677 747 l 590 730 l 590 311 l 677 294 l 677 0 l 69 0 l 69 294 l 156 311 l 156 730 l 69 747 l 69 1042 z "},"ı":{"ha":703,"x_min":66,"x_max":637,"o":"m 66 955 l 637 955 l 637 688 l 555 672 l 555 286 l 637 271 l 637 0 l 66 0 l 66 271 l 147 286 l 147 672 l 66 688 l 66 955 z "},"Ĺ":{"ha":920,"x_min":69,"x_max":901,"o":"m 627 1140 l 339 1140 l 569 1574 l 901 1574 l 627 1140 m 590 260 q 651 268 623 260 q 704 288 680 276 q 748 316 728 300 q 783 347 768 332 l 897 347 l 897 0 l 69 0 l 69 294 l 156 311 l 156 730 l 69 747 l 69 1042 l 677 1042 l 677 747 l 590 730 l 590 260 z "},"ĺ":{"ha":867,"x_min":66,"x_max":842,"o":"m 496 1063 l 208 1063 l 437 1497 l 770 1497 l 496 1063 m 555 260 q 609 268 583 260 q 657 289 635 276 q 697 316 679 301 q 728 347 715 332 l 842 347 l 842 0 l 66 0 l 66 271 l 147 286 l 147 672 l 66 688 l 66 955 l 637 955 l 637 688 l 555 672 l 555 260 z "},"Ľ":{"ha":920,"x_min":69,"x_max":1455,"o":"m 1021 1057 l 1455 1057 l 1455 711 q 1425 566 1455 625 q 1346 471 1395 507 q 1235 419 1297 435 q 1107 404 1173 404 l 1107 623 q 1135 628 1120 624 q 1163 642 1150 632 q 1185 668 1176 651 q 1194 710 1194 684 l 1021 710 l 1021 1057 m 590 260 q 651 268 623 260 q 704 288 680 276 q 748 316 728 300 q 783 347 768 332 l 897 347 l 897 0 l 69 0 l 69 294 l 156 311 l 156 730 l 69 747 l 69 1042 l 677 1042 l 677 747 l 590 730 l 590 260 z "},"ľ":{"ha":867,"x_min":66,"x_max":1195,"o":"m 761 981 l 1195 981 l 1195 634 q 1165 489 1195 548 q 1086 394 1135 431 q 975 342 1038 358 q 848 327 913 327 l 848 547 q 876 551 861 547 q 903 565 890 555 q 925 591 916 574 q 934 633 934 608 l 761 633 l 761 981 m 555 260 q 609 268 583 260 q 657 289 635 276 q 697 316 679 301 q 728 347 715 332 l 842 347 l 842 0 l 66 0 l 66 271 l 147 286 l 147 672 l 66 688 l 66 955 l 637 955 l 637 688 l 555 672 l 555 260 z "},"Ł":{"ha":920,"x_min":69,"x_max":897,"o":"m 590 608 l 707 608 l 707 434 l 590 434 l 590 260 q 651 268 623 260 q 704 288 680 276 q 748 316 728 300 q 783 347 768 332 l 897 347 l 897 0 l 69 0 l 69 294 l 156 311 l 156 434 l 69 434 l 69 608 l 156 608 l 156 730 l 69 747 l 69 1042 l 677 1042 l 677 747 l 590 730 l 590 608 z "},"ł":{"ha":867,"x_min":66,"x_max":842,"o":"m 555 608 l 615 608 l 615 434 l 555 434 l 555 260 q 609 268 583 260 q 657 289 635 276 q 697 316 679 301 q 728 347 715 332 l 842 347 l 842 0 l 66 0 l 66 271 l 147 286 l 147 434 l 66 434 l 66 608 l 147 608 l 147 672 l 66 688 l 66 958 l 637 958 l 637 688 l 555 672 l 555 608 z "},"Ń":{"ha":1354,"x_min":69,"x_max":1284,"o":"m 821 1140 l 533 1140 l 763 1574 l 1095 1574 l 821 1140 m 416 508 l 416 311 l 503 295 l 503 0 l 69 0 l 69 294 l 156 311 l 156 730 l 69 747 l 69 1042 l 590 1042 l 937 508 l 937 729 l 850 747 l 850 1042 l 1284 1042 l 1284 747 l 1198 730 l 1198 311 l 1284 294 l 1284 0 l 763 0 l 416 508 z "},"ń":{"ha":1274,"x_min":66,"x_max":1208,"o":"m 781 1063 l 492 1063 l 722 1497 l 1055 1497 l 781 1063 m 392 501 l 392 286 l 474 271 l 474 0 l 66 0 l 66 271 l 147 286 l 147 672 l 66 688 l 66 955 l 555 955 l 882 440 l 882 671 l 800 688 l 800 955 l 1208 955 l 1208 688 l 1126 672 l 1126 286 l 1208 271 l 1208 0 l 718 0 l 392 501 z "},"Ň":{"ha":1354,"x_min":69,"x_max":1284,"o":"m 568 1573 l 677 1314 l 785 1573 l 1073 1573 l 843 1140 l 511 1140 l 280 1573 l 568 1573 m 416 508 l 416 311 l 503 295 l 503 0 l 69 0 l 69 294 l 156 311 l 156 730 l 69 747 l 69 1042 l 590 1042 l 937 508 l 937 729 l 850 747 l 850 1042 l 1284 1042 l 1284 747 l 1198 730 l 1198 311 l 1284 294 l 1284 0 l 763 0 l 416 508 z "},"ň":{"ha":1274,"x_min":66,"x_max":1208,"o":"m 529 1497 l 637 1237 l 745 1497 l 1034 1497 l 804 1063 l 471 1063 l 241 1497 l 529 1497 m 392 501 l 392 286 l 474 271 l 474 0 l 66 0 l 66 271 l 147 286 l 147 672 l 66 688 l 66 955 l 555 955 l 882 440 l 882 671 l 800 688 l 800 955 l 1208 955 l 1208 688 l 1126 672 l 1126 286 l 1208 271 l 1208 0 l 718 0 l 392 501 z "},"Ő":{"ha":1302,"x_min":43,"x_max":1326,"o":"m 1014 1140 l 719 1140 l 994 1574 l 1326 1574 l 1014 1140 m 561 1140 l 286 1140 l 455 1574 l 787 1574 l 561 1140 m 650 -12 q 491 -2 568 -12 q 346 36 414 8 q 223 107 279 64 q 127 213 168 151 q 65 354 87 274 q 43 533 43 433 q 65 702 43 627 q 126 836 87 777 q 221 936 165 894 q 343 1005 276 978 q 489 1044 411 1031 q 650 1057 566 1057 q 812 1044 734 1057 q 958 1004 890 1031 q 1081 935 1026 977 q 1176 835 1137 893 q 1237 702 1215 777 q 1259 533 1259 627 q 1211 282 1259 387 q 1080 111 1163 177 q 887 16 998 44 q 650 -12 777 -12 m 650 747 q 577 736 607 747 q 529 707 548 725 q 499 665 509 688 q 484 618 489 642 q 478 572 479 595 q 477 533 477 550 q 478 494 477 516 q 484 447 479 471 q 499 399 489 423 q 529 357 509 376 q 577 327 548 338 q 650 315 607 315 q 723 327 694 315 q 772 357 753 338 q 803 399 792 376 q 818 447 813 423 q 824 494 823 471 q 825 533 825 516 q 824 572 825 550 q 818 618 823 595 q 803 665 813 642 q 772 707 792 688 q 723 736 753 725 q 650 747 694 747 z "},"ő":{"ha":1223,"x_min":41,"x_max":1286,"o":"m 975 1063 l 680 1063 l 954 1497 l 1286 1497 l 975 1063 m 522 1063 l 247 1063 l 416 1497 l 748 1497 l 522 1063 m 611 -12 q 388 13 492 -12 q 207 101 283 39 q 85 259 130 163 q 41 490 41 355 q 85 716 41 623 q 207 868 130 809 q 388 954 284 926 q 611 981 492 981 q 834 954 730 981 q 1016 868 938 926 q 1138 716 1093 809 q 1183 490 1183 623 q 1162 328 1183 401 q 1105 198 1142 255 q 1016 101 1068 142 q 901 33 964 60 q 764 -3 837 6 q 611 -12 690 -12 m 611 692 q 544 682 571 692 q 498 655 516 671 q 470 618 480 639 q 455 575 460 597 q 450 531 451 553 q 449 494 449 510 q 450 457 449 478 q 454 412 450 435 q 468 366 458 389 q 495 324 477 342 q 542 295 513 306 q 611 283 570 283 q 680 294 652 283 q 726 323 708 305 q 754 363 744 341 q 769 409 764 386 q 774 453 773 431 q 775 490 775 475 q 774 528 775 507 q 769 572 773 549 q 754 615 764 594 q 726 654 744 637 q 680 681 708 671 q 611 692 652 692 z "},"Œ":{"ha":1695,"x_min":43,"x_max":1662,"o":"m 1658 0 l 872 0 q 650 -27 772 -27 q 488 -13 566 -27 q 342 30 410 1 q 220 103 275 58 q 125 210 165 148 q 65 353 86 273 q 43 533 43 433 q 65 706 43 629 q 125 843 86 783 q 220 945 165 903 q 343 1016 275 988 q 488 1056 410 1043 q 650 1069 566 1069 q 878 1042 774 1069 l 1662 1042 l 1662 667 q 1560 698 1620 684 q 1435 719 1510 709 q 1259 729 1360 729 l 1259 596 l 1458 640 l 1458 400 l 1259 444 l 1259 311 q 1400 316 1338 311 q 1509 329 1461 321 q 1593 346 1557 336 q 1658 366 1630 356 l 1658 0 m 650 747 q 577 736 607 747 q 529 707 548 725 q 499 665 509 688 q 484 618 489 642 q 478 572 479 595 q 477 533 477 550 q 478 494 477 516 q 484 447 479 471 q 499 399 489 423 q 529 357 509 376 q 577 327 548 338 q 650 315 607 315 q 712 317 686 315 q 760 321 739 318 q 795 327 780 323 q 825 334 811 330 l 825 719 q 798 729 813 724 q 762 738 783 734 q 714 745 741 742 q 650 747 686 747 z "},"œ":{"ha":1592,"x_min":41,"x_max":1557,"o":"m 1181 535 l 1369 575 l 1369 382 l 1181 422 l 1181 273 q 1262 278 1223 273 q 1334 294 1301 284 q 1396 318 1368 304 q 1444 347 1423 332 l 1557 347 l 1557 0 l 820 0 q 611 -25 724 -25 q 458 -13 532 -25 q 322 27 385 0 q 207 95 258 54 q 118 194 155 136 q 61 325 81 251 q 41 490 41 398 q 85 717 41 623 q 207 870 130 811 q 388 956 284 929 q 611 983 492 983 q 838 955 733 983 l 1557 955 l 1557 608 l 1444 608 q 1396 636 1423 623 q 1334 660 1368 650 q 1262 676 1301 670 q 1181 682 1223 682 l 1181 535 m 611 688 q 543 677 570 688 q 497 651 515 667 q 470 613 479 634 q 455 570 460 592 q 450 528 450 549 q 449 492 449 507 q 450 456 449 477 q 455 412 450 435 q 469 368 459 390 q 496 329 478 347 q 542 301 514 312 q 611 290 570 290 q 713 297 674 290 q 773 311 751 303 l 773 669 q 746 676 761 673 q 711 682 730 680 q 667 686 691 684 q 611 688 642 688 z "},"Ŕ":{"ha":1248,"x_min":69,"x_max":1197,"o":"m 509 1140 l 220 1140 l 450 1574 l 783 1574 l 509 1140 m 1197 0 l 766 0 q 724 82 745 39 q 682 172 702 125 q 644 269 661 219 q 614 372 626 319 l 590 372 l 590 0 l 69 0 l 69 294 l 156 311 l 156 730 l 69 747 l 69 1042 l 660 1042 q 863 1031 777 1042 q 1008 1000 948 1020 q 1104 951 1067 980 q 1162 886 1141 922 q 1190 807 1183 850 q 1197 715 1197 764 q 1188 627 1197 667 q 1156 554 1179 587 q 1093 493 1133 521 q 991 441 1053 466 q 1029 378 1004 414 q 1085 304 1055 342 q 1145 231 1115 267 q 1197 170 1175 195 l 1197 0 m 590 572 q 662 576 629 572 q 716 591 694 579 q 751 627 739 604 q 764 691 764 651 q 751 754 764 730 q 716 790 739 777 q 662 807 694 803 q 590 811 629 811 l 590 572 z "},"ŕ":{"ha":1175,"x_min":66,"x_max":1126,"o":"m 740 1063 l 452 1063 l 682 1497 l 1014 1497 l 740 1063 m 1126 0 l 720 0 q 681 75 701 35 q 642 158 661 115 q 606 248 623 201 q 578 342 589 294 l 555 342 l 555 0 l 66 0 l 66 271 l 147 286 l 147 672 l 66 688 l 66 955 l 621 955 q 812 945 732 955 q 948 918 892 936 q 1039 873 1004 899 q 1093 814 1074 847 q 1119 742 1112 781 q 1126 659 1126 703 q 1117 577 1126 614 q 1087 510 1109 541 q 1028 454 1065 479 q 932 406 990 429 q 968 348 944 382 q 1021 280 992 315 q 1077 212 1049 245 q 1126 157 1105 180 l 1126 0 m 555 526 q 623 530 593 526 q 674 546 653 534 q 707 583 696 559 q 719 649 719 608 q 707 714 719 690 q 674 752 696 739 q 623 769 653 765 q 555 773 593 773 l 555 526 z "},"Ř":{"ha":1248,"x_min":-32,"x_max":1197,"o":"m 256 1573 l 365 1314 l 473 1573 l 761 1573 l 531 1140 l 199 1140 l -32 1573 l 256 1573 m 1197 0 l 766 0 q 724 82 745 39 q 682 172 702 125 q 644 269 661 219 q 614 372 626 319 l 590 372 l 590 0 l 69 0 l 69 294 l 156 311 l 156 730 l 69 747 l 69 1042 l 660 1042 q 863 1031 777 1042 q 1008 1000 948 1020 q 1104 951 1067 980 q 1162 886 1141 922 q 1190 807 1183 850 q 1197 715 1197 764 q 1188 627 1197 667 q 1156 554 1179 587 q 1093 493 1133 521 q 991 441 1053 466 q 1029 378 1004 414 q 1085 304 1055 342 q 1145 231 1115 267 q 1197 170 1175 195 l 1197 0 m 590 572 q 662 576 629 572 q 716 591 694 579 q 751 627 739 604 q 764 691 764 651 q 751 754 764 730 q 716 790 739 777 q 662 807 694 803 q 590 811 629 811 l 590 572 z "},"ř":{"ha":1175,"x_min":66,"x_max":1126,"o":"m 488 1497 l 596 1237 l 704 1497 l 992 1497 l 762 1063 l 430 1063 l 199 1497 l 488 1497 m 1126 0 l 720 0 q 681 75 701 35 q 642 158 661 115 q 606 248 623 201 q 578 342 589 294 l 555 342 l 555 0 l 66 0 l 66 271 l 147 286 l 147 672 l 66 688 l 66 955 l 621 955 q 812 945 732 955 q 948 918 892 936 q 1039 873 1004 899 q 1093 814 1074 847 q 1119 742 1112 781 q 1126 659 1126 703 q 1117 577 1126 614 q 1087 510 1109 541 q 1028 454 1065 479 q 932 406 990 429 q 968 348 944 382 q 1021 280 992 315 q 1077 212 1049 245 q 1126 157 1105 180 l 1126 0 m 555 526 q 623 530 593 526 q 674 546 653 534 q 707 583 696 559 q 719 649 719 608 q 707 714 719 690 q 674 752 696 739 q 623 769 653 765 q 555 773 593 773 l 555 526 z "},"Ś":{"ha":1014,"x_min":57,"x_max":962,"o":"m 661 1140 l 373 1140 l 603 1574 l 935 1574 l 661 1140 m 962 327 q 942 208 961 260 q 890 118 924 156 q 812 55 857 81 q 716 13 768 28 q 608 -8 665 -3 q 494 -12 551 -12 q 313 -4 391 -12 q 180 26 269 1 q 66 67 107 45 l 66 335 l 270 335 q 350 263 305 286 q 441 240 394 240 q 468 242 453 240 q 496 254 483 244 q 518 283 509 263 q 528 340 528 304 q 412 356 469 346 q 302 384 355 366 q 205 428 250 401 q 127 493 160 455 q 76 582 94 531 q 57 701 57 633 q 76 827 57 772 q 128 921 95 882 q 205 987 161 961 q 301 1029 250 1013 q 407 1048 352 1044 q 517 1053 463 1053 q 662 1047 597 1053 q 777 1029 726 1041 q 868 1001 829 1017 q 939 972 908 986 l 939 707 l 735 707 q 658 779 701 756 q 571 802 616 802 q 543 799 559 802 q 514 785 528 796 q 491 752 500 774 q 481 694 481 731 q 690 669 600 690 q 841 603 781 647 q 931 491 901 559 q 962 327 962 423 z "},"ś":{"ha":941,"x_min":46,"x_max":897,"o":"m 623 1063 l 335 1063 l 565 1497 l 897 1497 l 623 1063 m 897 300 q 879 189 897 237 q 830 105 861 140 q 756 45 799 69 q 665 7 714 22 q 563 -10 616 -7 q 457 -12 510 -12 q 325 -9 384 -12 q 219 6 266 -5 q 137 32 173 18 q 75 59 102 45 l 75 294 l 267 294 q 332 229 295 250 q 407 208 368 208 q 433 210 418 208 q 459 222 447 212 q 480 256 471 233 q 488 320 488 279 q 379 334 433 325 q 276 359 326 343 q 185 398 227 374 q 112 457 143 422 q 64 537 81 491 q 46 644 46 584 q 64 765 46 713 q 112 854 81 817 q 184 916 142 892 q 274 955 226 941 q 374 975 322 969 q 479 981 427 981 q 611 973 553 981 q 716 954 670 966 q 799 929 763 943 q 862 902 834 915 l 862 665 l 656 665 q 597 736 631 713 q 530 758 564 758 q 503 754 518 758 q 475 738 488 751 q 454 700 463 725 q 445 632 445 675 q 641 608 557 628 q 783 550 726 589 q 868 449 840 511 q 897 300 897 388 z "},"Ş":{"ha":1014,"x_min":57,"x_max":962,"o":"m 650 -378 q 643 -341 650 -357 q 625 -313 636 -324 q 598 -296 613 -302 q 569 -290 584 -290 q 533 -299 551 -290 q 503 -328 516 -309 l 420 -328 l 420 8 l 570 8 l 570 -166 l 577 -166 q 584 -166 581 -166 q 591 -165 587 -165 q 688 -178 644 -165 q 762 -216 731 -191 q 809 -282 793 -242 q 826 -378 826 -323 q 808 -477 826 -435 q 758 -546 789 -519 q 682 -587 726 -574 q 588 -600 639 -600 q 506 -593 549 -600 q 420 -570 463 -585 l 420 -441 q 498 -461 463 -454 q 557 -467 534 -467 q 626 -446 602 -467 q 650 -378 650 -425 m 962 327 q 942 208 961 260 q 890 118 924 156 q 812 55 857 81 q 716 13 768 28 q 608 -8 665 -3 q 494 -12 551 -12 q 313 -4 391 -12 q 180 26 269 1 q 66 67 107 45 l 66 335 l 270 335 q 350 263 305 286 q 441 240 394 240 q 468 242 453 240 q 496 254 483 244 q 518 283 509 263 q 528 340 528 304 q 412 356 469 346 q 302 384 355 366 q 205 428 250 401 q 127 493 160 455 q 76 582 94 531 q 57 701 57 633 q 76 827 57 772 q 128 921 95 882 q 205 987 161 961 q 301 1029 250 1013 q 407 1048 352 1044 q 517 1053 463 1053 q 662 1047 597 1053 q 777 1029 726 1041 q 868 1001 829 1017 q 939 972 908 986 l 939 707 l 735 707 q 658 779 701 756 q 571 802 616 802 q 543 799 559 802 q 514 785 528 796 q 491 752 500 774 q 481 694 481 731 q 690 669 600 690 q 841 603 781 647 q 931 491 901 559 q 962 327 962 423 z "},"ş":{"ha":941,"x_min":46,"x_max":897,"o":"m 612 -378 q 605 -341 612 -357 q 587 -313 598 -324 q 561 -296 575 -302 q 531 -290 546 -290 q 495 -299 513 -290 q 465 -328 478 -309 l 382 -328 l 382 8 l 532 8 l 532 -166 l 539 -166 q 546 -166 543 -166 q 553 -165 549 -165 q 650 -178 606 -165 q 724 -216 693 -191 q 771 -282 755 -242 q 788 -378 788 -323 q 770 -477 788 -435 q 720 -546 751 -519 q 644 -587 688 -574 q 550 -600 601 -600 q 468 -593 511 -600 q 382 -570 425 -585 l 382 -441 q 460 -461 425 -454 q 519 -467 496 -467 q 588 -446 564 -467 q 612 -378 612 -425 m 897 300 q 879 189 897 237 q 830 105 861 140 q 756 45 799 69 q 665 7 714 22 q 563 -10 616 -7 q 457 -12 510 -12 q 325 -9 384 -12 q 219 6 266 -5 q 137 32 173 18 q 75 59 102 45 l 75 294 l 267 294 q 332 229 295 250 q 407 208 368 208 q 433 210 418 208 q 459 222 447 212 q 480 256 471 233 q 488 320 488 279 q 379 334 433 325 q 276 359 326 343 q 185 398 227 374 q 112 457 143 422 q 64 537 81 491 q 46 644 46 584 q 64 765 46 713 q 112 854 81 817 q 184 916 142 892 q 274 955 226 941 q 374 975 322 969 q 479 981 427 981 q 611 973 553 981 q 716 954 670 966 q 799 929 763 943 q 862 902 834 915 l 862 665 l 656 665 q 597 736 631 713 q 530 758 564 758 q 503 754 518 758 q 475 738 488 751 q 454 700 463 725 q 445 632 445 675 q 641 608 557 628 q 783 550 726 589 q 868 449 840 511 q 897 300 897 388 z "},"Š":{"ha":1014,"x_min":57,"x_max":962,"o":"m 410 1573 l 518 1314 l 626 1573 l 914 1573 l 684 1140 l 352 1140 l 121 1573 l 410 1573 m 962 327 q 942 208 961 260 q 890 118 924 156 q 812 55 857 81 q 716 13 768 28 q 608 -8 665 -3 q 494 -12 551 -12 q 313 -4 391 -12 q 180 26 269 1 q 66 67 107 45 l 66 335 l 270 335 q 350 263 305 286 q 441 240 394 240 q 468 242 453 240 q 496 254 483 244 q 518 283 509 263 q 528 340 528 304 q 412 356 469 346 q 302 384 355 366 q 205 428 250 401 q 127 493 160 455 q 76 582 94 531 q 57 701 57 633 q 76 827 57 772 q 128 921 95 882 q 205 987 161 961 q 301 1029 250 1013 q 407 1048 352 1044 q 517 1053 463 1053 q 662 1047 597 1053 q 777 1029 726 1041 q 868 1001 829 1017 q 939 972 908 986 l 939 707 l 735 707 q 658 779 701 756 q 571 802 616 802 q 543 799 559 802 q 514 785 528 796 q 491 752 500 774 q 481 694 481 731 q 690 669 600 690 q 841 603 781 647 q 931 491 901 559 q 962 327 962 423 z "},"š":{"ha":941,"x_min":46,"x_max":897,"o":"m 370 1497 l 479 1237 l 587 1497 l 875 1497 l 645 1063 l 313 1063 l 82 1497 l 370 1497 m 897 300 q 879 189 897 237 q 830 105 861 140 q 756 45 799 69 q 665 7 714 22 q 563 -10 616 -7 q 457 -12 510 -12 q 325 -9 384 -12 q 219 6 266 -5 q 137 32 173 18 q 75 59 102 45 l 75 294 l 267 294 q 332 229 295 250 q 407 208 368 208 q 433 210 418 208 q 459 222 447 212 q 480 256 471 233 q 488 320 488 279 q 379 334 433 325 q 276 359 326 343 q 185 398 227 374 q 112 457 143 422 q 64 537 81 491 q 46 644 46 584 q 64 765 46 713 q 112 854 81 817 q 184 916 142 892 q 274 955 226 941 q 374 975 322 969 q 479 981 427 981 q 611 973 553 981 q 716 954 670 966 q 799 929 763 943 q 862 902 834 915 l 862 665 l 656 665 q 597 736 631 713 q 530 758 564 758 q 503 754 518 758 q 475 738 488 751 q 454 700 463 725 q 445 632 445 675 q 641 608 557 628 q 783 550 726 589 q 868 449 840 511 q 897 300 897 388 z "},"Ţ":{"ha":1004,"x_min":24,"x_max":979,"o":"m 656 -366 q 650 -329 656 -345 q 631 -301 643 -312 q 605 -283 620 -290 q 576 -277 591 -277 q 540 -287 557 -277 q 509 -316 523 -296 l 427 -316 l 427 20 l 576 20 l 576 -154 l 584 -154 q 591 -154 587 -154 q 597 -153 594 -153 q 694 -166 651 -153 q 769 -204 738 -178 q 816 -270 800 -230 q 833 -366 833 -311 q 814 -465 833 -423 q 764 -534 796 -507 q 689 -575 732 -562 q 595 -588 646 -588 q 513 -581 555 -588 q 427 -558 470 -573 l 427 -429 q 505 -449 469 -442 q 564 -455 541 -455 q 633 -434 609 -455 q 656 -366 656 -413 m 979 1042 l 979 694 l 865 694 q 839 725 854 709 q 806 753 824 741 q 766 773 787 766 q 719 781 744 781 l 719 311 l 806 294 l 806 0 l 198 0 l 198 294 l 285 311 l 285 781 q 238 773 260 781 q 198 753 216 766 q 165 725 180 741 q 138 694 150 709 l 24 694 l 24 1042 l 979 1042 z "},"ţ":{"ha":979,"x_min":27,"x_max":952,"o":"m 644 -366 q 637 -329 644 -345 q 619 -301 631 -312 q 593 -283 608 -290 q 564 -277 578 -277 q 528 -287 545 -277 q 497 -316 511 -296 l 414 -316 l 414 20 l 564 20 l 564 -154 l 572 -154 q 578 -154 575 -154 q 585 -153 582 -153 q 682 -166 639 -153 q 756 -204 726 -178 q 804 -270 787 -230 q 821 -366 821 -311 q 802 -465 821 -423 q 752 -534 784 -507 q 677 -575 720 -562 q 583 -588 633 -588 q 500 -581 543 -588 q 414 -558 458 -573 l 414 -429 q 493 -449 457 -442 q 552 -455 528 -455 q 621 -434 597 -455 q 644 -366 644 -413 m 286 703 q 223 693 250 703 q 178 669 196 684 q 150 638 159 655 q 140 608 140 622 l 27 608 l 27 955 l 952 955 l 952 608 l 839 608 q 829 638 839 622 q 802 669 820 655 q 756 693 783 684 q 694 703 729 703 l 694 286 l 775 271 l 775 0 l 204 0 l 204 271 l 286 286 l 286 703 z "},"Ť":{"ha":1004,"x_min":24,"x_max":979,"o":"m 393 1573 l 502 1314 l 610 1573 l 898 1573 l 668 1140 l 336 1140 l 105 1573 l 393 1573 m 979 1042 l 979 694 l 865 694 q 839 725 854 709 q 806 753 824 741 q 766 773 787 766 q 719 781 744 781 l 719 311 l 806 294 l 806 0 l 198 0 l 198 294 l 285 311 l 285 781 q 238 773 260 781 q 198 753 216 766 q 165 725 180 741 q 138 694 150 709 l 24 694 l 24 1042 l 979 1042 z "},"ť":{"ha":979,"x_min":27,"x_max":1510,"o":"m 1076 981 l 1510 981 l 1510 634 q 1480 489 1510 548 q 1402 394 1451 431 q 1291 342 1353 358 q 1163 327 1228 327 l 1163 547 q 1191 551 1176 547 q 1219 565 1206 555 q 1240 591 1232 574 q 1249 633 1249 608 l 1076 633 l 1076 981 m 286 703 q 223 693 250 703 q 178 669 196 684 q 150 638 159 655 q 140 608 140 622 l 27 608 l 27 955 l 952 955 l 952 608 l 839 608 q 829 638 839 622 q 802 669 820 655 q 756 693 783 684 q 694 703 729 703 l 694 286 l 775 271 l 775 0 l 204 0 l 204 271 l 286 286 l 286 703 z "},"Ů":{"ha":1322,"x_min":41,"x_max":1279,"o":"m 932 1404 q 909 1289 932 1338 q 847 1206 886 1239 q 760 1157 809 1173 q 659 1140 711 1140 q 559 1157 608 1140 q 472 1206 511 1173 q 411 1289 434 1239 q 387 1404 387 1338 q 411 1519 387 1470 q 472 1601 434 1568 q 559 1650 510 1634 q 659 1666 608 1666 q 759 1650 710 1666 q 847 1601 808 1634 q 909 1519 886 1568 q 932 1404 932 1470 m 777 1401 q 767 1458 777 1434 q 740 1500 757 1483 q 703 1525 724 1516 q 659 1533 682 1533 q 616 1525 637 1533 q 579 1500 595 1517 q 553 1459 563 1484 q 543 1401 543 1434 q 553 1342 543 1367 q 579 1301 563 1318 q 616 1276 595 1284 q 660 1267 637 1267 q 703 1276 682 1267 q 741 1301 724 1284 q 767 1343 757 1318 q 777 1401 777 1368 m 1192 730 q 1192 688 1192 709 q 1192 648 1192 667 l 1192 533 q 1153 285 1192 389 q 1046 114 1114 181 q 888 17 979 46 q 696 -12 798 -12 q 544 -2 617 -12 q 408 38 471 9 q 294 111 345 66 q 205 217 242 155 q 148 357 168 278 q 128 533 128 435 l 128 730 l 41 747 l 41 1042 l 605 1042 l 605 747 l 518 730 l 518 643 q 518 609 518 626 q 518 576 518 591 q 519 550 519 562 q 519 533 519 538 q 519 494 519 516 q 525 447 520 471 q 541 399 530 423 q 570 357 551 376 q 619 327 589 338 q 692 315 648 315 q 765 327 735 315 q 814 357 794 338 q 844 399 833 376 q 859 447 854 423 q 865 494 864 471 q 866 533 866 516 q 866 550 866 538 q 866 576 866 562 q 865 609 865 591 q 865 643 865 626 l 865 730 l 779 747 l 779 1042 l 1279 1042 l 1279 747 l 1192 730 z "},"ů":{"ha":1241,"x_min":37,"x_max":1201,"o":"m 892 1328 q 868 1212 892 1261 q 807 1129 845 1162 q 719 1080 768 1097 q 618 1063 670 1063 q 519 1080 568 1063 q 432 1129 470 1097 q 370 1212 393 1162 q 347 1328 347 1261 q 370 1442 347 1393 q 431 1524 393 1491 q 518 1573 469 1557 q 618 1590 568 1590 q 719 1573 669 1590 q 806 1524 768 1557 q 868 1442 845 1491 q 892 1328 892 1393 m 736 1324 q 726 1382 736 1357 q 700 1423 716 1407 q 662 1448 683 1440 q 618 1457 641 1457 q 576 1449 597 1457 q 538 1424 555 1440 q 512 1382 522 1407 q 502 1324 502 1358 q 512 1266 502 1291 q 538 1224 522 1241 q 576 1199 555 1207 q 619 1191 597 1191 q 663 1199 642 1191 q 700 1224 684 1208 q 726 1266 716 1241 q 736 1324 736 1291 m 1119 672 q 1118 632 1118 652 q 1118 595 1118 613 l 1118 490 q 1081 258 1118 355 q 980 100 1044 161 q 830 13 916 38 q 648 -12 745 -12 q 440 13 537 -12 q 272 100 344 38 q 160 258 201 162 q 119 490 119 355 l 119 672 l 37 688 l 37 955 l 567 955 l 567 688 l 486 672 l 486 591 q 486 558 486 575 q 486 528 486 542 q 486 503 486 513 q 486 489 486 492 q 487 453 486 473 q 492 410 488 432 q 507 367 497 388 q 535 328 517 345 q 580 301 553 311 q 648 290 608 290 q 717 301 689 290 q 763 329 745 311 q 791 368 781 346 q 806 411 802 389 q 811 454 810 433 q 812 490 812 475 q 812 506 812 495 q 812 530 812 516 q 812 560 812 544 q 812 591 812 576 l 812 672 l 730 688 l 730 955 l 1201 955 l 1201 688 l 1119 672 z "},"Ű":{"ha":1322,"x_min":41,"x_max":1336,"o":"m 1024 1140 l 729 1140 l 1004 1574 l 1336 1574 l 1024 1140 m 571 1140 l 296 1140 l 465 1574 l 798 1574 l 571 1140 m 1192 730 q 1192 688 1192 709 q 1192 648 1192 667 l 1192 533 q 1153 285 1192 389 q 1046 114 1114 181 q 888 17 979 46 q 696 -12 798 -12 q 544 -2 617 -12 q 408 38 471 9 q 294 111 345 66 q 205 217 242 155 q 148 357 168 278 q 128 533 128 435 l 128 730 l 41 747 l 41 1042 l 605 1042 l 605 747 l 518 730 l 518 643 q 518 609 518 626 q 518 576 518 591 q 519 550 519 562 q 519 533 519 538 q 519 494 519 516 q 525 447 520 471 q 541 399 530 423 q 570 357 551 376 q 619 327 589 338 q 692 315 648 315 q 765 327 735 315 q 814 357 794 338 q 844 399 833 376 q 859 447 854 423 q 865 494 864 471 q 866 533 866 516 q 866 550 866 538 q 866 576 866 562 q 865 609 865 591 q 865 643 865 626 l 865 730 l 779 747 l 779 1042 l 1279 1042 l 1279 747 l 1192 730 z "},"ű":{"ha":1241,"x_min":37,"x_max":1295,"o":"m 983 1063 l 688 1063 l 962 1497 l 1295 1497 l 983 1063 m 530 1063 l 255 1063 l 424 1497 l 756 1497 l 530 1063 m 1119 672 q 1118 632 1118 652 q 1118 595 1118 613 l 1118 490 q 1081 258 1118 355 q 980 100 1044 161 q 830 13 916 38 q 648 -12 745 -12 q 440 13 537 -12 q 272 100 344 38 q 160 258 201 162 q 119 490 119 355 l 119 672 l 37 688 l 37 955 l 567 955 l 567 688 l 486 672 l 486 591 q 486 558 486 575 q 486 528 486 542 q 486 503 486 513 q 486 489 486 492 q 487 453 486 473 q 492 410 488 432 q 507 367 497 388 q 535 328 517 345 q 580 301 553 311 q 648 290 608 290 q 717 301 689 290 q 763 329 745 311 q 791 368 781 346 q 806 411 802 389 q 811 454 810 433 q 812 490 812 475 q 812 506 812 495 q 812 530 812 516 q 812 560 812 544 q 812 591 812 576 l 812 672 l 730 688 l 730 955 l 1201 955 l 1201 688 l 1119 672 z "},"Ÿ":{"ha":1318,"x_min":10,"x_max":1308,"o":"m 767 1400 l 1055 1400 l 1055 1140 l 767 1140 l 767 1400 m 551 1400 l 551 1140 l 262 1140 l 262 1400 l 551 1400 m 331 0 l 331 293 l 418 315 l 120 731 l 10 747 l 10 1042 l 589 1042 l 589 747 l 522 731 l 659 518 l 797 731 l 729 747 l 729 1042 l 1308 1042 l 1308 747 l 1198 731 l 901 315 l 987 293 l 987 0 l 331 0 z "},"Ź":{"ha":911,"x_min":18,"x_max":880,"o":"m 606 1140 l 317 1140 l 547 1574 l 880 1574 l 606 1140 m 18 0 l 18 260 l 401 781 q 328 773 362 781 q 266 753 294 766 q 213 725 237 741 q 172 694 189 709 l 58 694 l 58 1042 l 865 1042 l 865 761 l 523 273 q 556 271 540 271 q 617 277 588 271 q 670 295 646 284 q 715 320 694 307 q 751 347 735 334 l 865 347 l 865 0 l 18 0 z "},"ź":{"ha":842,"x_min":20,"x_max":844,"o":"m 570 1063 l 282 1063 l 512 1497 l 844 1497 l 570 1063 m 20 0 l 20 239 l 371 715 q 304 708 335 715 q 246 690 273 701 q 198 664 220 678 q 161 636 177 650 l 56 636 l 56 955 l 795 955 l 795 697 l 483 250 q 513 248 498 248 q 568 254 542 248 q 617 271 595 260 q 658 293 640 281 q 691 318 677 306 l 795 318 l 795 0 l 20 0 z "},"Ż":{"ha":911,"x_min":18,"x_max":865,"o":"m 244 1487 l 678 1487 l 678 1140 l 244 1140 l 244 1487 m 18 0 l 18 260 l 401 781 q 328 773 362 781 q 266 753 294 766 q 213 725 237 741 q 172 694 189 709 l 58 694 l 58 1042 l 865 1042 l 865 761 l 523 273 q 556 271 540 271 q 617 277 588 271 q 670 295 646 284 q 715 320 694 307 q 751 347 735 334 l 865 347 l 865 0 l 18 0 z "},"ż":{"ha":842,"x_min":20,"x_max":795,"o":"m 209 1411 l 643 1411 l 643 1063 l 209 1063 l 209 1411 m 20 0 l 20 239 l 371 715 q 304 708 335 715 q 246 690 273 701 q 198 664 220 678 q 161 636 177 650 l 56 636 l 56 955 l 795 955 l 795 697 l 483 250 q 513 248 498 248 q 568 254 542 248 q 617 271 595 260 q 658 293 640 281 q 691 318 677 306 l 795 318 l 795 0 l 20 0 z "},"Ž":{"ha":911,"x_min":18,"x_max":865,"o":"m 353 1573 l 461 1314 l 569 1573 l 857 1573 l 627 1140 l 295 1140 l 64 1573 l 353 1573 m 18 0 l 18 260 l 401 781 q 328 773 362 781 q 266 753 294 766 q 213 725 237 741 q 172 694 189 709 l 58 694 l 58 1042 l 865 1042 l 865 761 l 523 273 q 556 271 540 271 q 617 277 588 271 q 670 295 646 284 q 715 320 694 307 q 751 347 735 334 l 865 347 l 865 0 l 18 0 z "},"ž":{"ha":842,"x_min":20,"x_max":822,"o":"m 317 1497 l 426 1237 l 534 1497 l 822 1497 l 592 1063 l 260 1063 l 29 1497 l 317 1497 m 20 0 l 20 239 l 371 715 q 304 708 335 715 q 246 690 273 701 q 198 664 220 678 q 161 636 177 650 l 56 636 l 56 955 l 795 955 l 795 697 l 483 250 q 513 248 498 248 q 568 254 542 248 q 617 271 595 260 q 658 293 640 281 q 691 318 677 306 l 795 318 l 795 0 l 20 0 z "},"ƒ":{"ha":935,"x_min":4,"x_max":942,"o":"m 277 548 l 119 548 l 133 675 l 277 675 q 286 785 278 732 q 310 884 293 838 q 354 968 326 930 q 422 1033 381 1006 q 520 1074 464 1059 q 652 1088 577 1088 q 764 1074 711 1088 q 857 1025 817 1059 q 919 932 896 990 q 942 789 942 875 q 942 778 942 784 q 941 767 941 772 l 726 767 q 730 784 728 772 q 732 810 732 796 q 730 831 732 821 q 726 851 729 842 q 717 865 722 860 q 703 871 711 871 q 684 851 693 871 q 675 780 675 831 l 675 675 l 844 675 l 831 548 l 675 548 l 675 279 q 652 137 675 204 q 582 21 628 71 q 468 -58 536 -29 q 311 -87 399 -87 q 196 -71 252 -87 q 98 -24 141 -55 q 30 52 56 7 q 4 155 4 97 q 18 245 4 197 l 231 245 q 229 227 231 241 q 228 198 228 214 q 229 179 228 189 q 232 162 230 170 q 239 150 235 155 q 250 145 243 145 q 260 152 255 145 q 268 173 264 158 q 274 214 272 189 q 277 277 277 239 l 277 548 z "},"Ȁ":{"ha":1205,"x_min":-3,"x_max":1166,"o":"m 439 1574 l 771 1574 l 933 1140 l 645 1140 l 439 1574 m -3 1574 l 330 1574 l 559 1140 l 271 1140 l -3 1574 m 781 0 l 744 175 l 460 175 l 425 0 l 39 0 l 39 342 l 122 359 l 322 1042 l 882 1042 l 1083 359 l 1166 342 l 1166 0 l 781 0 m 519 408 l 686 408 l 602 800 l 519 408 z "},"ȁ":{"ha":1131,"x_min":-40,"x_max":1095,"o":"m 401 1497 l 734 1497 l 896 1063 l 608 1063 l 401 1497 m -40 1497 l 292 1497 l 522 1063 l 234 1063 l -40 1497 m 732 0 l 699 161 l 432 161 l 398 0 l 35 0 l 35 315 l 114 330 l 302 955 l 828 955 l 1017 330 l 1095 315 l 1095 0 l 732 0 m 473 375 l 657 375 l 565 750 l 473 375 z "},"Ȃ":{"ha":1205,"x_min":39,"x_max":1166,"o":"m 330 1140 q 353 1273 330 1216 q 415 1367 376 1329 q 502 1423 453 1404 q 602 1442 551 1442 q 702 1423 653 1442 q 790 1367 751 1404 q 851 1273 828 1329 q 875 1140 875 1216 l 692 1140 q 685 1184 692 1165 q 664 1217 677 1204 q 635 1237 651 1230 q 602 1243 619 1243 q 569 1237 585 1243 q 540 1217 553 1230 q 520 1184 528 1204 q 512 1140 512 1165 l 330 1140 m 781 0 l 744 175 l 460 175 l 425 0 l 39 0 l 39 342 l 122 359 l 322 1042 l 882 1042 l 1083 359 l 1166 342 l 1166 0 l 781 0 m 519 408 l 686 408 l 602 800 l 519 408 z "},"ȃ":{"ha":1131,"x_min":35,"x_max":1095,"o":"m 292 1063 q 316 1196 292 1139 q 377 1290 339 1253 q 465 1347 416 1328 q 564 1365 513 1365 q 665 1347 616 1365 q 752 1290 714 1328 q 814 1196 791 1253 q 838 1063 838 1139 l 655 1063 q 647 1108 655 1088 q 627 1140 640 1127 q 598 1160 614 1154 q 565 1166 582 1166 q 532 1160 548 1166 q 503 1140 515 1154 q 483 1108 490 1127 q 475 1063 475 1088 l 292 1063 m 732 0 l 699 161 l 432 161 l 398 0 l 35 0 l 35 315 l 114 330 l 302 955 l 828 955 l 1017 330 l 1095 315 l 1095 0 l 732 0 m 473 375 l 657 375 l 565 750 l 473 375 z "},"Ȅ":{"ha":1013,"x_min":-83,"x_max":976,"o":"m 359 1574 l 691 1574 l 853 1140 l 565 1140 l 359 1574 m -83 1574 l 250 1574 l 479 1140 l 191 1140 l -83 1574 m 590 260 q 677 268 636 260 q 752 288 718 276 q 814 316 786 300 q 863 347 842 332 l 976 347 l 976 0 l 69 0 l 69 294 l 156 311 l 156 729 l 69 746 l 69 1042 l 976 1042 l 976 694 l 867 694 q 817 725 845 709 q 753 753 788 741 q 677 773 718 766 q 590 781 637 781 l 590 596 l 793 640 l 793 400 l 590 444 l 590 260 z "},"ȅ":{"ha":946,"x_min":-121,"x_max":903,"o":"m 321 1497 l 653 1497 l 815 1063 l 527 1063 l 321 1497 m -121 1497 l 212 1497 l 441 1063 l 153 1063 l -121 1497 m 555 535 l 743 575 l 743 382 l 555 422 l 555 273 q 633 278 595 273 q 704 294 671 284 q 764 318 736 304 q 810 347 791 332 l 903 347 l 903 0 l 65 0 l 65 271 l 146 286 l 146 671 l 65 686 l 65 955 l 903 955 l 903 608 l 810 608 q 764 636 791 623 q 704 660 736 650 q 633 676 671 670 q 555 682 595 682 l 555 535 z "},"Ȇ":{"ha":1013,"x_min":69,"x_max":976,"o":"m 250 1140 q 274 1273 250 1216 q 335 1367 297 1329 q 422 1423 374 1404 q 522 1442 471 1442 q 623 1423 574 1442 q 710 1367 672 1404 q 772 1273 749 1329 q 795 1140 795 1216 l 613 1140 q 605 1184 613 1165 q 585 1217 597 1204 q 556 1237 572 1230 q 523 1243 540 1243 q 490 1237 506 1243 q 461 1217 473 1230 q 440 1184 448 1204 q 433 1140 433 1165 l 250 1140 m 590 260 q 677 268 636 260 q 752 288 718 276 q 814 316 786 300 q 863 347 842 332 l 976 347 l 976 0 l 69 0 l 69 294 l 156 311 l 156 729 l 69 746 l 69 1042 l 976 1042 l 976 694 l 867 694 q 817 725 845 709 q 753 753 788 741 q 677 773 718 766 q 590 781 637 781 l 590 596 l 793 640 l 793 400 l 590 444 l 590 260 z "},"ȇ":{"ha":946,"x_min":65,"x_max":903,"o":"m 212 1063 q 235 1196 212 1139 q 297 1290 258 1253 q 384 1347 335 1328 q 484 1365 433 1365 q 584 1347 535 1365 q 672 1290 633 1328 q 733 1196 710 1253 q 757 1063 757 1139 l 574 1063 q 567 1108 574 1088 q 546 1140 559 1127 q 517 1160 533 1154 q 484 1166 501 1166 q 451 1160 467 1166 q 422 1140 435 1154 q 402 1108 410 1127 q 394 1063 394 1088 l 212 1063 m 555 535 l 743 575 l 743 382 l 555 422 l 555 273 q 633 278 595 273 q 704 294 671 284 q 764 318 736 304 q 810 347 791 332 l 903 347 l 903 0 l 65 0 l 65 271 l 146 286 l 146 671 l 65 686 l 65 955 l 903 955 l 903 608 l 810 608 q 764 636 791 623 q 704 660 736 650 q 633 676 671 670 q 555 682 595 682 l 555 535 z "},"Ȉ":{"ha":746,"x_min":-232,"x_max":704,"o":"m 210 1574 l 542 1574 l 704 1140 l 416 1140 l 210 1574 m -232 1574 l 100 1574 l 330 1140 l 42 1140 l -232 1574 m 69 1042 l 677 1042 l 677 747 l 590 730 l 590 311 l 677 294 l 677 0 l 69 0 l 69 294 l 156 311 l 156 730 l 69 747 l 69 1042 z "},"ȉ":{"ha":703,"x_min":-254,"x_max":682,"o":"m 188 1497 l 520 1497 l 682 1063 l 394 1063 l 188 1497 m -254 1497 l 79 1497 l 309 1063 l 20 1063 l -254 1497 m 66 955 l 637 955 l 637 688 l 555 672 l 555 286 l 637 271 l 637 0 l 66 0 l 66 271 l 147 286 l 147 672 l 66 688 l 66 955 z "},"Ȋ":{"ha":746,"x_min":69,"x_max":677,"o":"m 100 1140 q 124 1273 100 1216 q 185 1367 147 1329 q 273 1423 224 1404 q 372 1442 321 1442 q 473 1423 424 1442 q 561 1367 522 1404 q 622 1273 599 1329 q 646 1140 646 1216 l 463 1140 q 455 1184 463 1165 q 435 1217 448 1204 q 406 1237 422 1230 q 373 1243 390 1243 q 340 1237 356 1243 q 311 1217 323 1230 q 291 1184 298 1204 q 283 1140 283 1165 l 100 1140 m 69 1042 l 677 1042 l 677 747 l 590 730 l 590 311 l 677 294 l 677 0 l 69 0 l 69 294 l 156 311 l 156 730 l 69 747 l 69 1042 z "},"ȋ":{"ha":703,"x_min":66,"x_max":637,"o":"m 79 1063 q 102 1196 79 1139 q 164 1290 125 1253 q 251 1347 202 1328 q 351 1365 300 1365 q 451 1347 402 1365 q 539 1290 500 1328 q 601 1196 577 1253 q 624 1063 624 1139 l 441 1063 q 434 1108 441 1088 q 413 1140 426 1127 q 384 1160 400 1154 q 351 1166 368 1166 q 318 1160 334 1166 q 289 1140 302 1154 q 269 1108 277 1127 q 261 1063 261 1088 l 79 1063 m 66 955 l 637 955 l 637 688 l 555 672 l 555 286 l 637 271 l 637 0 l 66 0 l 66 271 l 147 286 l 147 672 l 66 688 l 66 955 z "},"Ȍ":{"ha":1302,"x_min":43,"x_max":1259,"o":"m 487 1574 l 819 1574 l 981 1140 l 693 1140 l 487 1574 m 45 1574 l 378 1574 l 608 1140 l 319 1140 l 45 1574 m 650 -12 q 491 -2 568 -12 q 346 36 414 8 q 223 107 279 64 q 127 213 168 151 q 65 354 87 274 q 43 533 43 433 q 65 702 43 627 q 126 836 87 777 q 221 936 165 894 q 343 1005 276 978 q 489 1044 411 1031 q 650 1057 566 1057 q 812 1044 734 1057 q 958 1004 890 1031 q 1081 935 1026 977 q 1176 835 1137 893 q 1237 702 1215 777 q 1259 533 1259 627 q 1211 282 1259 387 q 1080 111 1163 177 q 887 16 998 44 q 650 -12 777 -12 m 650 747 q 577 736 607 747 q 529 707 548 725 q 499 665 509 688 q 484 618 489 642 q 478 572 479 595 q 477 533 477 550 q 478 494 477 516 q 484 447 479 471 q 499 399 489 423 q 529 357 509 376 q 577 327 548 338 q 650 315 607 315 q 723 327 694 315 q 772 357 753 338 q 803 399 792 376 q 818 447 813 423 q 824 494 823 471 q 825 533 825 516 q 824 572 825 550 q 818 618 823 595 q 803 665 813 642 q 772 707 792 688 q 723 736 753 725 q 650 747 694 747 z "},"ȍ":{"ha":1223,"x_min":6,"x_max":1183,"o":"m 448 1497 l 780 1497 l 942 1063 l 654 1063 l 448 1497 m 6 1497 l 338 1497 l 568 1063 l 280 1063 l 6 1497 m 611 -12 q 388 13 492 -12 q 207 101 283 39 q 85 259 130 163 q 41 490 41 355 q 85 716 41 623 q 207 868 130 809 q 388 954 284 926 q 611 981 492 981 q 834 954 730 981 q 1016 868 938 926 q 1138 716 1093 809 q 1183 490 1183 623 q 1162 328 1183 401 q 1105 198 1142 255 q 1016 101 1068 142 q 901 33 964 60 q 764 -3 837 6 q 611 -12 690 -12 m 611 692 q 544 682 571 692 q 498 655 516 671 q 470 618 480 639 q 455 575 460 597 q 450 531 451 553 q 449 494 449 510 q 450 457 449 478 q 454 412 450 435 q 468 366 458 389 q 495 324 477 342 q 542 295 513 306 q 611 283 570 283 q 680 294 652 283 q 726 323 708 305 q 754 363 744 341 q 769 409 764 386 q 774 453 773 431 q 775 490 775 475 q 774 528 775 507 q 769 572 773 549 q 754 615 764 594 q 726 654 744 637 q 680 681 708 671 q 611 692 652 692 z "},"Ȏ":{"ha":1302,"x_min":43,"x_max":1259,"o":"m 378 1140 q 401 1273 378 1216 q 463 1367 425 1329 q 550 1423 501 1404 q 650 1442 599 1442 q 750 1423 701 1442 q 838 1367 800 1404 q 900 1273 876 1329 q 923 1140 923 1216 l 741 1140 q 733 1184 741 1165 q 712 1217 725 1204 q 683 1237 699 1230 q 650 1243 667 1243 q 617 1237 633 1243 q 588 1217 601 1230 q 568 1184 576 1204 q 560 1140 560 1165 l 378 1140 m 650 -12 q 491 -2 568 -12 q 346 36 414 8 q 223 107 279 64 q 127 213 168 151 q 65 354 87 274 q 43 533 43 433 q 65 702 43 627 q 126 836 87 777 q 221 936 165 894 q 343 1005 276 978 q 489 1044 411 1031 q 650 1057 566 1057 q 812 1044 734 1057 q 958 1004 890 1031 q 1081 935 1026 977 q 1176 835 1137 893 q 1237 702 1215 777 q 1259 533 1259 627 q 1211 282 1259 387 q 1080 111 1163 177 q 887 16 998 44 q 650 -12 777 -12 m 650 747 q 577 736 607 747 q 529 707 548 725 q 499 665 509 688 q 484 618 489 642 q 478 572 479 595 q 477 533 477 550 q 478 494 477 516 q 484 447 479 471 q 499 399 489 423 q 529 357 509 376 q 577 327 548 338 q 650 315 607 315 q 723 327 694 315 q 772 357 753 338 q 803 399 792 376 q 818 447 813 423 q 824 494 823 471 q 825 533 825 516 q 824 572 825 550 q 818 618 823 595 q 803 665 813 642 q 772 707 792 688 q 723 736 753 725 q 650 747 694 747 z "},"ȏ":{"ha":1223,"x_min":41,"x_max":1183,"o":"m 338 1063 q 362 1196 338 1139 q 424 1290 385 1253 q 511 1347 462 1328 q 610 1365 559 1365 q 711 1347 662 1365 q 799 1290 760 1328 q 860 1196 837 1253 q 884 1063 884 1139 l 701 1063 q 693 1108 701 1088 q 673 1140 686 1127 q 644 1160 660 1154 q 611 1166 628 1166 q 578 1160 594 1166 q 549 1140 562 1154 q 529 1108 536 1127 q 521 1063 521 1088 l 338 1063 m 611 -12 q 388 13 492 -12 q 207 101 283 39 q 85 259 130 163 q 41 490 41 355 q 85 716 41 623 q 207 868 130 809 q 388 954 284 926 q 611 981 492 981 q 834 954 730 981 q 1016 868 938 926 q 1138 716 1093 809 q 1183 490 1183 623 q 1162 328 1183 401 q 1105 198 1142 255 q 1016 101 1068 142 q 901 33 964 60 q 764 -3 837 6 q 611 -12 690 -12 m 611 692 q 544 682 571 692 q 498 655 516 671 q 470 618 480 639 q 455 575 460 597 q 450 531 451 553 q 449 494 449 510 q 450 457 449 478 q 454 412 450 435 q 468 366 458 389 q 495 324 477 342 q 542 295 513 306 q 611 283 570 283 q 680 294 652 283 q 726 323 708 305 q 754 363 744 341 q 769 409 764 386 q 774 453 773 431 q 775 490 775 475 q 774 528 775 507 q 769 572 773 549 q 754 615 764 594 q 726 654 744 637 q 680 681 708 671 q 611 692 652 692 z "},"Ȑ":{"ha":1248,"x_min":-240,"x_max":1197,"o":"m 201 1574 l 534 1574 l 696 1140 l 408 1140 l 201 1574 m -240 1574 l 92 1574 l 322 1140 l 34 1140 l -240 1574 m 1197 0 l 766 0 q 724 82 745 39 q 682 172 702 125 q 644 269 661 219 q 614 372 626 319 l 590 372 l 590 0 l 69 0 l 69 294 l 156 311 l 156 730 l 69 747 l 69 1042 l 660 1042 q 863 1031 777 1042 q 1008 1000 948 1020 q 1104 951 1067 980 q 1162 886 1141 922 q 1190 807 1183 850 q 1197 715 1197 764 q 1188 627 1197 667 q 1156 554 1179 587 q 1093 493 1133 521 q 991 441 1053 466 q 1029 378 1004 414 q 1085 304 1055 342 q 1145 231 1115 267 q 1197 170 1175 195 l 1197 0 m 590 572 q 662 576 629 572 q 716 591 694 579 q 751 627 739 604 q 764 691 764 651 q 751 754 764 730 q 716 790 739 777 q 662 807 694 803 q 590 811 629 811 l 590 572 z "},"ȑ":{"ha":1175,"x_min":-9,"x_max":1126,"o":"m 432 1497 l 764 1497 l 926 1063 l 638 1063 l 432 1497 m -9 1497 l 323 1497 l 553 1063 l 264 1063 l -9 1497 m 1126 0 l 720 0 q 681 75 701 35 q 642 158 661 115 q 606 248 623 201 q 578 342 589 294 l 555 342 l 555 0 l 66 0 l 66 271 l 147 286 l 147 672 l 66 688 l 66 955 l 621 955 q 812 945 732 955 q 948 918 892 936 q 1039 873 1004 899 q 1093 814 1074 847 q 1119 742 1112 781 q 1126 659 1126 703 q 1117 577 1126 614 q 1087 510 1109 541 q 1028 454 1065 479 q 932 406 990 429 q 968 348 944 382 q 1021 280 992 315 q 1077 212 1049 245 q 1126 157 1105 180 l 1126 0 m 555 526 q 623 530 593 526 q 674 546 653 534 q 707 583 696 559 q 719 649 719 608 q 707 714 719 690 q 674 752 696 739 q 623 769 653 765 q 555 773 593 773 l 555 526 z "},"Ȓ":{"ha":1248,"x_min":69,"x_max":1197,"o":"m 336 1140 q 359 1273 336 1216 q 421 1367 382 1329 q 508 1423 459 1404 q 608 1442 557 1442 q 708 1423 659 1442 q 796 1367 758 1404 q 858 1273 834 1329 q 881 1140 881 1216 l 699 1140 q 691 1184 699 1165 q 670 1217 683 1204 q 641 1237 657 1230 q 608 1243 625 1243 q 575 1237 591 1243 q 546 1217 559 1230 q 526 1184 534 1204 q 518 1140 518 1165 l 336 1140 m 1197 0 l 766 0 q 724 82 745 39 q 682 172 702 125 q 644 269 661 219 q 614 372 626 319 l 590 372 l 590 0 l 69 0 l 69 294 l 156 311 l 156 730 l 69 747 l 69 1042 l 660 1042 q 863 1031 777 1042 q 1008 1000 948 1020 q 1104 951 1067 980 q 1162 886 1141 922 q 1190 807 1183 850 q 1197 715 1197 764 q 1188 627 1197 667 q 1156 554 1179 587 q 1093 493 1133 521 q 991 441 1053 466 q 1029 378 1004 414 q 1085 304 1055 342 q 1145 231 1115 267 q 1197 170 1175 195 l 1197 0 m 590 572 q 662 576 629 572 q 716 591 694 579 q 751 627 739 604 q 764 691 764 651 q 751 754 764 730 q 716 790 739 777 q 662 807 694 803 q 590 811 629 811 l 590 572 z "},"ȓ":{"ha":1175,"x_min":66,"x_max":1126,"o":"m 323 1063 q 347 1196 323 1139 q 409 1290 370 1253 q 496 1347 447 1328 q 595 1365 545 1365 q 696 1347 647 1365 q 784 1290 745 1328 q 845 1196 822 1253 q 869 1063 869 1139 l 686 1063 q 679 1108 686 1088 q 658 1140 671 1127 q 629 1160 645 1154 q 596 1166 613 1166 q 563 1160 579 1166 q 534 1140 547 1154 q 514 1108 522 1127 q 506 1063 506 1088 l 323 1063 m 1126 0 l 720 0 q 681 75 701 35 q 642 158 661 115 q 606 248 623 201 q 578 342 589 294 l 555 342 l 555 0 l 66 0 l 66 271 l 147 286 l 147 672 l 66 688 l 66 955 l 621 955 q 812 945 732 955 q 948 918 892 936 q 1039 873 1004 899 q 1093 814 1074 847 q 1119 742 1112 781 q 1126 659 1126 703 q 1117 577 1126 614 q 1087 510 1109 541 q 1028 454 1065 479 q 932 406 990 429 q 968 348 944 382 q 1021 280 992 315 q 1077 212 1049 245 q 1126 157 1105 180 l 1126 0 m 555 526 q 623 530 593 526 q 674 546 653 534 q 707 583 696 559 q 719 649 719 608 q 707 714 719 690 q 674 752 696 739 q 623 769 653 765 q 555 773 593 773 l 555 526 z "},"Ȕ":{"ha":1322,"x_min":41,"x_max":1279,"o":"m 497 1574 l 829 1574 l 991 1140 l 703 1140 l 497 1574 m 56 1574 l 388 1574 l 618 1140 l 330 1140 l 56 1574 m 1192 730 q 1192 688 1192 709 q 1192 648 1192 667 l 1192 533 q 1153 285 1192 389 q 1046 114 1114 181 q 888 17 979 46 q 696 -12 798 -12 q 544 -2 617 -12 q 408 38 471 9 q 294 111 345 66 q 205 217 242 155 q 148 357 168 278 q 128 533 128 435 l 128 730 l 41 747 l 41 1042 l 605 1042 l 605 747 l 518 730 l 518 643 q 518 609 518 626 q 518 576 518 591 q 519 550 519 562 q 519 533 519 538 q 519 494 519 516 q 525 447 520 471 q 541 399 530 423 q 570 357 551 376 q 619 327 589 338 q 692 315 648 315 q 765 327 735 315 q 814 357 794 338 q 844 399 833 376 q 859 447 854 423 q 865 494 864 471 q 866 533 866 516 q 866 550 866 538 q 866 576 866 562 q 865 609 865 591 q 865 643 865 626 l 865 730 l 779 747 l 779 1042 l 1279 1042 l 1279 747 l 1192 730 z "},"ȕ":{"ha":1241,"x_min":14,"x_max":1201,"o":"m 456 1497 l 788 1497 l 950 1063 l 662 1063 l 456 1497 m 14 1497 l 347 1497 l 576 1063 l 288 1063 l 14 1497 m 1119 672 q 1118 632 1118 652 q 1118 595 1118 613 l 1118 490 q 1081 258 1118 355 q 980 100 1044 161 q 830 13 916 38 q 648 -12 745 -12 q 440 13 537 -12 q 272 100 344 38 q 160 258 201 162 q 119 490 119 355 l 119 672 l 37 688 l 37 955 l 567 955 l 567 688 l 486 672 l 486 591 q 486 558 486 575 q 486 528 486 542 q 486 503 486 513 q 486 489 486 492 q 487 453 486 473 q 492 410 488 432 q 507 367 497 388 q 535 328 517 345 q 580 301 553 311 q 648 290 608 290 q 717 301 689 290 q 763 329 745 311 q 791 368 781 346 q 806 411 802 389 q 811 454 810 433 q 812 490 812 475 q 812 506 812 495 q 812 530 812 516 q 812 560 812 544 q 812 591 812 576 l 812 672 l 730 688 l 730 955 l 1201 955 l 1201 688 l 1119 672 z "},"Ȗ":{"ha":1322,"x_min":41,"x_max":1279,"o":"m 387 1140 q 411 1273 387 1216 q 472 1367 434 1329 q 559 1423 511 1404 q 659 1442 608 1442 q 760 1423 711 1442 q 847 1367 809 1404 q 909 1273 886 1329 q 932 1140 932 1216 l 750 1140 q 742 1184 750 1165 q 722 1217 734 1204 q 693 1237 709 1230 q 660 1243 677 1243 q 627 1237 643 1243 q 598 1217 610 1230 q 577 1184 585 1204 q 570 1140 570 1165 l 387 1140 m 1192 730 q 1192 688 1192 709 q 1192 648 1192 667 l 1192 533 q 1153 285 1192 389 q 1046 114 1114 181 q 888 17 979 46 q 696 -12 798 -12 q 544 -2 617 -12 q 408 38 471 9 q 294 111 345 66 q 205 217 242 155 q 148 357 168 278 q 128 533 128 435 l 128 730 l 41 747 l 41 1042 l 605 1042 l 605 747 l 518 730 l 518 643 q 518 609 518 626 q 518 576 518 591 q 519 550 519 562 q 519 533 519 538 q 519 494 519 516 q 525 447 520 471 q 541 399 530 423 q 570 357 551 376 q 619 327 589 338 q 692 315 648 315 q 765 327 735 315 q 814 357 794 338 q 844 399 833 376 q 859 447 854 423 q 865 494 864 471 q 866 533 866 516 q 866 550 866 538 q 866 576 866 562 q 865 609 865 591 q 865 643 865 626 l 865 730 l 779 747 l 779 1042 l 1279 1042 l 1279 747 l 1192 730 z "},"ȗ":{"ha":1241,"x_min":37,"x_max":1201,"o":"m 347 1063 q 370 1196 347 1139 q 432 1290 393 1253 q 519 1347 470 1328 q 618 1365 568 1365 q 719 1347 670 1365 q 807 1290 768 1328 q 868 1196 845 1253 q 892 1063 892 1139 l 709 1063 q 702 1108 709 1088 q 681 1140 694 1127 q 652 1160 668 1154 q 619 1166 636 1166 q 586 1160 602 1166 q 557 1140 570 1154 q 537 1108 545 1127 q 529 1063 529 1088 l 347 1063 m 1119 672 q 1118 632 1118 652 q 1118 595 1118 613 l 1118 490 q 1081 258 1118 355 q 980 100 1044 161 q 830 13 916 38 q 648 -12 745 -12 q 440 13 537 -12 q 272 100 344 38 q 160 258 201 162 q 119 490 119 355 l 119 672 l 37 688 l 37 955 l 567 955 l 567 688 l 486 672 l 486 591 q 486 558 486 575 q 486 528 486 542 q 486 503 486 513 q 486 489 486 492 q 487 453 486 473 q 492 410 488 432 q 507 367 497 388 q 535 328 517 345 q 580 301 553 311 q 648 290 608 290 q 717 301 689 290 q 763 329 745 311 q 791 368 781 346 q 806 411 802 389 q 811 454 810 433 q 812 490 812 475 q 812 506 812 495 q 812 530 812 516 q 812 560 812 544 q 812 591 812 576 l 812 672 l 730 688 l 730 955 l 1201 955 l 1201 688 l 1119 672 z "},"Ș":{"ha":1014,"x_min":57,"x_max":962,"o":"m 962 327 q 942 208 961 260 q 890 118 924 156 q 812 55 857 81 q 716 13 768 28 q 608 -8 665 -3 q 494 -12 551 -12 q 313 -4 391 -12 q 180 26 269 1 q 66 67 107 45 l 66 335 l 270 335 q 350 263 305 286 q 441 240 394 240 q 468 242 453 240 q 496 254 483 244 q 518 283 509 263 q 528 340 528 304 q 412 356 469 346 q 302 384 355 366 q 205 428 250 401 q 127 493 160 455 q 76 582 94 531 q 57 701 57 633 q 76 827 57 772 q 128 921 95 882 q 205 987 161 961 q 301 1029 250 1013 q 407 1048 352 1044 q 517 1053 463 1053 q 662 1047 597 1053 q 777 1029 726 1041 q 868 1001 829 1017 q 939 972 908 986 l 939 707 l 735 707 q 658 779 701 756 q 571 802 616 802 q 543 799 559 802 q 514 785 528 796 q 491 752 500 774 q 481 694 481 731 q 690 669 600 690 q 841 603 781 647 q 931 491 901 559 q 962 327 962 423 z "},"ș":{"ha":941,"x_min":46,"x_max":897,"o":"m 897 300 q 879 189 897 237 q 830 105 861 140 q 756 45 799 69 q 665 7 714 22 q 563 -10 616 -7 q 457 -12 510 -12 q 325 -9 384 -12 q 219 6 266 -5 q 137 32 173 18 q 75 59 102 45 l 75 294 l 267 294 q 332 229 295 250 q 407 208 368 208 q 433 210 418 208 q 459 222 447 212 q 480 256 471 233 q 488 320 488 279 q 379 334 433 325 q 276 359 326 343 q 185 398 227 374 q 112 457 143 422 q 64 537 81 491 q 46 644 46 584 q 64 765 46 713 q 112 854 81 817 q 184 916 142 892 q 274 955 226 941 q 374 975 322 969 q 479 981 427 981 q 611 973 553 981 q 716 954 670 966 q 799 929 763 943 q 862 902 834 915 l 862 665 l 656 665 q 597 736 631 713 q 530 758 564 758 q 503 754 518 758 q 475 738 488 751 q 454 700 463 725 q 445 632 445 675 q 641 608 557 628 q 783 550 726 589 q 868 449 840 511 q 897 300 897 388 z "},"Ț":{"ha":1004,"x_min":24,"x_max":979,"o":"m 979 1042 l 979 694 l 865 694 q 839 725 854 709 q 806 753 824 741 q 766 773 787 766 q 719 781 744 781 l 719 311 l 806 294 l 806 0 l 198 0 l 198 294 l 285 311 l 285 781 q 238 773 260 781 q 198 753 216 766 q 165 725 180 741 q 138 694 150 709 l 24 694 l 24 1042 l 979 1042 z "},"ț":{"ha":979,"x_min":27,"x_max":952,"o":"m 286 703 q 223 693 250 703 q 178 669 196 684 q 150 638 159 655 q 140 608 140 622 l 27 608 l 27 955 l 952 955 l 952 608 l 839 608 q 829 638 839 622 q 802 669 820 655 q 756 693 783 684 q 694 703 729 703 l 694 286 l 775 271 l 775 0 l 204 0 l 204 271 l 286 286 l 286 703 z "},"ˆ":{"ha":865,"x_min":36,"x_max":829,"o":"m 36 1128 l 267 1562 l 599 1562 l 829 1128 l 541 1128 l 433 1388 l 324 1128 l 36 1128 z "},"ˇ":{"ha":865,"x_min":36,"x_max":829,"o":"m 324 1562 l 433 1302 l 541 1562 l 829 1562 l 599 1128 l 267 1128 l 36 1562 l 324 1562 z "},"˘":{"ha":633,"x_min":44,"x_max":589,"o":"m 227 1343 q 234 1298 227 1317 q 255 1266 242 1279 q 283 1246 267 1253 q 317 1240 300 1240 q 350 1246 334 1240 q 378 1266 366 1253 q 399 1298 391 1279 q 407 1343 407 1317 l 589 1343 q 566 1210 589 1267 q 504 1116 543 1154 q 417 1060 466 1078 q 316 1041 368 1041 q 216 1060 265 1041 q 129 1116 168 1078 q 67 1210 91 1154 q 44 1343 44 1267 l 227 1343 z "},"˙":{"ha":562,"x_min":64,"x_max":498,"o":"m 64 1476 l 498 1476 l 498 1128 l 64 1128 l 64 1476 z "},"˚":{"ha":636,"x_min":45,"x_max":591,"o":"m 591 1306 q 567 1190 591 1240 q 506 1108 544 1141 q 418 1058 467 1075 q 317 1042 369 1042 q 218 1058 267 1042 q 131 1108 169 1075 q 69 1190 92 1141 q 45 1306 45 1240 q 69 1420 45 1371 q 130 1502 92 1470 q 217 1552 168 1535 q 317 1568 267 1568 q 417 1552 368 1568 q 505 1502 467 1535 q 567 1420 544 1470 q 591 1306 591 1371 m 435 1303 q 425 1360 435 1335 q 398 1401 415 1385 q 361 1427 382 1418 q 317 1435 340 1435 q 275 1427 296 1435 q 237 1402 254 1419 q 211 1361 221 1385 q 201 1303 201 1336 q 211 1244 201 1269 q 237 1202 221 1219 q 275 1177 254 1185 q 318 1169 296 1169 q 361 1178 340 1169 q 399 1203 382 1186 q 425 1244 415 1219 q 435 1303 435 1270 z "},"˛":{"ha":520,"x_min":41,"x_max":474,"o":"m 258 -286 q 281 -354 258 -333 q 350 -375 305 -375 q 474 -349 395 -375 l 474 -564 q 385 -586 431 -578 q 300 -594 340 -594 q 196 -579 243 -594 q 114 -531 149 -564 q 60 -450 79 -499 q 41 -334 41 -401 q 48 -267 41 -300 q 67 -202 56 -233 q 95 -144 79 -172 q 127 -92 111 -116 q 214 14 164 -36 l 440 14 q 391 -37 414 -12 q 349 -89 368 -63 q 315 -136 332 -111 q 286 -186 299 -161 q 266 -237 273 -212 q 258 -286 258 -262 z "},"˜":{"ha":714,"x_min":54,"x_max":661,"o":"m 621 1098 q 570 1055 599 1067 q 511 1043 542 1043 q 447 1053 480 1043 q 380 1076 414 1063 q 312 1098 346 1088 q 245 1108 278 1108 q 151 1093 199 1108 q 54 1037 104 1077 l 96 1326 q 150 1365 121 1354 q 211 1377 178 1377 q 274 1364 241 1377 q 340 1338 307 1352 q 406 1311 373 1323 q 472 1299 439 1299 q 565 1317 518 1299 q 661 1381 611 1335 l 621 1098 z "},"˝":{"ha":1180,"x_min":104,"x_max":1144,"o":"m 832 1128 l 537 1128 l 812 1563 l 1144 1563 l 832 1128 m 379 1128 l 104 1128 l 273 1563 l 606 1563 l 379 1128 z "},"̏":{"ha":1017,"x_min":35,"x_max":971,"o":"m 477 1563 l 809 1563 l 971 1128 l 683 1128 l 477 1563 m 35 1563 l 368 1563 l 597 1128 l 309 1128 l 35 1563 z "},"̑":{"ha":633,"x_min":44,"x_max":589,"o":"m 44 1041 q 67 1174 44 1117 q 129 1268 91 1230 q 216 1324 168 1305 q 316 1343 265 1343 q 417 1324 368 1343 q 504 1268 466 1305 q 566 1174 543 1230 q 589 1041 589 1117 l 407 1041 q 399 1085 407 1066 q 378 1118 391 1105 q 350 1138 366 1131 q 317 1144 334 1144 q 283 1138 300 1144 q 255 1118 267 1131 q 234 1085 242 1105 q 227 1041 227 1066 l 44 1041 z "},"̦":{"ha":602,"x_min":49,"x_max":483,"o":"m 49 -178 l 483 -178 l 483 -524 q 453 -669 483 -610 q 374 -764 423 -728 q 263 -816 326 -800 q 136 -831 201 -831 l 136 -612 q 163 -607 149 -611 q 191 -593 178 -603 q 213 -567 204 -584 q 222 -525 222 -551 l 49 -525 l 49 -178 z "},"Δ":{"ha":985,"x_min":41,"x_max":945,"o":"m 945 0 l 41 0 l 235 794 l 741 794 l 945 0 m 400 146 l 584 146 l 492 589 l 400 146 z "},"μ":{"ha":1238,"x_min":37,"x_max":1200,"o":"m 118 672 l 37 688 l 37 955 l 566 955 l 566 688 l 485 672 l 486 367 q 510 342 495 355 q 544 317 524 328 q 590 298 564 305 q 648 290 616 290 q 716 301 688 290 q 763 329 745 311 q 791 368 781 346 q 805 411 801 389 q 811 454 810 433 q 812 490 812 475 q 812 506 812 495 q 811 530 812 516 q 811 560 811 544 q 811 591 811 576 l 811 672 l 730 688 l 730 955 l 1200 955 l 1200 688 l 1118 672 q 1118 632 1118 652 q 1118 595 1118 613 l 1118 490 q 1083 255 1118 353 q 987 94 1048 157 q 847 3 927 32 q 675 -26 766 -26 q 566 -12 617 -26 q 466 31 515 2 l 466 -173 l 118 -173 l 118 672 z "},"–":{"ha":498,"x_min":75,"x_max":422,"o":"m 422 608 l 422 434 l 75 434 l 75 608 l 422 608 z "},"—":{"ha":625,"x_min":75,"x_max":549,"o":"m 549 608 l 549 434 l 75 434 l 75 608 l 549 608 z "},"‘":{"ha":570,"x_min":73,"x_max":507,"o":"m 507 434 l 73 434 l 73 781 q 102 916 73 861 q 181 1005 132 971 q 292 1054 230 1039 q 420 1069 355 1069 l 420 868 q 391 863 406 867 q 363 850 376 859 q 342 824 351 840 q 334 781 334 807 l 507 781 l 507 434 z "},"’":{"ha":532,"x_min":47,"x_max":481,"o":"m 47 1042 l 481 1042 l 481 695 q 451 550 481 609 q 372 455 421 492 q 261 404 323 419 q 134 388 199 388 l 134 608 q 161 612 146 608 q 189 626 176 616 q 211 652 202 635 q 220 694 220 669 l 47 694 l 47 1042 z "},"‚":{"ha":574,"x_min":70,"x_max":504,"o":"m 70 347 l 504 347 l 504 1 q 474 -144 504 -85 q 395 -239 444 -203 q 284 -291 347 -275 q 157 -307 222 -307 l 157 -87 q 184 -82 170 -86 q 212 -68 199 -78 q 234 -42 225 -59 q 243 0 243 -26 l 70 0 l 70 347 z "},"“":{"ha":1091,"x_min":73,"x_max":1027,"o":"m 1027 434 l 593 434 l 593 781 q 623 916 593 861 q 702 1005 653 971 q 813 1054 751 1039 q 941 1069 876 1069 l 941 868 q 912 863 927 867 q 884 850 897 859 q 863 824 871 840 q 854 781 854 807 l 1027 781 l 1027 434 m 507 434 l 73 434 l 73 781 q 102 916 73 861 q 181 1005 132 971 q 292 1054 230 1039 q 420 1069 355 1069 l 420 868 q 391 863 406 867 q 363 850 376 859 q 342 824 351 840 q 334 781 334 807 l 507 781 l 507 434 z "},"”":{"ha":1053,"x_min":47,"x_max":1002,"o":"m 568 1042 l 1002 1042 l 1002 695 q 972 550 1002 609 q 893 455 942 492 q 782 404 844 419 q 654 388 720 388 l 654 608 q 682 612 667 608 q 710 626 697 616 q 732 652 723 635 q 741 694 741 669 l 568 694 l 568 1042 m 47 1042 l 481 1042 l 481 695 q 451 550 481 609 q 372 455 421 492 q 261 404 323 419 q 134 388 199 388 l 134 608 q 161 612 146 608 q 189 626 176 616 q 211 652 202 635 q 220 694 220 669 l 47 694 l 47 1042 z "},"„":{"ha":1095,"x_min":70,"x_max":1025,"o":"m 591 347 l 1025 347 l 1025 1 q 995 -144 1025 -85 q 916 -239 965 -203 q 805 -291 867 -275 q 677 -307 743 -307 l 677 -87 q 705 -82 690 -86 q 733 -68 720 -78 q 755 -42 746 -59 q 764 0 764 -26 l 591 0 l 591 347 m 70 347 l 504 347 l 504 1 q 474 -144 504 -85 q 395 -239 444 -203 q 284 -291 347 -275 q 157 -307 222 -307 l 157 -87 q 184 -82 170 -86 q 212 -68 199 -78 q 234 -42 225 -59 q 243 0 243 -26 l 70 0 l 70 347 z "},"†":{"ha":689,"x_min":41,"x_max":648,"o":"m 41 868 l 214 868 l 214 1042 l 475 1042 l 475 868 l 648 868 l 648 651 l 475 651 l 475 217 l 214 217 l 214 651 l 41 651 l 41 868 z "},"‡":{"ha":753,"x_min":73,"x_max":680,"o":"m 73 868 l 246 868 l 246 1042 l 507 1042 l 507 868 l 680 868 l 680 651 l 507 651 l 507 521 l 680 521 l 680 304 l 507 304 l 507 217 l 246 217 l 246 304 l 73 304 l 73 521 l 246 521 l 246 651 l 73 651 l 73 868 z "},"•":{"ha":599,"x_min":39,"x_max":560,"o":"m 560 435 q 538 329 560 374 q 478 254 515 284 q 394 209 441 224 q 298 194 347 194 q 203 209 250 194 q 120 254 156 224 q 61 329 83 284 q 39 435 39 374 q 61 539 39 494 q 120 614 83 584 q 203 659 156 644 q 298 673 250 673 q 394 659 347 673 q 478 614 441 644 q 538 539 515 584 q 560 435 560 494 z "},"…":{"ha":1778,"x_min":71,"x_max":1708,"o":"m 1274 347 l 1708 347 l 1708 0 l 1274 0 l 1274 347 m 672 347 l 1106 347 l 1106 0 l 672 0 l 672 347 m 71 347 l 505 347 l 505 0 l 71 0 l 71 347 z "},"‰":{"ha":3278,"x_min":38,"x_max":3240,"o":"m 450 256 q 289 280 364 256 q 158 353 214 303 q 70 481 102 403 q 38 671 38 560 q 70 854 38 779 q 158 977 102 930 q 289 1046 214 1025 q 450 1068 364 1068 q 610 1046 534 1068 q 741 977 685 1025 q 829 854 797 930 q 862 671 862 779 q 829 481 862 560 q 741 353 797 403 q 610 280 685 303 q 450 256 535 256 m 1078 1042 l 1512 1042 l 1251 0 l 817 0 l 1078 1042 m 450 830 q 400 822 420 830 q 367 800 380 813 q 347 769 354 787 q 337 734 340 752 q 333 700 334 717 q 332 671 332 684 q 333 643 332 659 q 337 608 334 626 q 347 573 340 590 q 367 542 354 555 q 400 519 380 528 q 450 511 420 511 q 499 519 479 511 q 532 542 519 528 q 552 573 545 555 q 563 608 559 590 q 567 643 566 626 q 568 671 568 659 q 567 700 568 684 q 563 734 566 717 q 552 769 559 752 q 532 800 545 787 q 499 822 519 813 q 450 830 479 830 m 2827 -28 q 2667 -5 2742 -28 q 2536 68 2592 18 q 2448 197 2480 118 q 2416 387 2416 275 q 2448 569 2416 494 q 2536 692 2480 645 q 2667 762 2592 740 q 2827 783 2742 783 q 2987 762 2912 783 q 3119 692 3063 740 q 3207 569 3175 645 q 3240 387 3240 494 q 3207 197 3240 275 q 3119 68 3175 118 q 2988 -5 3063 18 q 2827 -28 2913 -28 m 1897 -28 q 1736 -5 1811 -28 q 1606 68 1662 18 q 1517 197 1550 118 q 1485 387 1485 275 q 1517 569 1485 494 q 1606 692 1550 645 q 1736 762 1662 740 q 1897 783 1811 783 q 2057 762 1982 783 q 2188 692 2132 740 q 2277 569 2244 645 q 2309 387 2309 494 q 2277 197 2309 275 q 2188 68 2244 118 q 2057 -5 2132 18 q 1897 -28 1982 -28 m 2827 545 q 2778 537 2798 545 q 2745 515 2757 528 q 2725 485 2732 502 q 2714 450 2717 467 q 2711 415 2711 432 q 2710 387 2710 399 q 2711 358 2710 374 q 2714 323 2711 341 q 2725 288 2717 305 q 2745 257 2732 271 q 2778 234 2757 243 q 2827 226 2798 226 q 2877 234 2856 226 q 2910 257 2897 243 q 2930 288 2923 271 q 2941 323 2937 305 q 2945 358 2944 341 q 2945 387 2945 374 q 2945 415 2945 399 q 2941 450 2944 432 q 2930 485 2937 467 q 2910 515 2923 502 q 2877 537 2897 528 q 2827 545 2856 545 m 1897 545 q 1847 537 1868 545 q 1814 515 1827 528 q 1794 485 1801 502 q 1784 450 1787 467 q 1780 415 1781 432 q 1780 387 1780 399 q 1780 358 1780 374 q 1784 323 1781 341 q 1794 288 1787 305 q 1814 257 1801 271 q 1847 234 1827 243 q 1897 226 1868 226 q 1946 234 1926 226 q 1980 257 1967 243 q 2000 288 1992 271 q 2010 323 2007 305 q 2014 358 2013 341 q 2015 387 2015 374 q 2014 415 2015 399 q 2010 450 2013 432 q 2000 485 2007 467 q 1980 515 1992 502 q 1946 537 1967 528 q 1897 545 1926 545 z "},"‹":{"ha":616,"x_min":46,"x_max":543,"o":"m 317 425 l 543 315 l 543 -12 l 46 242 l 46 710 l 543 964 l 543 535 l 317 425 z "},"›":{"ha":616,"x_min":73,"x_max":570,"o":"m 73 535 l 73 964 l 570 710 l 570 242 l 73 -12 l 73 315 l 299 425 l 73 535 z "},"⁄":{"ha":688,"x_min":-3,"x_max":692,"o":"m 258 1042 l 692 1042 l 431 0 l -3 0 l 258 1042 z "},"⁴":{"ha":781,"x_min":18,"x_max":751,"o":"m 18 736 l 312 1050 l 605 1069 l 605 736 l 751 736 l 751 618 l 605 618 l 605 557 l 664 546 l 664 347 l 253 347 l 253 546 l 312 557 l 312 618 l 18 618 l 18 736 m 187 736 l 312 736 l 312 882 l 187 736 z "},"€":{"ha":1140,"x_min":39,"x_max":1065,"o":"m 130 679 q 195 853 149 780 q 309 975 241 927 q 467 1046 378 1023 q 663 1069 557 1069 q 828 1055 758 1069 q 952 1026 899 1042 q 1065 983 1015 1007 l 1065 660 l 874 660 q 801 747 842 720 q 717 775 760 775 q 627 750 670 775 q 555 679 584 726 l 717 679 l 717 566 l 519 566 q 518 550 519 558 q 518 533 518 542 q 518 516 518 524 q 519 500 519 507 l 717 500 l 717 387 l 550 387 q 625 317 577 338 q 743 295 673 295 q 884 314 802 295 q 1065 374 966 334 l 1065 48 q 862 -8 961 12 q 669 -27 764 -27 q 480 -2 569 -27 q 320 75 391 23 q 200 204 249 126 q 130 387 151 281 l 39 387 l 39 500 l 118 500 q 117 516 117 508 q 117 533 117 524 q 117 550 117 541 q 118 566 117 558 l 39 566 l 39 679 l 130 679 z "},"™":{"ha":1671,"x_min":67,"x_max":1592,"o":"m 1035 730 l 1035 434 l 731 434 l 731 606 l 782 615 l 782 861 l 731 870 l 731 1042 l 1035 1042 l 1162 808 l 1289 1042 l 1592 1042 l 1592 870 l 1541 861 l 1541 615 l 1592 606 l 1592 434 l 1289 434 l 1289 730 l 1162 512 l 1035 730 m 675 1042 l 675 839 l 587 839 q 571 857 580 848 q 551 873 562 866 q 527 885 540 880 q 497 890 513 890 l 497 615 l 548 606 l 548 434 l 193 434 l 193 606 l 244 615 l 244 890 q 216 885 229 890 q 191 873 203 880 q 170 857 180 866 q 154 839 161 848 l 67 839 l 67 1042 l 675 1042 z "},"−":{"ha":678,"x_min":79,"x_max":600,"o":"m 79 608 l 600 608 l 600 347 l 79 347 l 79 608 z "},"∫":{"ha":930,"x_min":-5,"x_max":933,"o":"m 268 650 q 274 766 268 710 q 296 871 280 822 q 339 960 312 920 q 408 1028 366 1000 q 508 1073 450 1057 q 644 1088 566 1088 q 755 1074 703 1088 q 848 1025 808 1059 q 910 932 887 990 q 933 789 933 875 q 933 778 933 784 q 932 767 932 772 l 718 767 q 721 784 720 772 q 723 810 723 796 q 722 831 723 821 q 717 851 720 842 q 708 865 713 860 q 694 871 703 871 q 675 851 684 871 q 667 780 667 831 l 667 279 q 643 137 667 204 q 573 21 619 71 q 459 -58 527 -29 q 302 -87 391 -87 q 188 -71 243 -87 q 90 -24 132 -55 q 21 52 47 7 q -5 155 -5 97 q 9 245 -5 197 l 222 245 q 220 227 222 241 q 219 198 219 214 q 220 179 219 189 q 223 162 221 170 q 230 150 226 155 q 241 145 235 145 q 251 152 246 145 q 259 173 256 158 q 266 214 263 189 q 268 277 268 239 l 268 650 z "},"◊":{"ha":980,"x_min":39,"x_max":942,"o":"m 233 1042 l 739 1042 l 942 524 l 739 1 l 233 1 l 39 524 l 233 1042 m 489 205 l 581 524 l 489 837 l 397 524 l 489 205 z "},"":{"ha":0,"x_min":0,"x_max":0,"o":""},"":{"ha":0,"x_min":0,"x_max":0,"o":""},"ﬁ":{"ha":1593,"x_min":65,"x_max":1527,"o":"m 555 515 l 728 555 l 728 348 l 555 389 l 555 286 l 636 269 l 636 0 l 65 0 l 65 271 l 146 286 l 146 671 l 65 686 l 65 955 l 854 955 l 854 608 l 741 608 q 664 660 711 638 q 555 682 616 682 l 555 515 m 956 955 l 1527 955 l 1527 688 l 1446 672 l 1446 286 l 1527 271 l 1527 0 l 956 0 l 956 271 l 1038 286 l 1038 672 l 956 688 l 956 955 z "},"ﬂ":{"ha":1758,"x_min":65,"x_max":1732,"o":"m 555 515 l 728 555 l 728 348 l 555 389 l 555 286 l 636 269 l 636 0 l 65 0 l 65 271 l 146 286 l 146 671 l 65 686 l 65 955 l 854 955 l 854 608 l 741 608 q 664 660 711 638 q 555 682 616 682 l 555 515 m 1445 260 q 1499 268 1474 260 q 1547 289 1525 276 q 1587 316 1569 301 q 1619 347 1605 332 l 1732 347 l 1732 0 l 956 0 l 956 271 l 1038 286 l 1038 672 l 956 688 l 956 955 l 1527 955 l 1527 688 l 1445 672 l 1445 260 z "}}}
